<?xml version="1.0" encoding="UTF-8" standalone="no"?>
<svg
   xmlns:dc="http://purl.org/dc/elements/1.1/"
   xmlns:cc="http://creativecommons.org/ns#"
   xmlns:rdf="http://www.w3.org/1999/02/22-rdf-syntax-ns#"
   xmlns:svg="http://www.w3.org/2000/svg"
   xmlns="http://www.w3.org/2000/svg"
   xmlns:sodipodi="http://sodipodi.sourceforge.net/DTD/sodipodi-0.dtd"
   xmlns:inkscape="http://www.inkscape.org/namespaces/inkscape"
   width="4.2002602mm"
   height="4.2002683mm"
   viewBox="0 0 4.2002602 4.2002683"
   version="1.1"
   id="svg8"
   inkscape:version="1.0.1 (3bc2e813f5, 2020-09-07)"
   sodipodi:docname="icon.svg">
  <defs
     id="defs2" />
  <sodipodi:namedview
     id="base"
     pagecolor="#ffffff"
     bordercolor="#666666"
     borderopacity="1.0"
     inkscape:pageopacity="0.0"
     inkscape:pageshadow="2"
     inkscape:zoom="12.459912"
     inkscape:cx="7.7485697"
     inkscape:cy="13.006289"
     inkscape:document-units="mm"
     inkscape:current-layer="layer1"
     inkscape:document-rotation="0"
     showgrid="false"
     fit-margin-top="0"
     fit-margin-left="0"
     fit-margin-right="0"
     fit-margin-bottom="0"
     inkscape:window-width="1267"
     inkscape:window-height="1045"
     inkscape:window-x="286"
     inkscape:window-y="0"
     inkscape:window-maximized="0" />
  <metadata
     id="metadata5">
    <rdf:RDF>
      <cc:Work
         rdf:about="">
        <dc:format>image/svg+xml</dc:format>
        <dc:type
           rdf:resource="http://purl.org/dc/dcmitype/StillImage" />
        <dc:title></dc:title>
      </cc:Work>
    </rdf:RDF>
  </metadata>
  <g
     inkscape:label="Layer 1"
     inkscape:groupmode="layer"
     id="layer1"
     transform="translate(-124.97812,-183.33038)">
    <g
       transform="matrix(0.26458333,0,0,0.26458333,124.83797,109.08927)"
       id="g4"
       inkscape:export-xdpi="1161.0699"
       inkscape:export-ydpi="1161.0699">
      <path
         style="color:#000000;font-style:normal;font-variant:normal;font-weight:normal;font-stretch:normal;font-size:medium;line-height:normal;font-family:sans-serif;font-variant-ligatures:normal;font-variant-position:normal;font-variant-caps:normal;font-variant-numeric:normal;font-variant-alternates:normal;font-feature-settings:normal;text-indent:0;text-align:start;text-decoration:none;text-decoration-line:none;text-decoration-style:solid;text-decoration-color:#000000;letter-spacing:normal;word-spacing:normal;text-transform:none;writing-mode:lr-tb;direction:ltr;text-orientation:mixed;dominant-baseline:auto;baseline-shift:baseline;text-anchor:start;white-space:normal;shape-padding:0;clip-rule:nonzero;display:inline;overflow:visible;visibility:visible;opacity:1;isolation:auto;mix-blend-mode:normal;color-interpolation:sRGB;color-interpolation-filters:linearRGB;solid-color:#000000;solid-opacity:1;vector-effect:none;fill:#000000;fill-opacity:1;fill-rule:nonzero;stroke:none;stroke-width:0.529167;stroke-linecap:round;stroke-linejoin:round;stroke-miterlimit:4;stroke-dasharray:none;stroke-dashoffset:0;stroke-opacity:1;color-rendering:auto;image-rendering:auto;shape-rendering:auto;text-rendering:auto;enable-background:accumulate"
         d="m 8.467183,280.59634 c -1.1676195,0 -2.2781499,0.25138 -3.2773197,0.70487 -0.1367764,0.0621 -0.1945111,0.22543 -0.1271218,0.35967 l 0.4728396,0.94723 c 0.063484,0.12721 0.2161487,0.18152 0.3457151,0.12299 0.7897998,-0.35265 1.663962,-0.54674 2.5858868,-0.54674 3.51014,0 6.349484,2.83934 6.349484,6.34948 0,1.32046 -0.406431,2.54068 -1.095539,3.55689 l -0.834059,-0.83457 c -0.05699,-0.0571 -0.136898,-0.085 -0.21704,-0.076 -0.133708,0.0155 -0.234453,0.12895 -0.234096,0.26355 v 2.91042 c -5.29e-4,0.14612 0.11743,0.26504 0.263552,0.26562 h 2.909898 c 0.23772,0.002 0.357026,-0.28646 0.187587,-0.4532 l -0.937927,-0.93793 c 0.967642,-1.31547 1.54564,-2.9378 1.54564,-4.69481 0,-4.38062 -3.556878,-7.9375 -7.9375,-7.9375 z m -7.1447829,1.85157 c -0.2352977,9e-5 -0.35344919,0.28424 -0.1875856,0.45114 l 0.9384448,0.93844 c -0.9677924,1.31559 -1.54357577,2.93905 -1.54357577,4.69635 0,4.38063 3.55687777,7.9375 7.93749947,7.9375 1.1676221,0 2.278153,-0.25344 3.27732,-0.70693 0.13658,-0.0623 0.194061,-0.22557 0.126608,-0.35967 l -0.47439,-0.94723 c -0.06342,-0.12608 -0.21463,-0.1802 -0.343648,-0.12299 -0.78979,0.35265 -1.6639653,0.54881 -2.58589,0.54881 -3.5101372,-10e-6 -6.3494816,-2.83935 -6.3494816,-6.34949 0,-1.31998 0.4040346,-2.54167 1.0924382,-3.55792 l 0.8371602,0.83509 c 0.1668965,0.16586 0.4510405,0.0477 0.4511331,-0.18758 v -2.9099 c 5.292e-4,-0.14693 -0.1186868,-0.26618 -0.2656152,-0.26562 z m 7.660514,1.5875 c -0.086307,0.004 -0.1652085,0.0505 -0.2113571,0.12351 L 5.5981074,289.186 c -0.1112467,0.17567 0.014288,0.40512 0.2222103,0.40618 h 2.0959948 l -0.242361,3.15433 c -0.019447,0.27306 0.3378359,0.39228 0.4862751,0.16226 l 3.1760324,-5.0276 c 0.111871,-0.17665 -0.01569,-0.40716 -0.224793,-0.40618 H 9.015987 l 0.2439141,-3.15433 c 0.012647,-0.15918 -0.1175015,-0.29348 -0.276987,-0.28525 z"
         id="path2" />
    </g>
  </g>
</svg>
