<?xml version="1.0" encoding="utf-8" standalone="no"?>
<!DOCTYPE svg PUBLIC "-//W3C//DTD SVG 1.1//EN"
  "http://www.w3.org/Graphics/SVG/1.1/DTD/svg11.dtd">
<svg xmlns:xlink="http://www.w3.org/1999/xlink" width="711.040625pt" height="392.514375pt" viewBox="0 0 711.040625 392.514375" xmlns="http://www.w3.org/2000/svg" version="1.1">
 <metadata>
  <rdf:RDF xmlns:dc="http://purl.org/dc/elements/1.1/" xmlns:cc="http://creativecommons.org/ns#" xmlns:rdf="http://www.w3.org/1999/02/22-rdf-syntax-ns#">
   <cc:Work>
    <dc:type rdf:resource="http://purl.org/dc/dcmitype/StillImage"/>
    <dc:date>2023-12-11T22:02:39.027055</dc:date>
    <dc:format>image/svg+xml</dc:format>
    <dc:creator>
     <cc:Agent>
      <dc:title>Matplotlib v3.8.2, https://matplotlib.org/</dc:title>
     </cc:Agent>
    </dc:creator>
   </cc:Work>
  </rdf:RDF>
 </metadata>
 <defs>
  <style type="text/css">*{stroke-linejoin: round; stroke-linecap: butt}</style>
 </defs>
 <g id="figure_1">
  <g id="patch_1">
   <path d="M 0 392.514375 
L 711.040625 392.514375 
L 711.040625 0 
L 0 0 
z
" style="fill: #ffffff"/>
  </g>
  <g id="axes_1">
   <g id="patch_2">
    <path d="M 34.240625 354.958125 
L 703.840625 354.958125 
L 703.840625 22.318125 
L 34.240625 22.318125 
z
" style="fill: #ffffff"/>
   </g>
   <g id="matplotlib.axis_1">
    <g id="xtick_1">
     <g id="line2d_1">
      <defs>
       <path id="m769cc0d56e" d="M 0 0 
L 0 3.5 
" style="stroke: #000000; stroke-width: 0.8"/>
      </defs>
      <g>
       <use xlink:href="#m769cc0d56e" x="64.676989" y="354.958125" style="stroke: #000000; stroke-width: 0.8"/>
      </g>
     </g>
     <g id="text_1">
      <!-- (2021, 10) -->
      <g transform="translate(38.509801 369.556562) scale(0.1 -0.1)">
       <defs>
        <path id="DejaVuSans-28" d="M 1984 4856 
Q 1566 4138 1362 3434 
Q 1159 2731 1159 2009 
Q 1159 1288 1364 580 
Q 1569 -128 1984 -844 
L 1484 -844 
Q 1016 -109 783 600 
Q 550 1309 550 2009 
Q 550 2706 781 3412 
Q 1013 4119 1484 4856 
L 1984 4856 
z
" transform="scale(0.015625)"/>
        <path id="DejaVuSans-32" d="M 1228 531 
L 3431 531 
L 3431 0 
L 469 0 
L 469 531 
Q 828 903 1448 1529 
Q 2069 2156 2228 2338 
Q 2531 2678 2651 2914 
Q 2772 3150 2772 3378 
Q 2772 3750 2511 3984 
Q 2250 4219 1831 4219 
Q 1534 4219 1204 4116 
Q 875 4013 500 3803 
L 500 4441 
Q 881 4594 1212 4672 
Q 1544 4750 1819 4750 
Q 2544 4750 2975 4387 
Q 3406 4025 3406 3419 
Q 3406 3131 3298 2873 
Q 3191 2616 2906 2266 
Q 2828 2175 2409 1742 
Q 1991 1309 1228 531 
z
" transform="scale(0.015625)"/>
        <path id="DejaVuSans-30" d="M 2034 4250 
Q 1547 4250 1301 3770 
Q 1056 3291 1056 2328 
Q 1056 1369 1301 889 
Q 1547 409 2034 409 
Q 2525 409 2770 889 
Q 3016 1369 3016 2328 
Q 3016 3291 2770 3770 
Q 2525 4250 2034 4250 
z
M 2034 4750 
Q 2819 4750 3233 4129 
Q 3647 3509 3647 2328 
Q 3647 1150 3233 529 
Q 2819 -91 2034 -91 
Q 1250 -91 836 529 
Q 422 1150 422 2328 
Q 422 3509 836 4129 
Q 1250 4750 2034 4750 
z
" transform="scale(0.015625)"/>
        <path id="DejaVuSans-31" d="M 794 531 
L 1825 531 
L 1825 4091 
L 703 3866 
L 703 4441 
L 1819 4666 
L 2450 4666 
L 2450 531 
L 3481 531 
L 3481 0 
L 794 0 
L 794 531 
z
" transform="scale(0.015625)"/>
        <path id="DejaVuSans-2c" d="M 750 794 
L 1409 794 
L 1409 256 
L 897 -744 
L 494 -744 
L 750 256 
L 750 794 
z
" transform="scale(0.015625)"/>
        <path id="DejaVuSans-20" transform="scale(0.015625)"/>
        <path id="DejaVuSans-29" d="M 513 4856 
L 1013 4856 
Q 1481 4119 1714 3412 
Q 1947 2706 1947 2009 
Q 1947 1309 1714 600 
Q 1481 -109 1013 -844 
L 513 -844 
Q 928 -128 1133 580 
Q 1338 1288 1338 2009 
Q 1338 2731 1133 3434 
Q 928 4138 513 4856 
z
" transform="scale(0.015625)"/>
       </defs>
       <use xlink:href="#DejaVuSans-28"/>
       <use xlink:href="#DejaVuSans-32" x="39.013672"/>
       <use xlink:href="#DejaVuSans-30" x="102.636719"/>
       <use xlink:href="#DejaVuSans-32" x="166.259766"/>
       <use xlink:href="#DejaVuSans-31" x="229.882812"/>
       <use xlink:href="#DejaVuSans-2c" x="293.505859"/>
       <use xlink:href="#DejaVuSans-20" x="325.292969"/>
       <use xlink:href="#DejaVuSans-31" x="357.080078"/>
       <use xlink:href="#DejaVuSans-30" x="420.703125"/>
       <use xlink:href="#DejaVuSans-29" x="484.326172"/>
      </g>
     </g>
    </g>
    <g id="xtick_2">
     <g id="line2d_2">
      <g>
       <use xlink:href="#m769cc0d56e" x="181.739926" y="354.958125" style="stroke: #000000; stroke-width: 0.8"/>
      </g>
     </g>
     <g id="text_2">
      <!-- (2022, 3) -->
      <g transform="translate(158.753988 369.556562) scale(0.1 -0.1)">
       <defs>
        <path id="DejaVuSans-33" d="M 2597 2516 
Q 3050 2419 3304 2112 
Q 3559 1806 3559 1356 
Q 3559 666 3084 287 
Q 2609 -91 1734 -91 
Q 1441 -91 1130 -33 
Q 819 25 488 141 
L 488 750 
Q 750 597 1062 519 
Q 1375 441 1716 441 
Q 2309 441 2620 675 
Q 2931 909 2931 1356 
Q 2931 1769 2642 2001 
Q 2353 2234 1838 2234 
L 1294 2234 
L 1294 2753 
L 1863 2753 
Q 2328 2753 2575 2939 
Q 2822 3125 2822 3475 
Q 2822 3834 2567 4026 
Q 2313 4219 1838 4219 
Q 1578 4219 1281 4162 
Q 984 4106 628 3988 
L 628 4550 
Q 988 4650 1302 4700 
Q 1616 4750 1894 4750 
Q 2613 4750 3031 4423 
Q 3450 4097 3450 3541 
Q 3450 3153 3228 2886 
Q 3006 2619 2597 2516 
z
" transform="scale(0.015625)"/>
       </defs>
       <use xlink:href="#DejaVuSans-28"/>
       <use xlink:href="#DejaVuSans-32" x="39.013672"/>
       <use xlink:href="#DejaVuSans-30" x="102.636719"/>
       <use xlink:href="#DejaVuSans-32" x="166.259766"/>
       <use xlink:href="#DejaVuSans-32" x="229.882812"/>
       <use xlink:href="#DejaVuSans-2c" x="293.505859"/>
       <use xlink:href="#DejaVuSans-20" x="325.292969"/>
       <use xlink:href="#DejaVuSans-33" x="357.080078"/>
       <use xlink:href="#DejaVuSans-29" x="420.703125"/>
      </g>
     </g>
    </g>
    <g id="xtick_3">
     <g id="line2d_3">
      <g>
       <use xlink:href="#m769cc0d56e" x="298.802863" y="354.958125" style="stroke: #000000; stroke-width: 0.8"/>
      </g>
     </g>
     <g id="text_3">
      <!-- (2022, 8) -->
      <g transform="translate(275.816925 369.556562) scale(0.1 -0.1)">
       <defs>
        <path id="DejaVuSans-38" d="M 2034 2216 
Q 1584 2216 1326 1975 
Q 1069 1734 1069 1313 
Q 1069 891 1326 650 
Q 1584 409 2034 409 
Q 2484 409 2743 651 
Q 3003 894 3003 1313 
Q 3003 1734 2745 1975 
Q 2488 2216 2034 2216 
z
M 1403 2484 
Q 997 2584 770 2862 
Q 544 3141 544 3541 
Q 544 4100 942 4425 
Q 1341 4750 2034 4750 
Q 2731 4750 3128 4425 
Q 3525 4100 3525 3541 
Q 3525 3141 3298 2862 
Q 3072 2584 2669 2484 
Q 3125 2378 3379 2068 
Q 3634 1759 3634 1313 
Q 3634 634 3220 271 
Q 2806 -91 2034 -91 
Q 1263 -91 848 271 
Q 434 634 434 1313 
Q 434 1759 690 2068 
Q 947 2378 1403 2484 
z
M 1172 3481 
Q 1172 3119 1398 2916 
Q 1625 2713 2034 2713 
Q 2441 2713 2670 2916 
Q 2900 3119 2900 3481 
Q 2900 3844 2670 4047 
Q 2441 4250 2034 4250 
Q 1625 4250 1398 4047 
Q 1172 3844 1172 3481 
z
" transform="scale(0.015625)"/>
       </defs>
       <use xlink:href="#DejaVuSans-28"/>
       <use xlink:href="#DejaVuSans-32" x="39.013672"/>
       <use xlink:href="#DejaVuSans-30" x="102.636719"/>
       <use xlink:href="#DejaVuSans-32" x="166.259766"/>
       <use xlink:href="#DejaVuSans-32" x="229.882812"/>
       <use xlink:href="#DejaVuSans-2c" x="293.505859"/>
       <use xlink:href="#DejaVuSans-20" x="325.292969"/>
       <use xlink:href="#DejaVuSans-38" x="357.080078"/>
       <use xlink:href="#DejaVuSans-29" x="420.703125"/>
      </g>
     </g>
    </g>
    <g id="xtick_4">
     <g id="line2d_4">
      <g>
       <use xlink:href="#m769cc0d56e" x="415.8658" y="354.958125" style="stroke: #000000; stroke-width: 0.8"/>
      </g>
     </g>
     <g id="text_4">
      <!-- (2023, 1) -->
      <g transform="translate(392.879862 369.556562) scale(0.1 -0.1)">
       <use xlink:href="#DejaVuSans-28"/>
       <use xlink:href="#DejaVuSans-32" x="39.013672"/>
       <use xlink:href="#DejaVuSans-30" x="102.636719"/>
       <use xlink:href="#DejaVuSans-32" x="166.259766"/>
       <use xlink:href="#DejaVuSans-33" x="229.882812"/>
       <use xlink:href="#DejaVuSans-2c" x="293.505859"/>
       <use xlink:href="#DejaVuSans-20" x="325.292969"/>
       <use xlink:href="#DejaVuSans-31" x="357.080078"/>
       <use xlink:href="#DejaVuSans-29" x="420.703125"/>
      </g>
     </g>
    </g>
    <g id="xtick_5">
     <g id="line2d_5">
      <g>
       <use xlink:href="#m769cc0d56e" x="532.928737" y="354.958125" style="stroke: #000000; stroke-width: 0.8"/>
      </g>
     </g>
     <g id="text_5">
      <!-- (2023, 6) -->
      <g transform="translate(509.942799 369.556562) scale(0.1 -0.1)">
       <defs>
        <path id="DejaVuSans-36" d="M 2113 2584 
Q 1688 2584 1439 2293 
Q 1191 2003 1191 1497 
Q 1191 994 1439 701 
Q 1688 409 2113 409 
Q 2538 409 2786 701 
Q 3034 994 3034 1497 
Q 3034 2003 2786 2293 
Q 2538 2584 2113 2584 
z
M 3366 4563 
L 3366 3988 
Q 3128 4100 2886 4159 
Q 2644 4219 2406 4219 
Q 1781 4219 1451 3797 
Q 1122 3375 1075 2522 
Q 1259 2794 1537 2939 
Q 1816 3084 2150 3084 
Q 2853 3084 3261 2657 
Q 3669 2231 3669 1497 
Q 3669 778 3244 343 
Q 2819 -91 2113 -91 
Q 1303 -91 875 529 
Q 447 1150 447 2328 
Q 447 3434 972 4092 
Q 1497 4750 2381 4750 
Q 2619 4750 2861 4703 
Q 3103 4656 3366 4563 
z
" transform="scale(0.015625)"/>
       </defs>
       <use xlink:href="#DejaVuSans-28"/>
       <use xlink:href="#DejaVuSans-32" x="39.013672"/>
       <use xlink:href="#DejaVuSans-30" x="102.636719"/>
       <use xlink:href="#DejaVuSans-32" x="166.259766"/>
       <use xlink:href="#DejaVuSans-33" x="229.882812"/>
       <use xlink:href="#DejaVuSans-2c" x="293.505859"/>
       <use xlink:href="#DejaVuSans-20" x="325.292969"/>
       <use xlink:href="#DejaVuSans-36" x="357.080078"/>
       <use xlink:href="#DejaVuSans-29" x="420.703125"/>
      </g>
     </g>
    </g>
    <g id="xtick_6">
     <g id="line2d_6">
      <g>
       <use xlink:href="#m769cc0d56e" x="649.991674" y="354.958125" style="stroke: #000000; stroke-width: 0.8"/>
      </g>
     </g>
     <g id="text_6">
      <!-- (2023, 11) -->
      <g transform="translate(623.824486 369.556562) scale(0.1 -0.1)">
       <use xlink:href="#DejaVuSans-28"/>
       <use xlink:href="#DejaVuSans-32" x="39.013672"/>
       <use xlink:href="#DejaVuSans-30" x="102.636719"/>
       <use xlink:href="#DejaVuSans-32" x="166.259766"/>
       <use xlink:href="#DejaVuSans-33" x="229.882812"/>
       <use xlink:href="#DejaVuSans-2c" x="293.505859"/>
       <use xlink:href="#DejaVuSans-20" x="325.292969"/>
       <use xlink:href="#DejaVuSans-31" x="357.080078"/>
       <use xlink:href="#DejaVuSans-31" x="420.703125"/>
       <use xlink:href="#DejaVuSans-29" x="484.326172"/>
      </g>
     </g>
    </g>
    <g id="text_7">
     <!-- (Year, Month) -->
     <g transform="translate(335.702344 383.234687) scale(0.1 -0.1)">
      <defs>
       <path id="DejaVuSans-59" d="M -13 4666 
L 666 4666 
L 1959 2747 
L 3244 4666 
L 3922 4666 
L 2272 2222 
L 2272 0 
L 1638 0 
L 1638 2222 
L -13 4666 
z
" transform="scale(0.015625)"/>
       <path id="DejaVuSans-65" d="M 3597 1894 
L 3597 1613 
L 953 1613 
Q 991 1019 1311 708 
Q 1631 397 2203 397 
Q 2534 397 2845 478 
Q 3156 559 3463 722 
L 3463 178 
Q 3153 47 2828 -22 
Q 2503 -91 2169 -91 
Q 1331 -91 842 396 
Q 353 884 353 1716 
Q 353 2575 817 3079 
Q 1281 3584 2069 3584 
Q 2775 3584 3186 3129 
Q 3597 2675 3597 1894 
z
M 3022 2063 
Q 3016 2534 2758 2815 
Q 2500 3097 2075 3097 
Q 1594 3097 1305 2825 
Q 1016 2553 972 2059 
L 3022 2063 
z
" transform="scale(0.015625)"/>
       <path id="DejaVuSans-61" d="M 2194 1759 
Q 1497 1759 1228 1600 
Q 959 1441 959 1056 
Q 959 750 1161 570 
Q 1363 391 1709 391 
Q 2188 391 2477 730 
Q 2766 1069 2766 1631 
L 2766 1759 
L 2194 1759 
z
M 3341 1997 
L 3341 0 
L 2766 0 
L 2766 531 
Q 2569 213 2275 61 
Q 1981 -91 1556 -91 
Q 1019 -91 701 211 
Q 384 513 384 1019 
Q 384 1609 779 1909 
Q 1175 2209 1959 2209 
L 2766 2209 
L 2766 2266 
Q 2766 2663 2505 2880 
Q 2244 3097 1772 3097 
Q 1472 3097 1187 3025 
Q 903 2953 641 2809 
L 641 3341 
Q 956 3463 1253 3523 
Q 1550 3584 1831 3584 
Q 2591 3584 2966 3190 
Q 3341 2797 3341 1997 
z
" transform="scale(0.015625)"/>
       <path id="DejaVuSans-72" d="M 2631 2963 
Q 2534 3019 2420 3045 
Q 2306 3072 2169 3072 
Q 1681 3072 1420 2755 
Q 1159 2438 1159 1844 
L 1159 0 
L 581 0 
L 581 3500 
L 1159 3500 
L 1159 2956 
Q 1341 3275 1631 3429 
Q 1922 3584 2338 3584 
Q 2397 3584 2469 3576 
Q 2541 3569 2628 3553 
L 2631 2963 
z
" transform="scale(0.015625)"/>
       <path id="DejaVuSans-4d" d="M 628 4666 
L 1569 4666 
L 2759 1491 
L 3956 4666 
L 4897 4666 
L 4897 0 
L 4281 0 
L 4281 4097 
L 3078 897 
L 2444 897 
L 1241 4097 
L 1241 0 
L 628 0 
L 628 4666 
z
" transform="scale(0.015625)"/>
       <path id="DejaVuSans-6f" d="M 1959 3097 
Q 1497 3097 1228 2736 
Q 959 2375 959 1747 
Q 959 1119 1226 758 
Q 1494 397 1959 397 
Q 2419 397 2687 759 
Q 2956 1122 2956 1747 
Q 2956 2369 2687 2733 
Q 2419 3097 1959 3097 
z
M 1959 3584 
Q 2709 3584 3137 3096 
Q 3566 2609 3566 1747 
Q 3566 888 3137 398 
Q 2709 -91 1959 -91 
Q 1206 -91 779 398 
Q 353 888 353 1747 
Q 353 2609 779 3096 
Q 1206 3584 1959 3584 
z
" transform="scale(0.015625)"/>
       <path id="DejaVuSans-6e" d="M 3513 2113 
L 3513 0 
L 2938 0 
L 2938 2094 
Q 2938 2591 2744 2837 
Q 2550 3084 2163 3084 
Q 1697 3084 1428 2787 
Q 1159 2491 1159 1978 
L 1159 0 
L 581 0 
L 581 3500 
L 1159 3500 
L 1159 2956 
Q 1366 3272 1645 3428 
Q 1925 3584 2291 3584 
Q 2894 3584 3203 3211 
Q 3513 2838 3513 2113 
z
" transform="scale(0.015625)"/>
       <path id="DejaVuSans-74" d="M 1172 4494 
L 1172 3500 
L 2356 3500 
L 2356 3053 
L 1172 3053 
L 1172 1153 
Q 1172 725 1289 603 
Q 1406 481 1766 481 
L 2356 481 
L 2356 0 
L 1766 0 
Q 1100 0 847 248 
Q 594 497 594 1153 
L 594 3053 
L 172 3053 
L 172 3500 
L 594 3500 
L 594 4494 
L 1172 4494 
z
" transform="scale(0.015625)"/>
       <path id="DejaVuSans-68" d="M 3513 2113 
L 3513 0 
L 2938 0 
L 2938 2094 
Q 2938 2591 2744 2837 
Q 2550 3084 2163 3084 
Q 1697 3084 1428 2787 
Q 1159 2491 1159 1978 
L 1159 0 
L 581 0 
L 581 4863 
L 1159 4863 
L 1159 2956 
Q 1366 3272 1645 3428 
Q 1925 3584 2291 3584 
Q 2894 3584 3203 3211 
Q 3513 2838 3513 2113 
z
" transform="scale(0.015625)"/>
      </defs>
      <use xlink:href="#DejaVuSans-28"/>
      <use xlink:href="#DejaVuSans-59" x="39.013672"/>
      <use xlink:href="#DejaVuSans-65" x="86.847656"/>
      <use xlink:href="#DejaVuSans-61" x="148.371094"/>
      <use xlink:href="#DejaVuSans-72" x="209.650391"/>
      <use xlink:href="#DejaVuSans-2c" x="250.763672"/>
      <use xlink:href="#DejaVuSans-20" x="282.550781"/>
      <use xlink:href="#DejaVuSans-4d" x="314.337891"/>
      <use xlink:href="#DejaVuSans-6f" x="400.617188"/>
      <use xlink:href="#DejaVuSans-6e" x="461.798828"/>
      <use xlink:href="#DejaVuSans-74" x="525.177734"/>
      <use xlink:href="#DejaVuSans-68" x="564.386719"/>
      <use xlink:href="#DejaVuSans-29" x="627.765625"/>
     </g>
    </g>
   </g>
   <g id="matplotlib.axis_2">
    <g id="ytick_1">
     <g id="line2d_7">
      <defs>
       <path id="mfe60108f46" d="M 0 0 
L -3.5 0 
" style="stroke: #000000; stroke-width: 0.8"/>
      </defs>
      <g>
       <use xlink:href="#mfe60108f46" x="34.240625" y="339.855607" style="stroke: #000000; stroke-width: 0.8"/>
      </g>
     </g>
     <g id="text_8">
      <!-- 0 -->
      <g transform="translate(20.878125 343.654826) scale(0.1 -0.1)">
       <use xlink:href="#DejaVuSans-30"/>
      </g>
     </g>
    </g>
    <g id="ytick_2">
     <g id="line2d_8">
      <g>
       <use xlink:href="#mfe60108f46" x="34.240625" y="299.941275" style="stroke: #000000; stroke-width: 0.8"/>
      </g>
     </g>
     <g id="text_9">
      <!-- 1 -->
      <g transform="translate(20.878125 303.740494) scale(0.1 -0.1)">
       <use xlink:href="#DejaVuSans-31"/>
      </g>
     </g>
    </g>
    <g id="ytick_3">
     <g id="line2d_9">
      <g>
       <use xlink:href="#mfe60108f46" x="34.240625" y="260.026943" style="stroke: #000000; stroke-width: 0.8"/>
      </g>
     </g>
     <g id="text_10">
      <!-- 2 -->
      <g transform="translate(20.878125 263.826162) scale(0.1 -0.1)">
       <use xlink:href="#DejaVuSans-32"/>
      </g>
     </g>
    </g>
    <g id="ytick_4">
     <g id="line2d_10">
      <g>
       <use xlink:href="#mfe60108f46" x="34.240625" y="220.112611" style="stroke: #000000; stroke-width: 0.8"/>
      </g>
     </g>
     <g id="text_11">
      <!-- 3 -->
      <g transform="translate(20.878125 223.91183) scale(0.1 -0.1)">
       <use xlink:href="#DejaVuSans-33"/>
      </g>
     </g>
    </g>
    <g id="ytick_5">
     <g id="line2d_11">
      <g>
       <use xlink:href="#mfe60108f46" x="34.240625" y="180.198279" style="stroke: #000000; stroke-width: 0.8"/>
      </g>
     </g>
     <g id="text_12">
      <!-- 4 -->
      <g transform="translate(20.878125 183.997498) scale(0.1 -0.1)">
       <defs>
        <path id="DejaVuSans-34" d="M 2419 4116 
L 825 1625 
L 2419 1625 
L 2419 4116 
z
M 2253 4666 
L 3047 4666 
L 3047 1625 
L 3713 1625 
L 3713 1100 
L 3047 1100 
L 3047 0 
L 2419 0 
L 2419 1100 
L 313 1100 
L 313 1709 
L 2253 4666 
z
" transform="scale(0.015625)"/>
       </defs>
       <use xlink:href="#DejaVuSans-34"/>
      </g>
     </g>
    </g>
    <g id="ytick_6">
     <g id="line2d_12">
      <g>
       <use xlink:href="#mfe60108f46" x="34.240625" y="140.283947" style="stroke: #000000; stroke-width: 0.8"/>
      </g>
     </g>
     <g id="text_13">
      <!-- 5 -->
      <g transform="translate(20.878125 144.083166) scale(0.1 -0.1)">
       <defs>
        <path id="DejaVuSans-35" d="M 691 4666 
L 3169 4666 
L 3169 4134 
L 1269 4134 
L 1269 2991 
Q 1406 3038 1543 3061 
Q 1681 3084 1819 3084 
Q 2600 3084 3056 2656 
Q 3513 2228 3513 1497 
Q 3513 744 3044 326 
Q 2575 -91 1722 -91 
Q 1428 -91 1123 -41 
Q 819 9 494 109 
L 494 744 
Q 775 591 1075 516 
Q 1375 441 1709 441 
Q 2250 441 2565 725 
Q 2881 1009 2881 1497 
Q 2881 1984 2565 2268 
Q 2250 2553 1709 2553 
Q 1456 2553 1204 2497 
Q 953 2441 691 2322 
L 691 4666 
z
" transform="scale(0.015625)"/>
       </defs>
       <use xlink:href="#DejaVuSans-35"/>
      </g>
     </g>
    </g>
    <g id="ytick_7">
     <g id="line2d_13">
      <g>
       <use xlink:href="#mfe60108f46" x="34.240625" y="100.369615" style="stroke: #000000; stroke-width: 0.8"/>
      </g>
     </g>
     <g id="text_14">
      <!-- 6 -->
      <g transform="translate(20.878125 104.168834) scale(0.1 -0.1)">
       <use xlink:href="#DejaVuSans-36"/>
      </g>
     </g>
    </g>
    <g id="ytick_8">
     <g id="line2d_14">
      <g>
       <use xlink:href="#mfe60108f46" x="34.240625" y="60.455283" style="stroke: #000000; stroke-width: 0.8"/>
      </g>
     </g>
     <g id="text_15">
      <!-- 7 -->
      <g transform="translate(20.878125 64.254502) scale(0.1 -0.1)">
       <defs>
        <path id="DejaVuSans-37" d="M 525 4666 
L 3525 4666 
L 3525 4397 
L 1831 0 
L 1172 0 
L 2766 4134 
L 525 4134 
L 525 4666 
z
" transform="scale(0.015625)"/>
       </defs>
       <use xlink:href="#DejaVuSans-37"/>
      </g>
     </g>
    </g>
    <g id="text_16">
     <!-- GWh -->
     <g transform="translate(14.798438 200.624844) rotate(-90) scale(0.1 -0.1)">
      <defs>
       <path id="DejaVuSans-47" d="M 3809 666 
L 3809 1919 
L 2778 1919 
L 2778 2438 
L 4434 2438 
L 4434 434 
Q 4069 175 3628 42 
Q 3188 -91 2688 -91 
Q 1594 -91 976 548 
Q 359 1188 359 2328 
Q 359 3472 976 4111 
Q 1594 4750 2688 4750 
Q 3144 4750 3555 4637 
Q 3966 4525 4313 4306 
L 4313 3634 
Q 3963 3931 3569 4081 
Q 3175 4231 2741 4231 
Q 1884 4231 1454 3753 
Q 1025 3275 1025 2328 
Q 1025 1384 1454 906 
Q 1884 428 2741 428 
Q 3075 428 3337 486 
Q 3600 544 3809 666 
z
" transform="scale(0.015625)"/>
       <path id="DejaVuSans-57" d="M 213 4666 
L 850 4666 
L 1831 722 
L 2809 4666 
L 3519 4666 
L 4500 722 
L 5478 4666 
L 6119 4666 
L 4947 0 
L 4153 0 
L 3169 4050 
L 2175 0 
L 1381 0 
L 213 4666 
z
" transform="scale(0.015625)"/>
      </defs>
      <use xlink:href="#DejaVuSans-47"/>
      <use xlink:href="#DejaVuSans-57" x="77.490234"/>
      <use xlink:href="#DejaVuSans-68" x="176.367188"/>
     </g>
    </g>
    <g id="text_17">
     <!-- 1e6 -->
     <g transform="translate(34.240625 19.318125) scale(0.1 -0.1)">
      <use xlink:href="#DejaVuSans-31"/>
      <use xlink:href="#DejaVuSans-65" x="63.623047"/>
      <use xlink:href="#DejaVuSans-36" x="125.146484"/>
     </g>
    </g>
   </g>
   <g id="line2d_15">
    <path d="M 64.676989 189.984635 
L 88.089576 90.263346 
L 111.502163 70.049491 
L 134.914751 37.438125 
L 158.327338 79.837803 
L 181.739926 85.267868 
L 205.152513 92.492682 
L 228.565101 119.248176 
L 251.977688 110.022897 
L 275.390275 71.744972 
L 298.802863 59.259729 
L 322.21545 127.744421 
L 345.628038 159.760385 
L 369.040625 132.248434 
L 392.453212 289.287023 
L 415.8658 102.107805 
L 439.278387 94.783525 
L 462.690975 105.875917 
L 486.103562 270.378965 
L 509.516149 93.008055 
L 532.928737 101.619253 
L 556.341324 83.540536 
L 579.753912 88.171197 
L 603.166499 82.49458 
L 626.579087 79.704609 
L 649.991674 84.291843 
L 673.404261 244.548126 
" clip-path="url(#p2c254c08c5)" style="fill: none; stroke: #88bde6; stroke-width: 1.5; stroke-linecap: square"/>
   </g>
   <g id="line2d_16">
    <path d="M 64.676989 275.86531 
L 88.089576 233.108319 
L 111.502163 224.548571 
L 134.914751 219.716941 
L 158.327338 231.99419 
L 181.739926 221.127832 
L 205.152513 220.711925 
L 228.565101 198.328686 
L 251.977688 230.75006 
L 275.390275 232.270437 
L 298.802863 232.114971 
L 322.21545 253.499034 
L 345.628038 231.310218 
L 369.040625 220.213754 
L 392.453212 310.912368 
L 415.8658 222.924856 
L 439.278387 223.634492 
L 462.690975 222.669803 
L 486.103562 297.872116 
L 509.516149 193.216778 
L 532.928737 234.301278 
L 556.341324 227.630356 
L 579.753912 243.045111 
L 603.166499 236.55572 
L 626.579087 228.242003 
L 649.991674 227.33515 
L 673.404261 295.79693 
" clip-path="url(#p2c254c08c5)" style="fill: none; stroke: #fbb258; stroke-width: 1.5; stroke-linecap: square"/>
   </g>
   <g id="line2d_17">
    <path d="M 64.676989 322.362992 
L 88.089576 287.564759 
L 111.502163 282.29 
L 134.914751 247.425111 
L 158.327338 276.325043 
L 181.739926 290.278255 
L 205.152513 324.928805 
L 228.565101 313.538811 
L 251.977688 317.63011 
L 275.390275 281.26065 
L 298.802863 276.746858 
L 322.21545 301.310417 
L 345.628038 300.007932 
L 369.040625 304.871294 
L 392.453212 332.073071 
L 415.8658 290.951889 
L 439.278387 302.137482 
L 462.690975 302.910503 
L 486.103562 332.051637 
L 509.516149 310.564674 
L 532.928737 261.807322 
L 556.341324 224.068321 
L 579.753912 257.487833 
L 603.166499 261.088305 
L 626.579087 286.831772 
L 649.991674 261.53806 
L 673.404261 303.126838 
" clip-path="url(#p2c254c08c5)" style="fill: none; stroke: #90cd97; stroke-width: 1.5; stroke-linecap: square"/>
   </g>
   <g id="line2d_18">
    <path d="M 64.676989 313.686813 
L 88.089576 286.683411 
L 111.502163 281.159507 
L 134.914751 282.020339 
L 158.327338 279.351108 
L 181.739926 284.060281 
L 205.152513 297.160723 
L 228.565101 303.481477 
L 251.977688 311.319255 
L 275.390275 312.788861 
L 298.802863 316.627941 
L 322.21545 317.561657 
L 345.628038 292.301592 
L 369.040625 283.394829 
L 392.453212 323.897538 
L 415.8658 303.314635 
L 439.278387 283.944968 
L 462.690975 283.069328 
L 486.103562 327.379984 
L 509.516149 311.116929 
L 532.928737 315.716936 
L 556.341324 321.473182 
L 579.753912 312.676222 
L 603.166499 317.065322 
L 626.579087 292.297202 
L 649.991674 279.988221 
L 673.404261 324.771383 
" clip-path="url(#p2c254c08c5)" style="fill: none; stroke: #f6aac9; stroke-width: 1.5; stroke-linecap: square"/>
   </g>
   <g id="line2d_19">
    <path d="M 64.676989 339.500649 
L 88.089576 338.094747 
L 111.502163 338.406318 
L 134.914751 338.704478 
L 158.327338 338.779836 
L 181.739926 338.916982 
L 205.152513 339.442933 
L 228.565101 339.338238 
L 251.977688 339.563674 
L 275.390275 338.361774 
L 298.802863 338.710705 
L 322.21545 338.832763 
L 345.628038 339.599238 
L 369.040625 339.405893 
L 392.453212 339.773464 
L 415.8658 338.88529 
L 439.278387 338.680649 
L 462.690975 338.913988 
L 486.103562 339.838125 
L 509.516149 339.35592 
L 532.928737 338.639777 
L 556.341324 337.974924 
L 579.753912 338.706155 
L 603.166499 338.886168 
L 626.579087 339.17427 
L 649.991674 339.345901 
L 673.404261 339.337998 
" clip-path="url(#p2c254c08c5)" style="fill: none; stroke: #bfa554; stroke-width: 1.5; stroke-linecap: square"/>
   </g>
   <g id="line2d_20">
    <path d="M 64.676989 338.881578 
L 88.089576 338.442201 
L 111.502163 339.168522 
L 134.914751 338.929715 
L 158.327338 338.346287 
L 181.739926 337.688259 
L 205.152513 337.075534 
L 228.565101 336.640748 
L 251.977688 336.88207 
L 275.390275 336.442972 
L 298.802863 336.763285 
L 322.21545 337.610346 
L 345.628038 337.54836 
L 369.040625 338.542266 
L 392.453212 339.681262 
L 415.8658 339.324986 
L 439.278387 338.371273 
L 462.690975 337.592984 
L 486.103562 339.177024 
L 509.516149 336.066779 
L 532.928737 336.753984 
L 556.341324 336.656514 
L 579.753912 337.127383 
L 603.166499 336.994708 
L 626.579087 338.076426 
L 649.991674 338.58705 
L 673.404261 339.663101 
" clip-path="url(#p2c254c08c5)" style="fill: none; stroke: #bc99c7; stroke-width: 1.5; stroke-linecap: square"/>
   </g>
   <g id="patch_3">
    <path d="M 34.240625 354.958125 
L 34.240625 22.318125 
" style="fill: none; stroke: #000000; stroke-width: 0.8; stroke-linejoin: miter; stroke-linecap: square"/>
   </g>
   <g id="patch_4">
    <path d="M 703.840625 354.958125 
L 703.840625 22.318125 
" style="fill: none; stroke: #000000; stroke-width: 0.8; stroke-linejoin: miter; stroke-linecap: square"/>
   </g>
   <g id="patch_5">
    <path d="M 34.240625 354.958125 
L 703.840625 354.958125 
" style="fill: none; stroke: #000000; stroke-width: 0.8; stroke-linejoin: miter; stroke-linecap: square"/>
   </g>
   <g id="patch_6">
    <path d="M 34.240625 22.318125 
L 703.840625 22.318125 
" style="fill: none; stroke: #000000; stroke-width: 0.8; stroke-linejoin: miter; stroke-linecap: square"/>
   </g>
   <g id="text_18">
    <!-- Monthly Ontario power generation by source (2021-10-14 to 2023-12-11) -->
    <g transform="translate(148.499375 16.318125) scale(0.12 -0.12)">
     <defs>
      <path id="DejaVuSans-6c" d="M 603 4863 
L 1178 4863 
L 1178 0 
L 603 0 
L 603 4863 
z
" transform="scale(0.015625)"/>
      <path id="DejaVuSans-79" d="M 2059 -325 
Q 1816 -950 1584 -1140 
Q 1353 -1331 966 -1331 
L 506 -1331 
L 506 -850 
L 844 -850 
Q 1081 -850 1212 -737 
Q 1344 -625 1503 -206 
L 1606 56 
L 191 3500 
L 800 3500 
L 1894 763 
L 2988 3500 
L 3597 3500 
L 2059 -325 
z
" transform="scale(0.015625)"/>
      <path id="DejaVuSans-4f" d="M 2522 4238 
Q 1834 4238 1429 3725 
Q 1025 3213 1025 2328 
Q 1025 1447 1429 934 
Q 1834 422 2522 422 
Q 3209 422 3611 934 
Q 4013 1447 4013 2328 
Q 4013 3213 3611 3725 
Q 3209 4238 2522 4238 
z
M 2522 4750 
Q 3503 4750 4090 4092 
Q 4678 3434 4678 2328 
Q 4678 1225 4090 567 
Q 3503 -91 2522 -91 
Q 1538 -91 948 565 
Q 359 1222 359 2328 
Q 359 3434 948 4092 
Q 1538 4750 2522 4750 
z
" transform="scale(0.015625)"/>
      <path id="DejaVuSans-69" d="M 603 3500 
L 1178 3500 
L 1178 0 
L 603 0 
L 603 3500 
z
M 603 4863 
L 1178 4863 
L 1178 4134 
L 603 4134 
L 603 4863 
z
" transform="scale(0.015625)"/>
      <path id="DejaVuSans-70" d="M 1159 525 
L 1159 -1331 
L 581 -1331 
L 581 3500 
L 1159 3500 
L 1159 2969 
Q 1341 3281 1617 3432 
Q 1894 3584 2278 3584 
Q 2916 3584 3314 3078 
Q 3713 2572 3713 1747 
Q 3713 922 3314 415 
Q 2916 -91 2278 -91 
Q 1894 -91 1617 61 
Q 1341 213 1159 525 
z
M 3116 1747 
Q 3116 2381 2855 2742 
Q 2594 3103 2138 3103 
Q 1681 3103 1420 2742 
Q 1159 2381 1159 1747 
Q 1159 1113 1420 752 
Q 1681 391 2138 391 
Q 2594 391 2855 752 
Q 3116 1113 3116 1747 
z
" transform="scale(0.015625)"/>
      <path id="DejaVuSans-77" d="M 269 3500 
L 844 3500 
L 1563 769 
L 2278 3500 
L 2956 3500 
L 3675 769 
L 4391 3500 
L 4966 3500 
L 4050 0 
L 3372 0 
L 2619 2869 
L 1863 0 
L 1184 0 
L 269 3500 
z
" transform="scale(0.015625)"/>
      <path id="DejaVuSans-67" d="M 2906 1791 
Q 2906 2416 2648 2759 
Q 2391 3103 1925 3103 
Q 1463 3103 1205 2759 
Q 947 2416 947 1791 
Q 947 1169 1205 825 
Q 1463 481 1925 481 
Q 2391 481 2648 825 
Q 2906 1169 2906 1791 
z
M 3481 434 
Q 3481 -459 3084 -895 
Q 2688 -1331 1869 -1331 
Q 1566 -1331 1297 -1286 
Q 1028 -1241 775 -1147 
L 775 -588 
Q 1028 -725 1275 -790 
Q 1522 -856 1778 -856 
Q 2344 -856 2625 -561 
Q 2906 -266 2906 331 
L 2906 616 
Q 2728 306 2450 153 
Q 2172 0 1784 0 
Q 1141 0 747 490 
Q 353 981 353 1791 
Q 353 2603 747 3093 
Q 1141 3584 1784 3584 
Q 2172 3584 2450 3431 
Q 2728 3278 2906 2969 
L 2906 3500 
L 3481 3500 
L 3481 434 
z
" transform="scale(0.015625)"/>
      <path id="DejaVuSans-62" d="M 3116 1747 
Q 3116 2381 2855 2742 
Q 2594 3103 2138 3103 
Q 1681 3103 1420 2742 
Q 1159 2381 1159 1747 
Q 1159 1113 1420 752 
Q 1681 391 2138 391 
Q 2594 391 2855 752 
Q 3116 1113 3116 1747 
z
M 1159 2969 
Q 1341 3281 1617 3432 
Q 1894 3584 2278 3584 
Q 2916 3584 3314 3078 
Q 3713 2572 3713 1747 
Q 3713 922 3314 415 
Q 2916 -91 2278 -91 
Q 1894 -91 1617 61 
Q 1341 213 1159 525 
L 1159 0 
L 581 0 
L 581 4863 
L 1159 4863 
L 1159 2969 
z
" transform="scale(0.015625)"/>
      <path id="DejaVuSans-73" d="M 2834 3397 
L 2834 2853 
Q 2591 2978 2328 3040 
Q 2066 3103 1784 3103 
Q 1356 3103 1142 2972 
Q 928 2841 928 2578 
Q 928 2378 1081 2264 
Q 1234 2150 1697 2047 
L 1894 2003 
Q 2506 1872 2764 1633 
Q 3022 1394 3022 966 
Q 3022 478 2636 193 
Q 2250 -91 1575 -91 
Q 1294 -91 989 -36 
Q 684 19 347 128 
L 347 722 
Q 666 556 975 473 
Q 1284 391 1588 391 
Q 1994 391 2212 530 
Q 2431 669 2431 922 
Q 2431 1156 2273 1281 
Q 2116 1406 1581 1522 
L 1381 1569 
Q 847 1681 609 1914 
Q 372 2147 372 2553 
Q 372 3047 722 3315 
Q 1072 3584 1716 3584 
Q 2034 3584 2315 3537 
Q 2597 3491 2834 3397 
z
" transform="scale(0.015625)"/>
      <path id="DejaVuSans-75" d="M 544 1381 
L 544 3500 
L 1119 3500 
L 1119 1403 
Q 1119 906 1312 657 
Q 1506 409 1894 409 
Q 2359 409 2629 706 
Q 2900 1003 2900 1516 
L 2900 3500 
L 3475 3500 
L 3475 0 
L 2900 0 
L 2900 538 
Q 2691 219 2414 64 
Q 2138 -91 1772 -91 
Q 1169 -91 856 284 
Q 544 659 544 1381 
z
M 1991 3584 
L 1991 3584 
z
" transform="scale(0.015625)"/>
      <path id="DejaVuSans-63" d="M 3122 3366 
L 3122 2828 
Q 2878 2963 2633 3030 
Q 2388 3097 2138 3097 
Q 1578 3097 1268 2742 
Q 959 2388 959 1747 
Q 959 1106 1268 751 
Q 1578 397 2138 397 
Q 2388 397 2633 464 
Q 2878 531 3122 666 
L 3122 134 
Q 2881 22 2623 -34 
Q 2366 -91 2075 -91 
Q 1284 -91 818 406 
Q 353 903 353 1747 
Q 353 2603 823 3093 
Q 1294 3584 2113 3584 
Q 2378 3584 2631 3529 
Q 2884 3475 3122 3366 
z
" transform="scale(0.015625)"/>
      <path id="DejaVuSans-2d" d="M 313 2009 
L 1997 2009 
L 1997 1497 
L 313 1497 
L 313 2009 
z
" transform="scale(0.015625)"/>
     </defs>
     <use xlink:href="#DejaVuSans-4d"/>
     <use xlink:href="#DejaVuSans-6f" x="86.279297"/>
     <use xlink:href="#DejaVuSans-6e" x="147.460938"/>
     <use xlink:href="#DejaVuSans-74" x="210.839844"/>
     <use xlink:href="#DejaVuSans-68" x="250.048828"/>
     <use xlink:href="#DejaVuSans-6c" x="313.427734"/>
     <use xlink:href="#DejaVuSans-79" x="341.210938"/>
     <use xlink:href="#DejaVuSans-20" x="400.390625"/>
     <use xlink:href="#DejaVuSans-4f" x="432.177734"/>
     <use xlink:href="#DejaVuSans-6e" x="510.888672"/>
     <use xlink:href="#DejaVuSans-74" x="574.267578"/>
     <use xlink:href="#DejaVuSans-61" x="613.476562"/>
     <use xlink:href="#DejaVuSans-72" x="674.755859"/>
     <use xlink:href="#DejaVuSans-69" x="715.869141"/>
     <use xlink:href="#DejaVuSans-6f" x="743.652344"/>
     <use xlink:href="#DejaVuSans-20" x="804.833984"/>
     <use xlink:href="#DejaVuSans-70" x="836.621094"/>
     <use xlink:href="#DejaVuSans-6f" x="900.097656"/>
     <use xlink:href="#DejaVuSans-77" x="961.279297"/>
     <use xlink:href="#DejaVuSans-65" x="1043.066406"/>
     <use xlink:href="#DejaVuSans-72" x="1104.589844"/>
     <use xlink:href="#DejaVuSans-20" x="1145.703125"/>
     <use xlink:href="#DejaVuSans-67" x="1177.490234"/>
     <use xlink:href="#DejaVuSans-65" x="1240.966797"/>
     <use xlink:href="#DejaVuSans-6e" x="1302.490234"/>
     <use xlink:href="#DejaVuSans-65" x="1365.869141"/>
     <use xlink:href="#DejaVuSans-72" x="1427.392578"/>
     <use xlink:href="#DejaVuSans-61" x="1468.505859"/>
     <use xlink:href="#DejaVuSans-74" x="1529.785156"/>
     <use xlink:href="#DejaVuSans-69" x="1568.994141"/>
     <use xlink:href="#DejaVuSans-6f" x="1596.777344"/>
     <use xlink:href="#DejaVuSans-6e" x="1657.958984"/>
     <use xlink:href="#DejaVuSans-20" x="1721.337891"/>
     <use xlink:href="#DejaVuSans-62" x="1753.125"/>
     <use xlink:href="#DejaVuSans-79" x="1816.601562"/>
     <use xlink:href="#DejaVuSans-20" x="1875.78125"/>
     <use xlink:href="#DejaVuSans-73" x="1907.568359"/>
     <use xlink:href="#DejaVuSans-6f" x="1959.667969"/>
     <use xlink:href="#DejaVuSans-75" x="2020.849609"/>
     <use xlink:href="#DejaVuSans-72" x="2084.228516"/>
     <use xlink:href="#DejaVuSans-63" x="2123.091797"/>
     <use xlink:href="#DejaVuSans-65" x="2178.072266"/>
     <use xlink:href="#DejaVuSans-20" x="2239.595703"/>
     <use xlink:href="#DejaVuSans-28" x="2271.382812"/>
     <use xlink:href="#DejaVuSans-32" x="2310.396484"/>
     <use xlink:href="#DejaVuSans-30" x="2374.019531"/>
     <use xlink:href="#DejaVuSans-32" x="2437.642578"/>
     <use xlink:href="#DejaVuSans-31" x="2501.265625"/>
     <use xlink:href="#DejaVuSans-2d" x="2564.888672"/>
     <use xlink:href="#DejaVuSans-31" x="2600.972656"/>
     <use xlink:href="#DejaVuSans-30" x="2664.595703"/>
     <use xlink:href="#DejaVuSans-2d" x="2728.21875"/>
     <use xlink:href="#DejaVuSans-31" x="2764.302734"/>
     <use xlink:href="#DejaVuSans-34" x="2827.925781"/>
     <use xlink:href="#DejaVuSans-20" x="2891.548828"/>
     <use xlink:href="#DejaVuSans-74" x="2923.335938"/>
     <use xlink:href="#DejaVuSans-6f" x="2962.544922"/>
     <use xlink:href="#DejaVuSans-20" x="3023.726562"/>
     <use xlink:href="#DejaVuSans-32" x="3055.513672"/>
     <use xlink:href="#DejaVuSans-30" x="3119.136719"/>
     <use xlink:href="#DejaVuSans-32" x="3182.759766"/>
     <use xlink:href="#DejaVuSans-33" x="3246.382812"/>
     <use xlink:href="#DejaVuSans-2d" x="3310.005859"/>
     <use xlink:href="#DejaVuSans-31" x="3346.089844"/>
     <use xlink:href="#DejaVuSans-32" x="3409.712891"/>
     <use xlink:href="#DejaVuSans-2d" x="3473.335938"/>
     <use xlink:href="#DejaVuSans-31" x="3509.419922"/>
     <use xlink:href="#DejaVuSans-31" x="3573.042969"/>
     <use xlink:href="#DejaVuSans-29" x="3636.666016"/>
    </g>
   </g>
   <g id="legend_1">
    <g id="patch_7">
     <path d="M 334.36875 118.386875 
L 403.7125 118.386875 
Q 405.7125 118.386875 405.7125 116.386875 
L 405.7125 29.318125 
Q 405.7125 27.318125 403.7125 27.318125 
L 334.36875 27.318125 
Q 332.36875 27.318125 332.36875 29.318125 
L 332.36875 116.386875 
Q 332.36875 118.386875 334.36875 118.386875 
z
" style="fill: #ffffff; opacity: 0.8; stroke: #cccccc; stroke-linejoin: miter"/>
    </g>
    <g id="line2d_21">
     <path d="M 336.36875 35.416562 
L 346.36875 35.416562 
L 356.36875 35.416562 
" style="fill: none; stroke: #88bde6; stroke-width: 1.5; stroke-linecap: square"/>
    </g>
    <g id="text_19">
     <!-- nuclear -->
     <g transform="translate(364.36875 38.916562) scale(0.1 -0.1)">
      <use xlink:href="#DejaVuSans-6e"/>
      <use xlink:href="#DejaVuSans-75" x="63.378906"/>
      <use xlink:href="#DejaVuSans-63" x="126.757812"/>
      <use xlink:href="#DejaVuSans-6c" x="181.738281"/>
      <use xlink:href="#DejaVuSans-65" x="209.521484"/>
      <use xlink:href="#DejaVuSans-61" x="271.044922"/>
      <use xlink:href="#DejaVuSans-72" x="332.324219"/>
     </g>
    </g>
    <g id="line2d_22">
     <path d="M 336.36875 50.094688 
L 346.36875 50.094688 
L 356.36875 50.094688 
" style="fill: none; stroke: #fbb258; stroke-width: 1.5; stroke-linecap: square"/>
    </g>
    <g id="text_20">
     <!-- hydro -->
     <g transform="translate(364.36875 53.594688) scale(0.1 -0.1)">
      <defs>
       <path id="DejaVuSans-64" d="M 2906 2969 
L 2906 4863 
L 3481 4863 
L 3481 0 
L 2906 0 
L 2906 525 
Q 2725 213 2448 61 
Q 2172 -91 1784 -91 
Q 1150 -91 751 415 
Q 353 922 353 1747 
Q 353 2572 751 3078 
Q 1150 3584 1784 3584 
Q 2172 3584 2448 3432 
Q 2725 3281 2906 2969 
z
M 947 1747 
Q 947 1113 1208 752 
Q 1469 391 1925 391 
Q 2381 391 2643 752 
Q 2906 1113 2906 1747 
Q 2906 2381 2643 2742 
Q 2381 3103 1925 3103 
Q 1469 3103 1208 2742 
Q 947 2381 947 1747 
z
" transform="scale(0.015625)"/>
      </defs>
      <use xlink:href="#DejaVuSans-68"/>
      <use xlink:href="#DejaVuSans-79" x="63.378906"/>
      <use xlink:href="#DejaVuSans-64" x="122.558594"/>
      <use xlink:href="#DejaVuSans-72" x="186.035156"/>
      <use xlink:href="#DejaVuSans-6f" x="224.898438"/>
     </g>
    </g>
    <g id="line2d_23">
     <path d="M 336.36875 64.772812 
L 346.36875 64.772812 
L 356.36875 64.772812 
" style="fill: none; stroke: #90cd97; stroke-width: 1.5; stroke-linecap: square"/>
    </g>
    <g id="text_21">
     <!-- gas -->
     <g transform="translate(364.36875 68.272812) scale(0.1 -0.1)">
      <use xlink:href="#DejaVuSans-67"/>
      <use xlink:href="#DejaVuSans-61" x="63.476562"/>
      <use xlink:href="#DejaVuSans-73" x="124.755859"/>
     </g>
    </g>
    <g id="line2d_24">
     <path d="M 336.36875 79.450938 
L 346.36875 79.450938 
L 356.36875 79.450938 
" style="fill: none; stroke: #f6aac9; stroke-width: 1.5; stroke-linecap: square"/>
    </g>
    <g id="text_22">
     <!-- wind -->
     <g transform="translate(364.36875 82.950938) scale(0.1 -0.1)">
      <use xlink:href="#DejaVuSans-77"/>
      <use xlink:href="#DejaVuSans-69" x="81.787109"/>
      <use xlink:href="#DejaVuSans-6e" x="109.570312"/>
      <use xlink:href="#DejaVuSans-64" x="172.949219"/>
     </g>
    </g>
    <g id="line2d_25">
     <path d="M 336.36875 94.129063 
L 346.36875 94.129063 
L 356.36875 94.129063 
" style="fill: none; stroke: #bfa554; stroke-width: 1.5; stroke-linecap: square"/>
    </g>
    <g id="text_23">
     <!-- biofuel -->
     <g transform="translate(364.36875 97.629063) scale(0.1 -0.1)">
      <defs>
       <path id="DejaVuSans-66" d="M 2375 4863 
L 2375 4384 
L 1825 4384 
Q 1516 4384 1395 4259 
Q 1275 4134 1275 3809 
L 1275 3500 
L 2222 3500 
L 2222 3053 
L 1275 3053 
L 1275 0 
L 697 0 
L 697 3053 
L 147 3053 
L 147 3500 
L 697 3500 
L 697 3744 
Q 697 4328 969 4595 
Q 1241 4863 1831 4863 
L 2375 4863 
z
" transform="scale(0.015625)"/>
      </defs>
      <use xlink:href="#DejaVuSans-62"/>
      <use xlink:href="#DejaVuSans-69" x="63.476562"/>
      <use xlink:href="#DejaVuSans-6f" x="91.259766"/>
      <use xlink:href="#DejaVuSans-66" x="152.441406"/>
      <use xlink:href="#DejaVuSans-75" x="187.646484"/>
      <use xlink:href="#DejaVuSans-65" x="251.025391"/>
      <use xlink:href="#DejaVuSans-6c" x="312.548828"/>
     </g>
    </g>
    <g id="line2d_26">
     <path d="M 336.36875 108.807187 
L 346.36875 108.807187 
L 356.36875 108.807187 
" style="fill: none; stroke: #bc99c7; stroke-width: 1.5; stroke-linecap: square"/>
    </g>
    <g id="text_24">
     <!-- solar -->
     <g transform="translate(364.36875 112.307187) scale(0.1 -0.1)">
      <use xlink:href="#DejaVuSans-73"/>
      <use xlink:href="#DejaVuSans-6f" x="52.099609"/>
      <use xlink:href="#DejaVuSans-6c" x="113.28125"/>
      <use xlink:href="#DejaVuSans-61" x="141.064453"/>
      <use xlink:href="#DejaVuSans-72" x="202.34375"/>
     </g>
    </g>
   </g>
  </g>
 </g>
 <defs>
  <clipPath id="p2c254c08c5">
   <rect x="34.240625" y="22.318125" width="669.6" height="332.64"/>
  </clipPath>
 </defs>
</svg>
