<?xml version="1.0" encoding="utf-8" standalone="no"?>
<!DOCTYPE svg PUBLIC "-//W3C//DTD SVG 1.1//EN"
  "http://www.w3.org/Graphics/SVG/1.1/DTD/svg11.dtd">
<!-- Created with matplotlib (https://matplotlib.org/) -->
<svg height="381.39744pt" version="1.1" viewBox="0 0 717.403125 381.39744" width="717.403125pt" xmlns="http://www.w3.org/2000/svg" xmlns:xlink="http://www.w3.org/1999/xlink">
 <metadata>
  <rdf:RDF xmlns:cc="http://creativecommons.org/ns#" xmlns:dc="http://purl.org/dc/elements/1.1/" xmlns:rdf="http://www.w3.org/1999/02/22-rdf-syntax-ns#">
   <cc:Work>
    <dc:type rdf:resource="http://purl.org/dc/dcmitype/StillImage"/>
    <dc:date>2023-04-24T18:00:32.587799</dc:date>
    <dc:format>image/svg+xml</dc:format>
    <dc:creator>
     <cc:Agent>
      <dc:title>Matplotlib v3.3.4, https://matplotlib.org/</dc:title>
     </cc:Agent>
    </dc:creator>
   </cc:Work>
  </rdf:RDF>
 </metadata>
 <defs>
  <style type="text/css">*{stroke-linecap:butt;stroke-linejoin:round;}</style>
 </defs>
 <g id="figure_1">
  <g id="patch_1">
   <path d="M 0 381.39744 
L 717.403125 381.39744 
L 717.403125 0 
L 0 0 
z
" style="fill:#ffffff;"/>
  </g>
  <g id="axes_1">
   <g id="patch_2">
    <path d="M 40.603125 316.08 
L 710.203125 316.08 
L 710.203125 22.32 
L 40.603125 22.32 
z
" style="fill:#ffffff;"/>
   </g>
   <g id="matplotlib.axis_1">
    <g id="xtick_1">
     <g id="line2d_1">
      <defs>
       <path d="M 0 0 
L 0 3.5 
" id="m5275c5d8c1" style="stroke:#000000;stroke-width:0.8;"/>
      </defs>
      <g>
       <use style="stroke:#000000;stroke-width:0.8;" x="117.713493" xlink:href="#m5275c5d8c1" y="316.08"/>
      </g>
     </g>
     <g id="text_1">
      <!-- 2023-03-08 -->
      <g transform="translate(66.344041 358.718252)rotate(-30)scale(0.1 -0.1)">
       <defs>
        <path d="M 19.1875 8.296875 
L 53.609375 8.296875 
L 53.609375 0 
L 7.328125 0 
L 7.328125 8.296875 
Q 12.9375 14.109375 22.625 23.890625 
Q 32.328125 33.6875 34.8125 36.53125 
Q 39.546875 41.84375 41.421875 45.53125 
Q 43.3125 49.21875 43.3125 52.78125 
Q 43.3125 58.59375 39.234375 62.25 
Q 35.15625 65.921875 28.609375 65.921875 
Q 23.96875 65.921875 18.8125 64.3125 
Q 13.671875 62.703125 7.8125 59.421875 
L 7.8125 69.390625 
Q 13.765625 71.78125 18.9375 73 
Q 24.125 74.21875 28.421875 74.21875 
Q 39.75 74.21875 46.484375 68.546875 
Q 53.21875 62.890625 53.21875 53.421875 
Q 53.21875 48.921875 51.53125 44.890625 
Q 49.859375 40.875 45.40625 35.40625 
Q 44.1875 33.984375 37.640625 27.21875 
Q 31.109375 20.453125 19.1875 8.296875 
z
" id="DejaVuSans-50"/>
        <path d="M 31.78125 66.40625 
Q 24.171875 66.40625 20.328125 58.90625 
Q 16.5 51.421875 16.5 36.375 
Q 16.5 21.390625 20.328125 13.890625 
Q 24.171875 6.390625 31.78125 6.390625 
Q 39.453125 6.390625 43.28125 13.890625 
Q 47.125 21.390625 47.125 36.375 
Q 47.125 51.421875 43.28125 58.90625 
Q 39.453125 66.40625 31.78125 66.40625 
z
M 31.78125 74.21875 
Q 44.046875 74.21875 50.515625 64.515625 
Q 56.984375 54.828125 56.984375 36.375 
Q 56.984375 17.96875 50.515625 8.265625 
Q 44.046875 -1.421875 31.78125 -1.421875 
Q 19.53125 -1.421875 13.0625 8.265625 
Q 6.59375 17.96875 6.59375 36.375 
Q 6.59375 54.828125 13.0625 64.515625 
Q 19.53125 74.21875 31.78125 74.21875 
z
" id="DejaVuSans-48"/>
        <path d="M 40.578125 39.3125 
Q 47.65625 37.796875 51.625 33 
Q 55.609375 28.21875 55.609375 21.1875 
Q 55.609375 10.40625 48.1875 4.484375 
Q 40.765625 -1.421875 27.09375 -1.421875 
Q 22.515625 -1.421875 17.65625 -0.515625 
Q 12.796875 0.390625 7.625 2.203125 
L 7.625 11.71875 
Q 11.71875 9.328125 16.59375 8.109375 
Q 21.484375 6.890625 26.8125 6.890625 
Q 36.078125 6.890625 40.9375 10.546875 
Q 45.796875 14.203125 45.796875 21.1875 
Q 45.796875 27.640625 41.28125 31.265625 
Q 36.765625 34.90625 28.71875 34.90625 
L 20.21875 34.90625 
L 20.21875 43.015625 
L 29.109375 43.015625 
Q 36.375 43.015625 40.234375 45.921875 
Q 44.09375 48.828125 44.09375 54.296875 
Q 44.09375 59.90625 40.109375 62.90625 
Q 36.140625 65.921875 28.71875 65.921875 
Q 24.65625 65.921875 20.015625 65.03125 
Q 15.375 64.15625 9.8125 62.3125 
L 9.8125 71.09375 
Q 15.4375 72.65625 20.34375 73.4375 
Q 25.25 74.21875 29.59375 74.21875 
Q 40.828125 74.21875 47.359375 69.109375 
Q 53.90625 64.015625 53.90625 55.328125 
Q 53.90625 49.265625 50.4375 45.09375 
Q 46.96875 40.921875 40.578125 39.3125 
z
" id="DejaVuSans-51"/>
        <path d="M 4.890625 31.390625 
L 31.203125 31.390625 
L 31.203125 23.390625 
L 4.890625 23.390625 
z
" id="DejaVuSans-45"/>
        <path d="M 31.78125 34.625 
Q 24.75 34.625 20.71875 30.859375 
Q 16.703125 27.09375 16.703125 20.515625 
Q 16.703125 13.921875 20.71875 10.15625 
Q 24.75 6.390625 31.78125 6.390625 
Q 38.8125 6.390625 42.859375 10.171875 
Q 46.921875 13.96875 46.921875 20.515625 
Q 46.921875 27.09375 42.890625 30.859375 
Q 38.875 34.625 31.78125 34.625 
z
M 21.921875 38.8125 
Q 15.578125 40.375 12.03125 44.71875 
Q 8.5 49.078125 8.5 55.328125 
Q 8.5 64.0625 14.71875 69.140625 
Q 20.953125 74.21875 31.78125 74.21875 
Q 42.671875 74.21875 48.875 69.140625 
Q 55.078125 64.0625 55.078125 55.328125 
Q 55.078125 49.078125 51.53125 44.71875 
Q 48 40.375 41.703125 38.8125 
Q 48.828125 37.15625 52.796875 32.3125 
Q 56.78125 27.484375 56.78125 20.515625 
Q 56.78125 9.90625 50.3125 4.234375 
Q 43.84375 -1.421875 31.78125 -1.421875 
Q 19.734375 -1.421875 13.25 4.234375 
Q 6.78125 9.90625 6.78125 20.515625 
Q 6.78125 27.484375 10.78125 32.3125 
Q 14.796875 37.15625 21.921875 38.8125 
z
M 18.3125 54.390625 
Q 18.3125 48.734375 21.84375 45.5625 
Q 25.390625 42.390625 31.78125 42.390625 
Q 38.140625 42.390625 41.71875 45.5625 
Q 45.3125 48.734375 45.3125 54.390625 
Q 45.3125 60.0625 41.71875 63.234375 
Q 38.140625 66.40625 31.78125 66.40625 
Q 25.390625 66.40625 21.84375 63.234375 
Q 18.3125 60.0625 18.3125 54.390625 
z
" id="DejaVuSans-56"/>
       </defs>
       <use xlink:href="#DejaVuSans-50"/>
       <use x="63.623047" xlink:href="#DejaVuSans-48"/>
       <use x="127.246094" xlink:href="#DejaVuSans-50"/>
       <use x="190.869141" xlink:href="#DejaVuSans-51"/>
       <use x="254.492188" xlink:href="#DejaVuSans-45"/>
       <use x="290.576172" xlink:href="#DejaVuSans-48"/>
       <use x="354.199219" xlink:href="#DejaVuSans-51"/>
       <use x="417.822266" xlink:href="#DejaVuSans-45"/>
       <use x="453.90625" xlink:href="#DejaVuSans-48"/>
       <use x="517.529297" xlink:href="#DejaVuSans-56"/>
      </g>
     </g>
    </g>
    <g id="xtick_2">
     <g id="line2d_2">
      <g>
       <use style="stroke:#000000;stroke-width:0.8;" x="200.252784" xlink:href="#m5275c5d8c1" y="316.08"/>
      </g>
     </g>
     <g id="text_2">
      <!-- 2023-03-15 -->
      <g transform="translate(148.883332 358.718252)rotate(-30)scale(0.1 -0.1)">
       <defs>
        <path d="M 12.40625 8.296875 
L 28.515625 8.296875 
L 28.515625 63.921875 
L 10.984375 60.40625 
L 10.984375 69.390625 
L 28.421875 72.90625 
L 38.28125 72.90625 
L 38.28125 8.296875 
L 54.390625 8.296875 
L 54.390625 0 
L 12.40625 0 
z
" id="DejaVuSans-49"/>
        <path d="M 10.796875 72.90625 
L 49.515625 72.90625 
L 49.515625 64.59375 
L 19.828125 64.59375 
L 19.828125 46.734375 
Q 21.96875 47.46875 24.109375 47.828125 
Q 26.265625 48.1875 28.421875 48.1875 
Q 40.625 48.1875 47.75 41.5 
Q 54.890625 34.8125 54.890625 23.390625 
Q 54.890625 11.625 47.5625 5.09375 
Q 40.234375 -1.421875 26.90625 -1.421875 
Q 22.3125 -1.421875 17.546875 -0.640625 
Q 12.796875 0.140625 7.71875 1.703125 
L 7.71875 11.625 
Q 12.109375 9.234375 16.796875 8.0625 
Q 21.484375 6.890625 26.703125 6.890625 
Q 35.15625 6.890625 40.078125 11.328125 
Q 45.015625 15.765625 45.015625 23.390625 
Q 45.015625 31 40.078125 35.4375 
Q 35.15625 39.890625 26.703125 39.890625 
Q 22.75 39.890625 18.8125 39.015625 
Q 14.890625 38.140625 10.796875 36.28125 
z
" id="DejaVuSans-53"/>
       </defs>
       <use xlink:href="#DejaVuSans-50"/>
       <use x="63.623047" xlink:href="#DejaVuSans-48"/>
       <use x="127.246094" xlink:href="#DejaVuSans-50"/>
       <use x="190.869141" xlink:href="#DejaVuSans-51"/>
       <use x="254.492188" xlink:href="#DejaVuSans-45"/>
       <use x="290.576172" xlink:href="#DejaVuSans-48"/>
       <use x="354.199219" xlink:href="#DejaVuSans-51"/>
       <use x="417.822266" xlink:href="#DejaVuSans-45"/>
       <use x="453.90625" xlink:href="#DejaVuSans-49"/>
       <use x="517.529297" xlink:href="#DejaVuSans-53"/>
      </g>
     </g>
    </g>
    <g id="xtick_3">
     <g id="line2d_3">
      <g>
       <use style="stroke:#000000;stroke-width:0.8;" x="282.792075" xlink:href="#m5275c5d8c1" y="316.08"/>
      </g>
     </g>
     <g id="text_3">
      <!-- 2023-03-22 -->
      <g transform="translate(231.422624 358.718252)rotate(-30)scale(0.1 -0.1)">
       <use xlink:href="#DejaVuSans-50"/>
       <use x="63.623047" xlink:href="#DejaVuSans-48"/>
       <use x="127.246094" xlink:href="#DejaVuSans-50"/>
       <use x="190.869141" xlink:href="#DejaVuSans-51"/>
       <use x="254.492188" xlink:href="#DejaVuSans-45"/>
       <use x="290.576172" xlink:href="#DejaVuSans-48"/>
       <use x="354.199219" xlink:href="#DejaVuSans-51"/>
       <use x="417.822266" xlink:href="#DejaVuSans-45"/>
       <use x="453.90625" xlink:href="#DejaVuSans-50"/>
       <use x="517.529297" xlink:href="#DejaVuSans-50"/>
      </g>
     </g>
    </g>
    <g id="xtick_4">
     <g id="line2d_4">
      <g>
       <use style="stroke:#000000;stroke-width:0.8;" x="400.705348" xlink:href="#m5275c5d8c1" y="316.08"/>
      </g>
     </g>
     <g id="text_4">
      <!-- 2023-04-01 -->
      <g transform="translate(349.335897 358.718252)rotate(-30)scale(0.1 -0.1)">
       <defs>
        <path d="M 37.796875 64.3125 
L 12.890625 25.390625 
L 37.796875 25.390625 
z
M 35.203125 72.90625 
L 47.609375 72.90625 
L 47.609375 25.390625 
L 58.015625 25.390625 
L 58.015625 17.1875 
L 47.609375 17.1875 
L 47.609375 0 
L 37.796875 0 
L 37.796875 17.1875 
L 4.890625 17.1875 
L 4.890625 26.703125 
z
" id="DejaVuSans-52"/>
       </defs>
       <use xlink:href="#DejaVuSans-50"/>
       <use x="63.623047" xlink:href="#DejaVuSans-48"/>
       <use x="127.246094" xlink:href="#DejaVuSans-50"/>
       <use x="190.869141" xlink:href="#DejaVuSans-51"/>
       <use x="254.492188" xlink:href="#DejaVuSans-45"/>
       <use x="290.576172" xlink:href="#DejaVuSans-48"/>
       <use x="354.199219" xlink:href="#DejaVuSans-52"/>
       <use x="417.822266" xlink:href="#DejaVuSans-45"/>
       <use x="453.90625" xlink:href="#DejaVuSans-48"/>
       <use x="517.529297" xlink:href="#DejaVuSans-49"/>
      </g>
     </g>
    </g>
    <g id="xtick_5">
     <g id="line2d_5">
      <g>
       <use style="stroke:#000000;stroke-width:0.8;" x="483.244639" xlink:href="#m5275c5d8c1" y="316.08"/>
      </g>
     </g>
     <g id="text_5">
      <!-- 2023-04-08 -->
      <g transform="translate(431.875188 358.718252)rotate(-30)scale(0.1 -0.1)">
       <use xlink:href="#DejaVuSans-50"/>
       <use x="63.623047" xlink:href="#DejaVuSans-48"/>
       <use x="127.246094" xlink:href="#DejaVuSans-50"/>
       <use x="190.869141" xlink:href="#DejaVuSans-51"/>
       <use x="254.492188" xlink:href="#DejaVuSans-45"/>
       <use x="290.576172" xlink:href="#DejaVuSans-48"/>
       <use x="354.199219" xlink:href="#DejaVuSans-52"/>
       <use x="417.822266" xlink:href="#DejaVuSans-45"/>
       <use x="453.90625" xlink:href="#DejaVuSans-48"/>
       <use x="517.529297" xlink:href="#DejaVuSans-56"/>
      </g>
     </g>
    </g>
    <g id="xtick_6">
     <g id="line2d_6">
      <g>
       <use style="stroke:#000000;stroke-width:0.8;" x="565.783931" xlink:href="#m5275c5d8c1" y="316.08"/>
      </g>
     </g>
     <g id="text_6">
      <!-- 2023-04-15 -->
      <g transform="translate(514.414479 358.718252)rotate(-30)scale(0.1 -0.1)">
       <use xlink:href="#DejaVuSans-50"/>
       <use x="63.623047" xlink:href="#DejaVuSans-48"/>
       <use x="127.246094" xlink:href="#DejaVuSans-50"/>
       <use x="190.869141" xlink:href="#DejaVuSans-51"/>
       <use x="254.492188" xlink:href="#DejaVuSans-45"/>
       <use x="290.576172" xlink:href="#DejaVuSans-48"/>
       <use x="354.199219" xlink:href="#DejaVuSans-52"/>
       <use x="417.822266" xlink:href="#DejaVuSans-45"/>
       <use x="453.90625" xlink:href="#DejaVuSans-49"/>
       <use x="517.529297" xlink:href="#DejaVuSans-53"/>
      </g>
     </g>
    </g>
    <g id="xtick_7">
     <g id="line2d_7">
      <g>
       <use style="stroke:#000000;stroke-width:0.8;" x="648.323222" xlink:href="#m5275c5d8c1" y="316.08"/>
      </g>
     </g>
     <g id="text_7">
      <!-- 2023-04-22 -->
      <g transform="translate(596.95377 358.718252)rotate(-30)scale(0.1 -0.1)">
       <use xlink:href="#DejaVuSans-50"/>
       <use x="63.623047" xlink:href="#DejaVuSans-48"/>
       <use x="127.246094" xlink:href="#DejaVuSans-50"/>
       <use x="190.869141" xlink:href="#DejaVuSans-51"/>
       <use x="254.492188" xlink:href="#DejaVuSans-45"/>
       <use x="290.576172" xlink:href="#DejaVuSans-48"/>
       <use x="354.199219" xlink:href="#DejaVuSans-52"/>
       <use x="417.822266" xlink:href="#DejaVuSans-45"/>
       <use x="453.90625" xlink:href="#DejaVuSans-50"/>
       <use x="517.529297" xlink:href="#DejaVuSans-50"/>
      </g>
     </g>
    </g>
    <g id="text_8">
     <!-- Date -->
     <g transform="translate(363.452344 372.117752)scale(0.1 -0.1)">
      <defs>
       <path d="M 19.671875 64.796875 
L 19.671875 8.109375 
L 31.59375 8.109375 
Q 46.6875 8.109375 53.6875 14.9375 
Q 60.6875 21.78125 60.6875 36.53125 
Q 60.6875 51.171875 53.6875 57.984375 
Q 46.6875 64.796875 31.59375 64.796875 
z
M 9.8125 72.90625 
L 30.078125 72.90625 
Q 51.265625 72.90625 61.171875 64.09375 
Q 71.09375 55.28125 71.09375 36.53125 
Q 71.09375 17.671875 61.125 8.828125 
Q 51.171875 0 30.078125 0 
L 9.8125 0 
z
" id="DejaVuSans-68"/>
       <path d="M 34.28125 27.484375 
Q 23.390625 27.484375 19.1875 25 
Q 14.984375 22.515625 14.984375 16.5 
Q 14.984375 11.71875 18.140625 8.90625 
Q 21.296875 6.109375 26.703125 6.109375 
Q 34.1875 6.109375 38.703125 11.40625 
Q 43.21875 16.703125 43.21875 25.484375 
L 43.21875 27.484375 
z
M 52.203125 31.203125 
L 52.203125 0 
L 43.21875 0 
L 43.21875 8.296875 
Q 40.140625 3.328125 35.546875 0.953125 
Q 30.953125 -1.421875 24.3125 -1.421875 
Q 15.921875 -1.421875 10.953125 3.296875 
Q 6 8.015625 6 15.921875 
Q 6 25.140625 12.171875 29.828125 
Q 18.359375 34.515625 30.609375 34.515625 
L 43.21875 34.515625 
L 43.21875 35.40625 
Q 43.21875 41.609375 39.140625 45 
Q 35.0625 48.390625 27.6875 48.390625 
Q 23 48.390625 18.546875 47.265625 
Q 14.109375 46.140625 10.015625 43.890625 
L 10.015625 52.203125 
Q 14.9375 54.109375 19.578125 55.046875 
Q 24.21875 56 28.609375 56 
Q 40.484375 56 46.34375 49.84375 
Q 52.203125 43.703125 52.203125 31.203125 
z
" id="DejaVuSans-97"/>
       <path d="M 18.3125 70.21875 
L 18.3125 54.6875 
L 36.8125 54.6875 
L 36.8125 47.703125 
L 18.3125 47.703125 
L 18.3125 18.015625 
Q 18.3125 11.328125 20.140625 9.421875 
Q 21.96875 7.515625 27.59375 7.515625 
L 36.8125 7.515625 
L 36.8125 0 
L 27.59375 0 
Q 17.1875 0 13.234375 3.875 
Q 9.28125 7.765625 9.28125 18.015625 
L 9.28125 47.703125 
L 2.6875 47.703125 
L 2.6875 54.6875 
L 9.28125 54.6875 
L 9.28125 70.21875 
z
" id="DejaVuSans-116"/>
       <path d="M 56.203125 29.59375 
L 56.203125 25.203125 
L 14.890625 25.203125 
Q 15.484375 15.921875 20.484375 11.0625 
Q 25.484375 6.203125 34.421875 6.203125 
Q 39.59375 6.203125 44.453125 7.46875 
Q 49.3125 8.734375 54.109375 11.28125 
L 54.109375 2.78125 
Q 49.265625 0.734375 44.1875 -0.34375 
Q 39.109375 -1.421875 33.890625 -1.421875 
Q 20.796875 -1.421875 13.15625 6.1875 
Q 5.515625 13.8125 5.515625 26.8125 
Q 5.515625 40.234375 12.765625 48.109375 
Q 20.015625 56 32.328125 56 
Q 43.359375 56 49.78125 48.890625 
Q 56.203125 41.796875 56.203125 29.59375 
z
M 47.21875 32.234375 
Q 47.125 39.59375 43.09375 43.984375 
Q 39.0625 48.390625 32.421875 48.390625 
Q 24.90625 48.390625 20.390625 44.140625 
Q 15.875 39.890625 15.1875 32.171875 
z
" id="DejaVuSans-101"/>
      </defs>
      <use xlink:href="#DejaVuSans-68"/>
      <use x="77.001953" xlink:href="#DejaVuSans-97"/>
      <use x="138.28125" xlink:href="#DejaVuSans-116"/>
      <use x="177.490234" xlink:href="#DejaVuSans-101"/>
     </g>
    </g>
   </g>
   <g id="matplotlib.axis_2">
    <g id="ytick_1">
     <g id="line2d_8">
      <defs>
       <path d="M 0 0 
L -3.5 0 
" id="m56bf9da461" style="stroke:#000000;stroke-width:0.8;"/>
      </defs>
      <g>
       <use style="stroke:#000000;stroke-width:0.8;" x="40.603125" xlink:href="#m56bf9da461" y="316.08"/>
      </g>
     </g>
     <g id="text_9">
      <!-- 0 -->
      <g transform="translate(27.240625 319.879219)scale(0.1 -0.1)">
       <use xlink:href="#DejaVuSans-48"/>
      </g>
     </g>
    </g>
    <g id="ytick_2">
     <g id="line2d_9">
      <g>
       <use style="stroke:#000000;stroke-width:0.8;" x="40.603125" xlink:href="#m56bf9da461" y="255.102314"/>
      </g>
     </g>
     <g id="text_10">
      <!-- 20 -->
      <g transform="translate(20.878125 258.901533)scale(0.1 -0.1)">
       <use xlink:href="#DejaVuSans-50"/>
       <use x="63.623047" xlink:href="#DejaVuSans-48"/>
      </g>
     </g>
    </g>
    <g id="ytick_3">
     <g id="line2d_10">
      <g>
       <use style="stroke:#000000;stroke-width:0.8;" x="40.603125" xlink:href="#m56bf9da461" y="194.124629"/>
      </g>
     </g>
     <g id="text_11">
      <!-- 40 -->
      <g transform="translate(20.878125 197.923848)scale(0.1 -0.1)">
       <use xlink:href="#DejaVuSans-52"/>
       <use x="63.623047" xlink:href="#DejaVuSans-48"/>
      </g>
     </g>
    </g>
    <g id="ytick_4">
     <g id="line2d_11">
      <g>
       <use style="stroke:#000000;stroke-width:0.8;" x="40.603125" xlink:href="#m56bf9da461" y="133.146943"/>
      </g>
     </g>
     <g id="text_12">
      <!-- 60 -->
      <g transform="translate(20.878125 136.946162)scale(0.1 -0.1)">
       <defs>
        <path d="M 33.015625 40.375 
Q 26.375 40.375 22.484375 35.828125 
Q 18.609375 31.296875 18.609375 23.390625 
Q 18.609375 15.53125 22.484375 10.953125 
Q 26.375 6.390625 33.015625 6.390625 
Q 39.65625 6.390625 43.53125 10.953125 
Q 47.40625 15.53125 47.40625 23.390625 
Q 47.40625 31.296875 43.53125 35.828125 
Q 39.65625 40.375 33.015625 40.375 
z
M 52.59375 71.296875 
L 52.59375 62.3125 
Q 48.875 64.0625 45.09375 64.984375 
Q 41.3125 65.921875 37.59375 65.921875 
Q 27.828125 65.921875 22.671875 59.328125 
Q 17.53125 52.734375 16.796875 39.40625 
Q 19.671875 43.65625 24.015625 45.921875 
Q 28.375 48.1875 33.59375 48.1875 
Q 44.578125 48.1875 50.953125 41.515625 
Q 57.328125 34.859375 57.328125 23.390625 
Q 57.328125 12.15625 50.6875 5.359375 
Q 44.046875 -1.421875 33.015625 -1.421875 
Q 20.359375 -1.421875 13.671875 8.265625 
Q 6.984375 17.96875 6.984375 36.375 
Q 6.984375 53.65625 15.1875 63.9375 
Q 23.390625 74.21875 37.203125 74.21875 
Q 40.921875 74.21875 44.703125 73.484375 
Q 48.484375 72.75 52.59375 71.296875 
z
" id="DejaVuSans-54"/>
       </defs>
       <use xlink:href="#DejaVuSans-54"/>
       <use x="63.623047" xlink:href="#DejaVuSans-48"/>
      </g>
     </g>
    </g>
    <g id="ytick_5">
     <g id="line2d_12">
      <g>
       <use style="stroke:#000000;stroke-width:0.8;" x="40.603125" xlink:href="#m56bf9da461" y="72.169258"/>
      </g>
     </g>
     <g id="text_13">
      <!-- 80 -->
      <g transform="translate(20.878125 75.968477)scale(0.1 -0.1)">
       <use xlink:href="#DejaVuSans-56"/>
       <use x="63.623047" xlink:href="#DejaVuSans-48"/>
      </g>
     </g>
    </g>
    <g id="text_14">
     <!-- g/kWh -->
     <g transform="translate(14.798438 185.066406)rotate(-90)scale(0.1 -0.1)">
      <defs>
       <path d="M 45.40625 27.984375 
Q 45.40625 37.75 41.375 43.109375 
Q 37.359375 48.484375 30.078125 48.484375 
Q 22.859375 48.484375 18.828125 43.109375 
Q 14.796875 37.75 14.796875 27.984375 
Q 14.796875 18.265625 18.828125 12.890625 
Q 22.859375 7.515625 30.078125 7.515625 
Q 37.359375 7.515625 41.375 12.890625 
Q 45.40625 18.265625 45.40625 27.984375 
z
M 54.390625 6.78125 
Q 54.390625 -7.171875 48.1875 -13.984375 
Q 42 -20.796875 29.203125 -20.796875 
Q 24.46875 -20.796875 20.265625 -20.09375 
Q 16.0625 -19.390625 12.109375 -17.921875 
L 12.109375 -9.1875 
Q 16.0625 -11.328125 19.921875 -12.34375 
Q 23.78125 -13.375 27.78125 -13.375 
Q 36.625 -13.375 41.015625 -8.765625 
Q 45.40625 -4.15625 45.40625 5.171875 
L 45.40625 9.625 
Q 42.625 4.78125 38.28125 2.390625 
Q 33.9375 0 27.875 0 
Q 17.828125 0 11.671875 7.65625 
Q 5.515625 15.328125 5.515625 27.984375 
Q 5.515625 40.671875 11.671875 48.328125 
Q 17.828125 56 27.875 56 
Q 33.9375 56 38.28125 53.609375 
Q 42.625 51.21875 45.40625 46.390625 
L 45.40625 54.6875 
L 54.390625 54.6875 
z
" id="DejaVuSans-103"/>
       <path d="M 25.390625 72.90625 
L 33.6875 72.90625 
L 8.296875 -9.28125 
L 0 -9.28125 
z
" id="DejaVuSans-47"/>
       <path d="M 9.078125 75.984375 
L 18.109375 75.984375 
L 18.109375 31.109375 
L 44.921875 54.6875 
L 56.390625 54.6875 
L 27.390625 29.109375 
L 57.625 0 
L 45.90625 0 
L 18.109375 26.703125 
L 18.109375 0 
L 9.078125 0 
z
" id="DejaVuSans-107"/>
       <path d="M 3.328125 72.90625 
L 13.28125 72.90625 
L 28.609375 11.28125 
L 43.890625 72.90625 
L 54.984375 72.90625 
L 70.3125 11.28125 
L 85.59375 72.90625 
L 95.609375 72.90625 
L 77.296875 0 
L 64.890625 0 
L 49.515625 63.28125 
L 33.984375 0 
L 21.578125 0 
z
" id="DejaVuSans-87"/>
       <path d="M 54.890625 33.015625 
L 54.890625 0 
L 45.90625 0 
L 45.90625 32.71875 
Q 45.90625 40.484375 42.875 44.328125 
Q 39.84375 48.1875 33.796875 48.1875 
Q 26.515625 48.1875 22.3125 43.546875 
Q 18.109375 38.921875 18.109375 30.90625 
L 18.109375 0 
L 9.078125 0 
L 9.078125 75.984375 
L 18.109375 75.984375 
L 18.109375 46.1875 
Q 21.34375 51.125 25.703125 53.5625 
Q 30.078125 56 35.796875 56 
Q 45.21875 56 50.046875 50.171875 
Q 54.890625 44.34375 54.890625 33.015625 
z
" id="DejaVuSans-104"/>
      </defs>
      <use xlink:href="#DejaVuSans-103"/>
      <use x="63.476562" xlink:href="#DejaVuSans-47"/>
      <use x="97.167969" xlink:href="#DejaVuSans-107"/>
      <use x="155.078125" xlink:href="#DejaVuSans-87"/>
      <use x="253.955078" xlink:href="#DejaVuSans-104"/>
     </g>
    </g>
   </g>
   <g id="line2d_13">
    <path clip-path="url(#pad3857f168)" d="M 71.039489 297.786694 
L 72.022099 297.786694 
L 72.513405 288.640042 
L 73.00471 282.542273 
L 73.496015 264.248967 
L 73.98732 239.857893 
L 74.478626 203.271282 
L 75.461236 169.733555 
L 75.952542 181.929092 
L 76.443847 178.880208 
L 76.935152 172.782439 
L 77.426458 169.733555 
L 78.409068 169.733555 
L 78.900374 166.68467 
L 79.391679 160.586902 
L 80.374289 142.293596 
L 80.865595 142.293596 
L 81.3569 133.146943 
L 82.339511 157.538018 
L 82.830816 157.538018 
L 83.813427 175.831323 
L 84.796037 175.831323 
L 85.287342 166.68467 
L 85.778648 160.586902 
L 86.761258 154.489133 
L 87.252564 166.68467 
L 87.743869 166.68467 
L 88.235174 157.538018 
L 88.72648 151.440249 
L 89.217785 163.635786 
L 89.70909 145.342481 
L 90.200396 114.853638 
L 90.691701 99.609216 
L 91.183006 47.778184 
L 92.165617 35.582647 
L 92.656922 59.973721 
L 93.148227 72.169258 
L 94.130838 145.342481 
L 95.113449 175.831323 
L 95.604754 172.782439 
L 96.096059 175.831323 
L 96.587364 175.831323 
L 97.569975 194.124629 
L 98.06128 194.124629 
L 98.552586 188.02686 
L 99.043891 184.977976 
L 99.535196 221.564587 
L 100.026502 218.515703 
L 100.517807 233.760125 
L 101.009112 224.613472 
L 101.500418 227.662356 
L 101.991723 212.417935 
L 102.483028 212.417935 
L 102.974333 203.271282 
L 103.956944 197.173513 
L 104.448249 197.173513 
L 104.939555 194.124629 
L 105.43086 252.05343 
L 105.922165 279.493389 
L 106.413471 294.73781 
L 106.904776 291.688926 
L 107.396081 279.493389 
L 107.887387 261.200083 
L 108.378692 249.004546 
L 108.869997 242.906777 
L 109.361302 239.857893 
L 109.852608 242.906777 
L 110.343913 230.71124 
L 110.835218 252.05343 
L 111.326524 255.102314 
L 112.309134 249.004546 
L 112.80044 239.857893 
L 113.291745 218.515703 
L 113.78305 230.71124 
L 114.274355 255.102314 
L 114.765661 258.151199 
L 115.748271 267.297852 
L 116.239577 261.200083 
L 116.730882 261.200083 
L 117.222187 291.688926 
L 117.713493 297.786694 
L 118.204798 297.786694 
L 118.696103 294.73781 
L 119.187409 288.640042 
L 119.678714 267.297852 
L 120.170019 267.297852 
L 120.661324 270.346736 
L 121.643935 264.248967 
L 122.13524 270.346736 
L 123.117851 297.786694 
L 123.609156 291.688926 
L 124.100462 276.444504 
L 125.083072 230.71124 
L 125.574377 221.564587 
L 126.065683 227.662356 
L 127.539599 236.809009 
L 128.030904 258.151199 
L 128.522209 267.297852 
L 129.013515 270.346736 
L 129.50482 258.151199 
L 129.996125 258.151199 
L 130.487431 239.857893 
L 130.978736 230.71124 
L 143.261368 273.39562 
L 143.752674 258.151199 
L 144.243979 255.102314 
L 145.22659 261.200083 
L 145.717895 252.05343 
L 146.2092 221.564587 
L 146.700506 218.515703 
L 147.191811 209.36905 
L 147.683116 224.613472 
L 148.174422 224.613472 
L 148.665727 215.466819 
L 149.157032 221.564587 
L 150.630948 221.564587 
L 151.122253 242.906777 
L 151.613559 255.102314 
L 152.104864 245.955662 
L 152.596169 258.151199 
L 153.087475 261.200083 
L 153.57878 258.151199 
L 154.070085 245.955662 
L 154.56139 255.102314 
L 155.544001 212.417935 
L 156.526612 212.417935 
L 157.017917 200.222398 
L 157.509222 178.880208 
L 158.000528 166.68467 
L 158.491833 151.440249 
L 158.983138 166.68467 
L 159.474444 136.195828 
L 159.965749 133.146943 
L 160.948359 139.244712 
L 161.439665 145.342481 
L 161.93097 127.049175 
L 162.913581 114.853638 
L 163.404886 136.195828 
L 163.896191 169.733555 
L 164.878802 188.02686 
L 165.861412 188.02686 
L 166.352718 181.929092 
L 166.844023 178.880208 
L 167.335328 181.929092 
L 167.826634 181.929092 
L 168.317939 178.880208 
L 168.809244 178.880208 
L 169.30055 184.977976 
L 169.791855 188.02686 
L 170.28316 188.02686 
L 170.774466 184.977976 
L 171.265771 175.831323 
L 171.757076 130.098059 
L 172.248381 120.951406 
L 172.739687 120.951406 
L 173.230992 133.146943 
L 173.722297 139.244712 
L 174.213603 142.293596 
L 174.704908 139.244712 
L 175.196213 139.244712 
L 175.687519 102.658101 
L 176.670129 178.880208 
L 177.161434 194.124629 
L 177.65274 197.173513 
L 178.144045 184.977976 
L 179.126656 117.902522 
L 179.617961 105.706985 
L 180.109266 59.973721 
L 180.600572 63.022605 
L 181.091877 59.973721 
L 181.583182 59.973721 
L 182.074488 63.022605 
L 182.565793 81.315911 
L 183.057098 87.413679 
L 183.548403 90.462564 
L 184.531014 139.244712 
L 185.022319 154.489133 
L 185.513625 157.538018 
L 186.00493 151.440249 
L 186.496235 154.489133 
L 187.478846 154.489133 
L 187.970151 169.733555 
L 188.952762 270.346736 
L 189.444067 264.248967 
L 189.935372 273.39562 
L 190.426678 267.297852 
L 190.917983 236.809009 
L 191.409288 233.760125 
L 191.900594 215.466819 
L 192.883204 191.075745 
L 193.37451 197.173513 
L 193.865815 224.613472 
L 194.35712 236.809009 
L 195.339731 224.613472 
L 196.813647 197.173513 
L 197.304952 206.320166 
L 197.796257 212.417935 
L 198.287563 197.173513 
L 198.778868 218.515703 
L 199.270173 230.71124 
L 199.761479 236.809009 
L 200.252784 261.200083 
L 201.235394 261.200083 
L 201.7267 249.004546 
L 202.218005 221.564587 
L 202.70931 184.977976 
L 203.200616 175.831323 
L 203.691921 136.195828 
L 204.183226 127.049175 
L 204.674532 133.146943 
L 205.165837 154.489133 
L 205.657142 191.075745 
L 206.148447 215.466819 
L 206.639753 206.320166 
L 207.131058 188.02686 
L 207.622363 181.929092 
L 209.587585 194.124629 
L 210.07889 194.124629 
L 210.570195 212.417935 
L 211.061501 252.05343 
L 211.552806 261.200083 
L 212.044111 261.200083 
L 212.535416 255.102314 
L 213.026722 261.200083 
L 213.518027 249.004546 
L 214.009332 233.760125 
L 214.500638 203.271282 
L 214.991943 191.075745 
L 215.483248 175.831323 
L 215.974554 175.831323 
L 216.465859 166.68467 
L 216.957164 181.929092 
L 217.448469 209.36905 
L 217.939775 212.417935 
L 218.43108 218.515703 
L 218.922385 209.36905 
L 219.413691 197.173513 
L 219.904996 166.68467 
L 220.887607 166.68467 
L 221.378912 169.733555 
L 221.870217 169.733555 
L 222.852828 267.297852 
L 223.344133 297.786694 
L 224.818049 297.786694 
L 225.309354 291.688926 
L 226.291965 267.297852 
L 226.78327 267.297852 
L 227.274576 270.346736 
L 227.765881 270.346736 
L 228.257186 273.39562 
L 228.748491 261.200083 
L 229.239797 245.955662 
L 229.731102 255.102314 
L 230.222407 267.297852 
L 230.713713 294.73781 
L 231.205018 300.835579 
L 232.187629 288.640042 
L 232.678934 285.591157 
L 234.15285 285.591157 
L 234.644155 282.542273 
L 235.13546 282.542273 
L 235.626766 294.73781 
L 236.118071 300.835579 
L 236.609376 300.835579 
L 237.100682 291.688926 
L 237.591987 297.786694 
L 238.083292 300.835579 
L 241.031124 300.835579 
L 241.522429 297.786694 
L 242.013735 291.688926 
L 242.50504 300.835579 
L 248.892009 300.835579 
L 249.383314 294.73781 
L 249.87462 294.73781 
L 250.365925 285.591157 
L 254.787673 285.591157 
L 255.770283 273.39562 
L 256.261589 270.346736 
L 256.752894 270.346736 
L 257.244199 273.39562 
L 257.735504 270.346736 
L 258.22681 270.346736 
L 258.718115 279.493389 
L 259.20942 291.688926 
L 260.683336 291.688926 
L 261.174642 288.640042 
L 261.665947 282.542273 
L 262.157252 279.493389 
L 263.139863 267.297852 
L 263.631168 273.39562 
L 264.122473 270.346736 
L 264.613779 270.346736 
L 265.105084 282.542273 
L 265.596389 282.542273 
L 266.087695 276.444504 
L 266.579 276.444504 
L 267.070305 273.39562 
L 267.561611 267.297852 
L 268.052916 270.346736 
L 268.544221 270.346736 
L 269.035526 282.542273 
L 269.526832 288.640042 
L 270.018137 282.542273 
L 270.509442 273.39562 
L 271.000748 267.297852 
L 271.492053 285.591157 
L 271.983358 282.542273 
L 272.474664 276.444504 
L 272.965969 258.151199 
L 273.457274 230.71124 
L 274.439885 127.049175 
L 274.93119 114.853638 
L 275.422495 154.489133 
L 275.913801 154.489133 
L 276.405106 157.538018 
L 276.896411 194.124629 
L 277.387717 218.515703 
L 278.370327 191.075745 
L 278.861633 188.02686 
L 279.352938 175.831323 
L 279.844243 181.929092 
L 280.826854 175.831323 
L 281.318159 184.977976 
L 281.809464 221.564587 
L 282.30077 276.444504 
L 282.792075 285.591157 
L 283.28338 288.640042 
L 284.265991 288.640042 
L 284.757296 279.493389 
L 285.248602 255.102314 
L 285.739907 184.977976 
L 286.231212 157.538018 
L 286.722517 160.586902 
L 287.213823 169.733555 
L 287.705128 169.733555 
L 288.196433 178.880208 
L 288.687739 215.466819 
L 289.179044 236.809009 
L 289.670349 230.71124 
L 290.161655 236.809009 
L 290.65296 224.613472 
L 291.144265 221.564587 
L 291.635571 245.955662 
L 292.126876 249.004546 
L 292.618181 249.004546 
L 293.109486 252.05343 
L 293.600792 291.688926 
L 294.092097 300.835579 
L 296.057318 300.835579 
L 296.548624 285.591157 
L 297.039929 264.248967 
L 297.531234 227.662356 
L 298.022539 178.880208 
L 298.513845 184.977976 
L 299.00515 200.222398 
L 299.496455 203.271282 
L 299.987761 188.02686 
L 300.479066 191.075745 
L 300.970371 209.36905 
L 301.461677 218.515703 
L 301.952982 215.466819 
L 302.444287 206.320166 
L 302.935593 181.929092 
L 303.426898 181.929092 
L 303.918203 172.782439 
L 304.409508 151.440249 
L 304.900814 175.831323 
L 305.883424 242.906777 
L 306.37473 245.955662 
L 306.866035 255.102314 
L 307.35734 255.102314 
L 308.339951 200.222398 
L 308.831256 148.391365 
L 309.322561 142.293596 
L 309.813867 124.000291 
L 310.305172 117.902522 
L 310.796477 127.049175 
L 311.287783 151.440249 
L 311.779088 154.489133 
L 312.270393 172.782439 
L 312.761699 175.831323 
L 313.253004 163.635786 
L 313.744309 169.733555 
L 314.235615 184.977976 
L 314.72692 169.733555 
L 315.218225 181.929092 
L 315.70953 175.831323 
L 316.692141 181.929092 
L 317.674752 236.809009 
L 318.166057 291.688926 
L 318.657362 300.835579 
L 322.096499 300.835579 
L 322.587805 294.73781 
L 323.07911 270.346736 
L 323.570415 252.05343 
L 324.061721 267.297852 
L 325.044331 285.591157 
L 325.535637 276.444504 
L 326.026942 273.39562 
L 326.518247 264.248967 
L 327.009552 273.39562 
L 327.500858 300.835579 
L 330.44869 300.835579 
L 332.413911 297.786694 
L 332.905216 291.688926 
L 333.396521 288.640042 
L 334.379132 285.591157 
L 334.870437 282.542273 
L 335.361743 282.542273 
L 335.853048 279.493389 
L 336.344353 258.151199 
L 337.326964 178.880208 
L 337.818269 169.733555 
L 338.309574 172.782439 
L 339.78349 172.782439 
L 340.274796 184.977976 
L 340.766101 218.515703 
L 341.257406 224.613472 
L 341.748712 224.613472 
L 342.240017 221.564587 
L 342.731322 224.613472 
L 343.222628 215.466819 
L 344.205238 178.880208 
L 344.696543 145.342481 
L 345.679154 139.244712 
L 346.170459 102.658101 
L 346.661765 78.267026 
L 347.15307 81.315911 
L 347.644375 87.413679 
L 348.135681 90.462564 
L 348.626986 99.609216 
L 349.118291 114.853638 
L 349.609596 142.293596 
L 350.100902 120.951406 
L 350.592207 111.804754 
L 351.083512 84.364795 
L 351.574818 90.462564 
L 352.066123 99.609216 
L 352.557428 145.342481 
L 353.048734 160.586902 
L 353.540039 181.929092 
L 354.031344 191.075745 
L 354.52265 175.831323 
L 355.013955 139.244712 
L 355.50526 130.098059 
L 355.996565 78.267026 
L 356.487871 78.267026 
L 356.979176 75.218142 
L 357.470481 81.315911 
L 357.961787 93.511448 
L 358.453092 114.853638 
L 358.944397 130.098059 
L 359.435703 154.489133 
L 359.927008 127.049175 
L 360.418313 136.195828 
L 360.909619 151.440249 
L 361.400924 139.244712 
L 361.892229 136.195828 
L 362.383534 145.342481 
L 362.87484 145.342481 
L 363.85745 151.440249 
L 364.348756 184.977976 
L 365.331366 218.515703 
L 365.822672 224.613472 
L 366.313977 224.613472 
L 366.805282 215.466819 
L 367.296587 197.173513 
L 367.787893 172.782439 
L 368.279198 184.977976 
L 368.770503 191.075745 
L 369.753114 215.466819 
L 370.735725 252.05343 
L 371.22703 264.248967 
L 371.718335 264.248967 
L 373.192251 236.809009 
L 373.683556 224.613472 
L 374.666167 218.515703 
L 375.157472 197.173513 
L 375.648778 169.733555 
L 376.140083 178.880208 
L 377.122694 224.613472 
L 377.613999 218.515703 
L 378.105304 203.271282 
L 378.596609 181.929092 
L 379.57922 102.658101 
L 380.070525 75.218142 
L 380.561831 72.169258 
L 381.053136 75.218142 
L 381.544441 111.804754 
L 382.035747 133.146943 
L 382.527052 191.075745 
L 383.018357 209.36905 
L 383.509663 209.36905 
L 384.000968 212.417935 
L 384.492273 200.222398 
L 385.474884 169.733555 
L 385.966189 169.733555 
L 386.457494 166.68467 
L 386.9488 148.391365 
L 387.440105 154.489133 
L 387.93141 175.831323 
L 388.914021 239.857893 
L 389.405326 264.248967 
L 389.896631 270.346736 
L 390.387937 267.297852 
L 391.370547 215.466819 
L 391.861853 221.564587 
L 392.353158 221.564587 
L 392.844463 224.613472 
L 393.335769 224.613472 
L 393.827074 227.662356 
L 394.318379 215.466819 
L 394.809685 215.466819 
L 395.30099 252.05343 
L 395.792295 255.102314 
L 396.2836 261.200083 
L 396.774906 224.613472 
L 397.266211 230.71124 
L 397.757516 267.297852 
L 398.248822 279.493389 
L 398.740127 279.493389 
L 399.231432 294.73781 
L 399.722738 297.786694 
L 401.687959 297.786694 
L 402.179264 300.835579 
L 405.127096 300.835579 
L 405.618401 294.73781 
L 406.109707 273.39562 
L 407.092317 285.591157 
L 407.583622 297.786694 
L 408.074928 297.786694 
L 408.566233 300.835579 
L 412.496676 300.835579 
L 413.479286 270.346736 
L 413.970591 285.591157 
L 414.461897 285.591157 
L 414.953202 273.39562 
L 415.444507 249.004546 
L 415.935813 233.760125 
L 416.427118 252.05343 
L 416.918423 264.248967 
L 417.409729 261.200083 
L 417.901034 261.200083 
L 418.392339 288.640042 
L 418.883644 288.640042 
L 419.37495 264.248967 
L 419.866255 227.662356 
L 421.831476 227.662356 
L 422.322782 230.71124 
L 422.814087 227.662356 
L 423.305392 276.444504 
L 423.796698 285.591157 
L 424.288003 288.640042 
L 424.779308 300.835579 
L 425.270613 294.73781 
L 425.761919 297.786694 
L 426.744529 297.786694 
L 427.235835 288.640042 
L 427.72714 267.297852 
L 428.218445 273.39562 
L 644.392779 249.004546 
L 644.884085 239.857893 
L 645.37539 236.809009 
L 645.866695 236.809009 
L 646.358001 233.760125 
L 646.849306 227.662356 
L 647.340611 236.809009 
L 647.831917 236.809009 
L 648.323222 233.760125 
L 648.814527 276.444504 
L 649.305832 291.688926 
L 649.797138 285.591157 
L 650.779748 267.297852 
L 651.762359 267.297852 
L 652.253664 270.346736 
L 652.74497 245.955662 
L 653.72758 233.760125 
L 654.218886 236.809009 
L 655.201496 230.71124 
L 655.692801 224.613472 
L 678.292845 188.02686 
L 678.784151 191.075745 
L 679.275456 175.831323 
L 679.766761 169.733555 
L 679.766761 169.733555 
" style="fill:none;stroke:#1f77b4;stroke-linecap:square;stroke-width:1.5;"/>
   </g>
   <g id="patch_3">
    <path d="M 40.603125 316.08 
L 40.603125 22.32 
" style="fill:none;stroke:#000000;stroke-linecap:square;stroke-linejoin:miter;stroke-width:0.8;"/>
   </g>
   <g id="patch_4">
    <path d="M 710.203125 316.08 
L 710.203125 22.32 
" style="fill:none;stroke:#000000;stroke-linecap:square;stroke-linejoin:miter;stroke-width:0.8;"/>
   </g>
   <g id="patch_5">
    <path d="M 40.603125 316.08 
L 710.203125 316.08 
" style="fill:none;stroke:#000000;stroke-linecap:square;stroke-linejoin:miter;stroke-width:0.8;"/>
   </g>
   <g id="patch_6">
    <path d="M 40.603125 22.32 
L 710.203125 22.32 
" style="fill:none;stroke:#000000;stroke-linecap:square;stroke-linejoin:miter;stroke-width:0.8;"/>
   </g>
   <g id="text_15">
    <!-- CO$_2$e intensity of the Ontario power grid for 30 days ending on 2023-04-24 -->
    <g transform="translate(149.743125 16.32)scale(0.12 -0.12)">
     <defs>
      <path d="M 64.40625 67.28125 
L 64.40625 56.890625 
Q 59.421875 61.53125 53.78125 63.8125 
Q 48.140625 66.109375 41.796875 66.109375 
Q 29.296875 66.109375 22.65625 58.46875 
Q 16.015625 50.828125 16.015625 36.375 
Q 16.015625 21.96875 22.65625 14.328125 
Q 29.296875 6.6875 41.796875 6.6875 
Q 48.140625 6.6875 53.78125 8.984375 
Q 59.421875 11.28125 64.40625 15.921875 
L 64.40625 5.609375 
Q 59.234375 2.09375 53.4375 0.328125 
Q 47.65625 -1.421875 41.21875 -1.421875 
Q 24.65625 -1.421875 15.125 8.703125 
Q 5.609375 18.84375 5.609375 36.375 
Q 5.609375 53.953125 15.125 64.078125 
Q 24.65625 74.21875 41.21875 74.21875 
Q 47.75 74.21875 53.53125 72.484375 
Q 59.328125 70.75 64.40625 67.28125 
z
" id="DejaVuSans-67"/>
      <path d="M 39.40625 66.21875 
Q 28.65625 66.21875 22.328125 58.203125 
Q 16.015625 50.203125 16.015625 36.375 
Q 16.015625 22.609375 22.328125 14.59375 
Q 28.65625 6.59375 39.40625 6.59375 
Q 50.140625 6.59375 56.421875 14.59375 
Q 62.703125 22.609375 62.703125 36.375 
Q 62.703125 50.203125 56.421875 58.203125 
Q 50.140625 66.21875 39.40625 66.21875 
z
M 39.40625 74.21875 
Q 54.734375 74.21875 63.90625 63.9375 
Q 73.09375 53.65625 73.09375 36.375 
Q 73.09375 19.140625 63.90625 8.859375 
Q 54.734375 -1.421875 39.40625 -1.421875 
Q 24.03125 -1.421875 14.8125 8.828125 
Q 5.609375 19.09375 5.609375 36.375 
Q 5.609375 53.65625 14.8125 63.9375 
Q 24.03125 74.21875 39.40625 74.21875 
z
" id="DejaVuSans-79"/>
      <path id="DejaVuSans-32"/>
      <path d="M 9.421875 54.6875 
L 18.40625 54.6875 
L 18.40625 0 
L 9.421875 0 
z
M 9.421875 75.984375 
L 18.40625 75.984375 
L 18.40625 64.59375 
L 9.421875 64.59375 
z
" id="DejaVuSans-105"/>
      <path d="M 54.890625 33.015625 
L 54.890625 0 
L 45.90625 0 
L 45.90625 32.71875 
Q 45.90625 40.484375 42.875 44.328125 
Q 39.84375 48.1875 33.796875 48.1875 
Q 26.515625 48.1875 22.3125 43.546875 
Q 18.109375 38.921875 18.109375 30.90625 
L 18.109375 0 
L 9.078125 0 
L 9.078125 54.6875 
L 18.109375 54.6875 
L 18.109375 46.1875 
Q 21.34375 51.125 25.703125 53.5625 
Q 30.078125 56 35.796875 56 
Q 45.21875 56 50.046875 50.171875 
Q 54.890625 44.34375 54.890625 33.015625 
z
" id="DejaVuSans-110"/>
      <path d="M 44.28125 53.078125 
L 44.28125 44.578125 
Q 40.484375 46.53125 36.375 47.5 
Q 32.28125 48.484375 27.875 48.484375 
Q 21.1875 48.484375 17.84375 46.4375 
Q 14.5 44.390625 14.5 40.28125 
Q 14.5 37.15625 16.890625 35.375 
Q 19.28125 33.59375 26.515625 31.984375 
L 29.59375 31.296875 
Q 39.15625 29.25 43.1875 25.515625 
Q 47.21875 21.78125 47.21875 15.09375 
Q 47.21875 7.46875 41.1875 3.015625 
Q 35.15625 -1.421875 24.609375 -1.421875 
Q 20.21875 -1.421875 15.453125 -0.5625 
Q 10.6875 0.296875 5.421875 2 
L 5.421875 11.28125 
Q 10.40625 8.6875 15.234375 7.390625 
Q 20.0625 6.109375 24.8125 6.109375 
Q 31.15625 6.109375 34.5625 8.28125 
Q 37.984375 10.453125 37.984375 14.40625 
Q 37.984375 18.0625 35.515625 20.015625 
Q 33.0625 21.96875 24.703125 23.78125 
L 21.578125 24.515625 
Q 13.234375 26.265625 9.515625 29.90625 
Q 5.8125 33.546875 5.8125 39.890625 
Q 5.8125 47.609375 11.28125 51.796875 
Q 16.75 56 26.8125 56 
Q 31.78125 56 36.171875 55.265625 
Q 40.578125 54.546875 44.28125 53.078125 
z
" id="DejaVuSans-115"/>
      <path d="M 32.171875 -5.078125 
Q 28.375 -14.84375 24.75 -17.8125 
Q 21.140625 -20.796875 15.09375 -20.796875 
L 7.90625 -20.796875 
L 7.90625 -13.28125 
L 13.1875 -13.28125 
Q 16.890625 -13.28125 18.9375 -11.515625 
Q 21 -9.765625 23.484375 -3.21875 
L 25.09375 0.875 
L 2.984375 54.6875 
L 12.5 54.6875 
L 29.59375 11.921875 
L 46.6875 54.6875 
L 56.203125 54.6875 
z
" id="DejaVuSans-121"/>
      <path d="M 30.609375 48.390625 
Q 23.390625 48.390625 19.1875 42.75 
Q 14.984375 37.109375 14.984375 27.296875 
Q 14.984375 17.484375 19.15625 11.84375 
Q 23.34375 6.203125 30.609375 6.203125 
Q 37.796875 6.203125 41.984375 11.859375 
Q 46.1875 17.53125 46.1875 27.296875 
Q 46.1875 37.015625 41.984375 42.703125 
Q 37.796875 48.390625 30.609375 48.390625 
z
M 30.609375 56 
Q 42.328125 56 49.015625 48.375 
Q 55.71875 40.765625 55.71875 27.296875 
Q 55.71875 13.875 49.015625 6.21875 
Q 42.328125 -1.421875 30.609375 -1.421875 
Q 18.84375 -1.421875 12.171875 6.21875 
Q 5.515625 13.875 5.515625 27.296875 
Q 5.515625 40.765625 12.171875 48.375 
Q 18.84375 56 30.609375 56 
z
" id="DejaVuSans-111"/>
      <path d="M 37.109375 75.984375 
L 37.109375 68.5 
L 28.515625 68.5 
Q 23.6875 68.5 21.796875 66.546875 
Q 19.921875 64.59375 19.921875 59.515625 
L 19.921875 54.6875 
L 34.71875 54.6875 
L 34.71875 47.703125 
L 19.921875 47.703125 
L 19.921875 0 
L 10.890625 0 
L 10.890625 47.703125 
L 2.296875 47.703125 
L 2.296875 54.6875 
L 10.890625 54.6875 
L 10.890625 58.5 
Q 10.890625 67.625 15.140625 71.796875 
Q 19.390625 75.984375 28.609375 75.984375 
z
" id="DejaVuSans-102"/>
      <path d="M 41.109375 46.296875 
Q 39.59375 47.171875 37.8125 47.578125 
Q 36.03125 48 33.890625 48 
Q 26.265625 48 22.1875 43.046875 
Q 18.109375 38.09375 18.109375 28.8125 
L 18.109375 0 
L 9.078125 0 
L 9.078125 54.6875 
L 18.109375 54.6875 
L 18.109375 46.1875 
Q 20.953125 51.171875 25.484375 53.578125 
Q 30.03125 56 36.53125 56 
Q 37.453125 56 38.578125 55.875 
Q 39.703125 55.765625 41.0625 55.515625 
z
" id="DejaVuSans-114"/>
      <path d="M 18.109375 8.203125 
L 18.109375 -20.796875 
L 9.078125 -20.796875 
L 9.078125 54.6875 
L 18.109375 54.6875 
L 18.109375 46.390625 
Q 20.953125 51.265625 25.265625 53.625 
Q 29.59375 56 35.59375 56 
Q 45.5625 56 51.78125 48.09375 
Q 58.015625 40.1875 58.015625 27.296875 
Q 58.015625 14.40625 51.78125 6.484375 
Q 45.5625 -1.421875 35.59375 -1.421875 
Q 29.59375 -1.421875 25.265625 0.953125 
Q 20.953125 3.328125 18.109375 8.203125 
z
M 48.6875 27.296875 
Q 48.6875 37.203125 44.609375 42.84375 
Q 40.53125 48.484375 33.40625 48.484375 
Q 26.265625 48.484375 22.1875 42.84375 
Q 18.109375 37.203125 18.109375 27.296875 
Q 18.109375 17.390625 22.1875 11.75 
Q 26.265625 6.109375 33.40625 6.109375 
Q 40.53125 6.109375 44.609375 11.75 
Q 48.6875 17.390625 48.6875 27.296875 
z
" id="DejaVuSans-112"/>
      <path d="M 4.203125 54.6875 
L 13.1875 54.6875 
L 24.421875 12.015625 
L 35.59375 54.6875 
L 46.1875 54.6875 
L 57.421875 12.015625 
L 68.609375 54.6875 
L 77.59375 54.6875 
L 63.28125 0 
L 52.6875 0 
L 40.921875 44.828125 
L 29.109375 0 
L 18.5 0 
z
" id="DejaVuSans-119"/>
      <path d="M 45.40625 46.390625 
L 45.40625 75.984375 
L 54.390625 75.984375 
L 54.390625 0 
L 45.40625 0 
L 45.40625 8.203125 
Q 42.578125 3.328125 38.25 0.953125 
Q 33.9375 -1.421875 27.875 -1.421875 
Q 17.96875 -1.421875 11.734375 6.484375 
Q 5.515625 14.40625 5.515625 27.296875 
Q 5.515625 40.1875 11.734375 48.09375 
Q 17.96875 56 27.875 56 
Q 33.9375 56 38.25 53.625 
Q 42.578125 51.265625 45.40625 46.390625 
z
M 14.796875 27.296875 
Q 14.796875 17.390625 18.875 11.75 
Q 22.953125 6.109375 30.078125 6.109375 
Q 37.203125 6.109375 41.296875 11.75 
Q 45.40625 17.390625 45.40625 27.296875 
Q 45.40625 37.203125 41.296875 42.84375 
Q 37.203125 48.484375 30.078125 48.484375 
Q 22.953125 48.484375 18.875 42.84375 
Q 14.796875 37.203125 14.796875 27.296875 
z
" id="DejaVuSans-100"/>
     </defs>
     <use transform="translate(0 0.015625)" xlink:href="#DejaVuSans-67"/>
     <use transform="translate(69.824219 0.015625)" xlink:href="#DejaVuSans-79"/>
     <use transform="translate(149.492188 -16.390625)scale(0.7)" xlink:href="#DejaVuSans-50"/>
     <use transform="translate(196.762695 0.015625)" xlink:href="#DejaVuSans-101"/>
     <use transform="translate(258.286133 0.015625)" xlink:href="#DejaVuSans-32"/>
     <use transform="translate(290.073242 0.015625)" xlink:href="#DejaVuSans-105"/>
     <use transform="translate(317.856445 0.015625)" xlink:href="#DejaVuSans-110"/>
     <use transform="translate(381.235352 0.015625)" xlink:href="#DejaVuSans-116"/>
     <use transform="translate(420.444336 0.015625)" xlink:href="#DejaVuSans-101"/>
     <use transform="translate(481.967773 0.015625)" xlink:href="#DejaVuSans-110"/>
     <use transform="translate(545.34668 0.015625)" xlink:href="#DejaVuSans-115"/>
     <use transform="translate(597.446289 0.015625)" xlink:href="#DejaVuSans-105"/>
     <use transform="translate(625.229492 0.015625)" xlink:href="#DejaVuSans-116"/>
     <use transform="translate(664.438477 0.015625)" xlink:href="#DejaVuSans-121"/>
     <use transform="translate(723.618164 0.015625)" xlink:href="#DejaVuSans-32"/>
     <use transform="translate(755.405273 0.015625)" xlink:href="#DejaVuSans-111"/>
     <use transform="translate(816.586914 0.015625)" xlink:href="#DejaVuSans-102"/>
     <use transform="translate(851.791992 0.015625)" xlink:href="#DejaVuSans-32"/>
     <use transform="translate(883.579102 0.015625)" xlink:href="#DejaVuSans-116"/>
     <use transform="translate(922.788086 0.015625)" xlink:href="#DejaVuSans-104"/>
     <use transform="translate(986.166992 0.015625)" xlink:href="#DejaVuSans-101"/>
     <use transform="translate(1047.69043 0.015625)" xlink:href="#DejaVuSans-32"/>
     <use transform="translate(1079.477539 0.015625)" xlink:href="#DejaVuSans-79"/>
     <use transform="translate(1158.188477 0.015625)" xlink:href="#DejaVuSans-110"/>
     <use transform="translate(1221.567383 0.015625)" xlink:href="#DejaVuSans-116"/>
     <use transform="translate(1260.776367 0.015625)" xlink:href="#DejaVuSans-97"/>
     <use transform="translate(1322.055664 0.015625)" xlink:href="#DejaVuSans-114"/>
     <use transform="translate(1363.168945 0.015625)" xlink:href="#DejaVuSans-105"/>
     <use transform="translate(1390.952148 0.015625)" xlink:href="#DejaVuSans-111"/>
     <use transform="translate(1452.133789 0.015625)" xlink:href="#DejaVuSans-32"/>
     <use transform="translate(1483.920898 0.015625)" xlink:href="#DejaVuSans-112"/>
     <use transform="translate(1547.397461 0.015625)" xlink:href="#DejaVuSans-111"/>
     <use transform="translate(1608.579102 0.015625)" xlink:href="#DejaVuSans-119"/>
     <use transform="translate(1690.366211 0.015625)" xlink:href="#DejaVuSans-101"/>
     <use transform="translate(1751.889648 0.015625)" xlink:href="#DejaVuSans-114"/>
     <use transform="translate(1793.00293 0.015625)" xlink:href="#DejaVuSans-32"/>
     <use transform="translate(1824.790039 0.015625)" xlink:href="#DejaVuSans-103"/>
     <use transform="translate(1888.266602 0.015625)" xlink:href="#DejaVuSans-114"/>
     <use transform="translate(1929.379883 0.015625)" xlink:href="#DejaVuSans-105"/>
     <use transform="translate(1957.163086 0.015625)" xlink:href="#DejaVuSans-100"/>
     <use transform="translate(2020.639648 0.015625)" xlink:href="#DejaVuSans-32"/>
     <use transform="translate(2052.426758 0.015625)" xlink:href="#DejaVuSans-102"/>
     <use transform="translate(2087.631836 0.015625)" xlink:href="#DejaVuSans-111"/>
     <use transform="translate(2148.813477 0.015625)" xlink:href="#DejaVuSans-114"/>
     <use transform="translate(2189.926758 0.015625)" xlink:href="#DejaVuSans-32"/>
     <use transform="translate(2221.713867 0.015625)" xlink:href="#DejaVuSans-51"/>
     <use transform="translate(2285.336914 0.015625)" xlink:href="#DejaVuSans-48"/>
     <use transform="translate(2348.959961 0.015625)" xlink:href="#DejaVuSans-32"/>
     <use transform="translate(2380.74707 0.015625)" xlink:href="#DejaVuSans-100"/>
     <use transform="translate(2444.223633 0.015625)" xlink:href="#DejaVuSans-97"/>
     <use transform="translate(2505.50293 0.015625)" xlink:href="#DejaVuSans-121"/>
     <use transform="translate(2564.682617 0.015625)" xlink:href="#DejaVuSans-115"/>
     <use transform="translate(2616.782227 0.015625)" xlink:href="#DejaVuSans-32"/>
     <use transform="translate(2648.569336 0.015625)" xlink:href="#DejaVuSans-101"/>
     <use transform="translate(2710.092773 0.015625)" xlink:href="#DejaVuSans-110"/>
     <use transform="translate(2773.47168 0.015625)" xlink:href="#DejaVuSans-100"/>
     <use transform="translate(2836.948242 0.015625)" xlink:href="#DejaVuSans-105"/>
     <use transform="translate(2864.731445 0.015625)" xlink:href="#DejaVuSans-110"/>
     <use transform="translate(2928.110352 0.015625)" xlink:href="#DejaVuSans-103"/>
     <use transform="translate(2991.586914 0.015625)" xlink:href="#DejaVuSans-32"/>
     <use transform="translate(3023.374023 0.015625)" xlink:href="#DejaVuSans-111"/>
     <use transform="translate(3084.555664 0.015625)" xlink:href="#DejaVuSans-110"/>
     <use transform="translate(3147.93457 0.015625)" xlink:href="#DejaVuSans-32"/>
     <use transform="translate(3179.72168 0.015625)" xlink:href="#DejaVuSans-50"/>
     <use transform="translate(3243.344727 0.015625)" xlink:href="#DejaVuSans-48"/>
     <use transform="translate(3306.967773 0.015625)" xlink:href="#DejaVuSans-50"/>
     <use transform="translate(3370.59082 0.015625)" xlink:href="#DejaVuSans-51"/>
     <use transform="translate(3434.213867 0.015625)" xlink:href="#DejaVuSans-45"/>
     <use transform="translate(3470.297852 0.015625)" xlink:href="#DejaVuSans-48"/>
     <use transform="translate(3533.920898 0.015625)" xlink:href="#DejaVuSans-52"/>
     <use transform="translate(3597.543945 0.015625)" xlink:href="#DejaVuSans-45"/>
     <use transform="translate(3633.62793 0.015625)" xlink:href="#DejaVuSans-50"/>
     <use transform="translate(3697.250977 0.015625)" xlink:href="#DejaVuSans-52"/>
    </g>
   </g>
  </g>
 </g>
 <defs>
  <clipPath id="pad3857f168">
   <rect height="293.76" width="669.6" x="40.603125" y="22.32"/>
  </clipPath>
 </defs>
</svg>
