<?xml version="1.0" encoding="utf-8" standalone="no"?>
<!DOCTYPE svg PUBLIC "-//W3C//DTD SVG 1.1//EN"
  "http://www.w3.org/Graphics/SVG/1.1/DTD/svg11.dtd">
<!-- Created with matplotlib (https://matplotlib.org/) -->
<svg height="381.39744pt" version="1.1" viewBox="0 0 717.403125 381.39744" width="717.403125pt" xmlns="http://www.w3.org/2000/svg" xmlns:xlink="http://www.w3.org/1999/xlink">
 <metadata>
  <rdf:RDF xmlns:cc="http://creativecommons.org/ns#" xmlns:dc="http://purl.org/dc/elements/1.1/" xmlns:rdf="http://www.w3.org/1999/02/22-rdf-syntax-ns#">
   <cc:Work>
    <dc:type rdf:resource="http://purl.org/dc/dcmitype/StillImage"/>
    <dc:date>2023-04-27T16:31:29.958512</dc:date>
    <dc:format>image/svg+xml</dc:format>
    <dc:creator>
     <cc:Agent>
      <dc:title>Matplotlib v3.3.4, https://matplotlib.org/</dc:title>
     </cc:Agent>
    </dc:creator>
   </cc:Work>
  </rdf:RDF>
 </metadata>
 <defs>
  <style type="text/css">*{stroke-linecap:butt;stroke-linejoin:round;}</style>
 </defs>
 <g id="figure_1">
  <g id="patch_1">
   <path d="M 0 381.39744 
L 717.403125 381.39744 
L 717.403125 0 
L 0 0 
z
" style="fill:#ffffff;"/>
  </g>
  <g id="axes_1">
   <g id="patch_2">
    <path d="M 40.603125 316.08 
L 710.203125 316.08 
L 710.203125 22.32 
L 40.603125 22.32 
z
" style="fill:#ffffff;"/>
   </g>
   <g id="matplotlib.axis_1">
    <g id="xtick_1">
     <g id="line2d_1">
      <defs>
       <path d="M 0 0 
L 0 3.5 
" id="m69521a70f0" style="stroke:#000000;stroke-width:0.8;"/>
      </defs>
      <g>
       <use style="stroke:#000000;stroke-width:0.8;" x="93.764017" xlink:href="#m69521a70f0" y="316.08"/>
      </g>
     </g>
     <g id="text_1">
      <!-- 2023-03-08 -->
      <g transform="translate(42.394566 358.718252)rotate(-30)scale(0.1 -0.1)">
       <defs>
        <path d="M 19.1875 8.296875 
L 53.609375 8.296875 
L 53.609375 0 
L 7.328125 0 
L 7.328125 8.296875 
Q 12.9375 14.109375 22.625 23.890625 
Q 32.328125 33.6875 34.8125 36.53125 
Q 39.546875 41.84375 41.421875 45.53125 
Q 43.3125 49.21875 43.3125 52.78125 
Q 43.3125 58.59375 39.234375 62.25 
Q 35.15625 65.921875 28.609375 65.921875 
Q 23.96875 65.921875 18.8125 64.3125 
Q 13.671875 62.703125 7.8125 59.421875 
L 7.8125 69.390625 
Q 13.765625 71.78125 18.9375 73 
Q 24.125 74.21875 28.421875 74.21875 
Q 39.75 74.21875 46.484375 68.546875 
Q 53.21875 62.890625 53.21875 53.421875 
Q 53.21875 48.921875 51.53125 44.890625 
Q 49.859375 40.875 45.40625 35.40625 
Q 44.1875 33.984375 37.640625 27.21875 
Q 31.109375 20.453125 19.1875 8.296875 
z
" id="DejaVuSans-50"/>
        <path d="M 31.78125 66.40625 
Q 24.171875 66.40625 20.328125 58.90625 
Q 16.5 51.421875 16.5 36.375 
Q 16.5 21.390625 20.328125 13.890625 
Q 24.171875 6.390625 31.78125 6.390625 
Q 39.453125 6.390625 43.28125 13.890625 
Q 47.125 21.390625 47.125 36.375 
Q 47.125 51.421875 43.28125 58.90625 
Q 39.453125 66.40625 31.78125 66.40625 
z
M 31.78125 74.21875 
Q 44.046875 74.21875 50.515625 64.515625 
Q 56.984375 54.828125 56.984375 36.375 
Q 56.984375 17.96875 50.515625 8.265625 
Q 44.046875 -1.421875 31.78125 -1.421875 
Q 19.53125 -1.421875 13.0625 8.265625 
Q 6.59375 17.96875 6.59375 36.375 
Q 6.59375 54.828125 13.0625 64.515625 
Q 19.53125 74.21875 31.78125 74.21875 
z
" id="DejaVuSans-48"/>
        <path d="M 40.578125 39.3125 
Q 47.65625 37.796875 51.625 33 
Q 55.609375 28.21875 55.609375 21.1875 
Q 55.609375 10.40625 48.1875 4.484375 
Q 40.765625 -1.421875 27.09375 -1.421875 
Q 22.515625 -1.421875 17.65625 -0.515625 
Q 12.796875 0.390625 7.625 2.203125 
L 7.625 11.71875 
Q 11.71875 9.328125 16.59375 8.109375 
Q 21.484375 6.890625 26.8125 6.890625 
Q 36.078125 6.890625 40.9375 10.546875 
Q 45.796875 14.203125 45.796875 21.1875 
Q 45.796875 27.640625 41.28125 31.265625 
Q 36.765625 34.90625 28.71875 34.90625 
L 20.21875 34.90625 
L 20.21875 43.015625 
L 29.109375 43.015625 
Q 36.375 43.015625 40.234375 45.921875 
Q 44.09375 48.828125 44.09375 54.296875 
Q 44.09375 59.90625 40.109375 62.90625 
Q 36.140625 65.921875 28.71875 65.921875 
Q 24.65625 65.921875 20.015625 65.03125 
Q 15.375 64.15625 9.8125 62.3125 
L 9.8125 71.09375 
Q 15.4375 72.65625 20.34375 73.4375 
Q 25.25 74.21875 29.59375 74.21875 
Q 40.828125 74.21875 47.359375 69.109375 
Q 53.90625 64.015625 53.90625 55.328125 
Q 53.90625 49.265625 50.4375 45.09375 
Q 46.96875 40.921875 40.578125 39.3125 
z
" id="DejaVuSans-51"/>
        <path d="M 4.890625 31.390625 
L 31.203125 31.390625 
L 31.203125 23.390625 
L 4.890625 23.390625 
z
" id="DejaVuSans-45"/>
        <path d="M 31.78125 34.625 
Q 24.75 34.625 20.71875 30.859375 
Q 16.703125 27.09375 16.703125 20.515625 
Q 16.703125 13.921875 20.71875 10.15625 
Q 24.75 6.390625 31.78125 6.390625 
Q 38.8125 6.390625 42.859375 10.171875 
Q 46.921875 13.96875 46.921875 20.515625 
Q 46.921875 27.09375 42.890625 30.859375 
Q 38.875 34.625 31.78125 34.625 
z
M 21.921875 38.8125 
Q 15.578125 40.375 12.03125 44.71875 
Q 8.5 49.078125 8.5 55.328125 
Q 8.5 64.0625 14.71875 69.140625 
Q 20.953125 74.21875 31.78125 74.21875 
Q 42.671875 74.21875 48.875 69.140625 
Q 55.078125 64.0625 55.078125 55.328125 
Q 55.078125 49.078125 51.53125 44.71875 
Q 48 40.375 41.703125 38.8125 
Q 48.828125 37.15625 52.796875 32.3125 
Q 56.78125 27.484375 56.78125 20.515625 
Q 56.78125 9.90625 50.3125 4.234375 
Q 43.84375 -1.421875 31.78125 -1.421875 
Q 19.734375 -1.421875 13.25 4.234375 
Q 6.78125 9.90625 6.78125 20.515625 
Q 6.78125 27.484375 10.78125 32.3125 
Q 14.796875 37.15625 21.921875 38.8125 
z
M 18.3125 54.390625 
Q 18.3125 48.734375 21.84375 45.5625 
Q 25.390625 42.390625 31.78125 42.390625 
Q 38.140625 42.390625 41.71875 45.5625 
Q 45.3125 48.734375 45.3125 54.390625 
Q 45.3125 60.0625 41.71875 63.234375 
Q 38.140625 66.40625 31.78125 66.40625 
Q 25.390625 66.40625 21.84375 63.234375 
Q 18.3125 60.0625 18.3125 54.390625 
z
" id="DejaVuSans-56"/>
       </defs>
       <use xlink:href="#DejaVuSans-50"/>
       <use x="63.623047" xlink:href="#DejaVuSans-48"/>
       <use x="127.246094" xlink:href="#DejaVuSans-50"/>
       <use x="190.869141" xlink:href="#DejaVuSans-51"/>
       <use x="254.492188" xlink:href="#DejaVuSans-45"/>
       <use x="290.576172" xlink:href="#DejaVuSans-48"/>
       <use x="354.199219" xlink:href="#DejaVuSans-51"/>
       <use x="417.822266" xlink:href="#DejaVuSans-45"/>
       <use x="453.90625" xlink:href="#DejaVuSans-48"/>
       <use x="517.529297" xlink:href="#DejaVuSans-56"/>
      </g>
     </g>
    </g>
    <g id="xtick_2">
     <g id="line2d_2">
      <g>
       <use style="stroke:#000000;stroke-width:0.8;" x="174.992121" xlink:href="#m69521a70f0" y="316.08"/>
      </g>
     </g>
     <g id="text_2">
      <!-- 2023-03-15 -->
      <g transform="translate(123.622669 358.718252)rotate(-30)scale(0.1 -0.1)">
       <defs>
        <path d="M 12.40625 8.296875 
L 28.515625 8.296875 
L 28.515625 63.921875 
L 10.984375 60.40625 
L 10.984375 69.390625 
L 28.421875 72.90625 
L 38.28125 72.90625 
L 38.28125 8.296875 
L 54.390625 8.296875 
L 54.390625 0 
L 12.40625 0 
z
" id="DejaVuSans-49"/>
        <path d="M 10.796875 72.90625 
L 49.515625 72.90625 
L 49.515625 64.59375 
L 19.828125 64.59375 
L 19.828125 46.734375 
Q 21.96875 47.46875 24.109375 47.828125 
Q 26.265625 48.1875 28.421875 48.1875 
Q 40.625 48.1875 47.75 41.5 
Q 54.890625 34.8125 54.890625 23.390625 
Q 54.890625 11.625 47.5625 5.09375 
Q 40.234375 -1.421875 26.90625 -1.421875 
Q 22.3125 -1.421875 17.546875 -0.640625 
Q 12.796875 0.140625 7.71875 1.703125 
L 7.71875 11.625 
Q 12.109375 9.234375 16.796875 8.0625 
Q 21.484375 6.890625 26.703125 6.890625 
Q 35.15625 6.890625 40.078125 11.328125 
Q 45.015625 15.765625 45.015625 23.390625 
Q 45.015625 31 40.078125 35.4375 
Q 35.15625 39.890625 26.703125 39.890625 
Q 22.75 39.890625 18.8125 39.015625 
Q 14.890625 38.140625 10.796875 36.28125 
z
" id="DejaVuSans-53"/>
       </defs>
       <use xlink:href="#DejaVuSans-50"/>
       <use x="63.623047" xlink:href="#DejaVuSans-48"/>
       <use x="127.246094" xlink:href="#DejaVuSans-50"/>
       <use x="190.869141" xlink:href="#DejaVuSans-51"/>
       <use x="254.492188" xlink:href="#DejaVuSans-45"/>
       <use x="290.576172" xlink:href="#DejaVuSans-48"/>
       <use x="354.199219" xlink:href="#DejaVuSans-51"/>
       <use x="417.822266" xlink:href="#DejaVuSans-45"/>
       <use x="453.90625" xlink:href="#DejaVuSans-49"/>
       <use x="517.529297" xlink:href="#DejaVuSans-53"/>
      </g>
     </g>
    </g>
    <g id="xtick_3">
     <g id="line2d_3">
      <g>
       <use style="stroke:#000000;stroke-width:0.8;" x="256.220224" xlink:href="#m69521a70f0" y="316.08"/>
      </g>
     </g>
     <g id="text_3">
      <!-- 2023-03-22 -->
      <g transform="translate(204.850772 358.718252)rotate(-30)scale(0.1 -0.1)">
       <use xlink:href="#DejaVuSans-50"/>
       <use x="63.623047" xlink:href="#DejaVuSans-48"/>
       <use x="127.246094" xlink:href="#DejaVuSans-50"/>
       <use x="190.869141" xlink:href="#DejaVuSans-51"/>
       <use x="254.492188" xlink:href="#DejaVuSans-45"/>
       <use x="290.576172" xlink:href="#DejaVuSans-48"/>
       <use x="354.199219" xlink:href="#DejaVuSans-51"/>
       <use x="417.822266" xlink:href="#DejaVuSans-45"/>
       <use x="453.90625" xlink:href="#DejaVuSans-50"/>
       <use x="517.529297" xlink:href="#DejaVuSans-50"/>
      </g>
     </g>
    </g>
    <g id="xtick_4">
     <g id="line2d_4">
      <g>
       <use style="stroke:#000000;stroke-width:0.8;" x="372.260371" xlink:href="#m69521a70f0" y="316.08"/>
      </g>
     </g>
     <g id="text_4">
      <!-- 2023-04-01 -->
      <g transform="translate(320.89092 358.718252)rotate(-30)scale(0.1 -0.1)">
       <defs>
        <path d="M 37.796875 64.3125 
L 12.890625 25.390625 
L 37.796875 25.390625 
z
M 35.203125 72.90625 
L 47.609375 72.90625 
L 47.609375 25.390625 
L 58.015625 25.390625 
L 58.015625 17.1875 
L 47.609375 17.1875 
L 47.609375 0 
L 37.796875 0 
L 37.796875 17.1875 
L 4.890625 17.1875 
L 4.890625 26.703125 
z
" id="DejaVuSans-52"/>
       </defs>
       <use xlink:href="#DejaVuSans-50"/>
       <use x="63.623047" xlink:href="#DejaVuSans-48"/>
       <use x="127.246094" xlink:href="#DejaVuSans-50"/>
       <use x="190.869141" xlink:href="#DejaVuSans-51"/>
       <use x="254.492188" xlink:href="#DejaVuSans-45"/>
       <use x="290.576172" xlink:href="#DejaVuSans-48"/>
       <use x="354.199219" xlink:href="#DejaVuSans-52"/>
       <use x="417.822266" xlink:href="#DejaVuSans-45"/>
       <use x="453.90625" xlink:href="#DejaVuSans-48"/>
       <use x="517.529297" xlink:href="#DejaVuSans-49"/>
      </g>
     </g>
    </g>
    <g id="xtick_5">
     <g id="line2d_5">
      <g>
       <use style="stroke:#000000;stroke-width:0.8;" x="453.488474" xlink:href="#m69521a70f0" y="316.08"/>
      </g>
     </g>
     <g id="text_5">
      <!-- 2023-04-08 -->
      <g transform="translate(402.119023 358.718252)rotate(-30)scale(0.1 -0.1)">
       <use xlink:href="#DejaVuSans-50"/>
       <use x="63.623047" xlink:href="#DejaVuSans-48"/>
       <use x="127.246094" xlink:href="#DejaVuSans-50"/>
       <use x="190.869141" xlink:href="#DejaVuSans-51"/>
       <use x="254.492188" xlink:href="#DejaVuSans-45"/>
       <use x="290.576172" xlink:href="#DejaVuSans-48"/>
       <use x="354.199219" xlink:href="#DejaVuSans-52"/>
       <use x="417.822266" xlink:href="#DejaVuSans-45"/>
       <use x="453.90625" xlink:href="#DejaVuSans-48"/>
       <use x="517.529297" xlink:href="#DejaVuSans-56"/>
      </g>
     </g>
    </g>
    <g id="xtick_6">
     <g id="line2d_6">
      <g>
       <use style="stroke:#000000;stroke-width:0.8;" x="534.716577" xlink:href="#m69521a70f0" y="316.08"/>
      </g>
     </g>
     <g id="text_6">
      <!-- 2023-04-15 -->
      <g transform="translate(483.347126 358.718252)rotate(-30)scale(0.1 -0.1)">
       <use xlink:href="#DejaVuSans-50"/>
       <use x="63.623047" xlink:href="#DejaVuSans-48"/>
       <use x="127.246094" xlink:href="#DejaVuSans-50"/>
       <use x="190.869141" xlink:href="#DejaVuSans-51"/>
       <use x="254.492188" xlink:href="#DejaVuSans-45"/>
       <use x="290.576172" xlink:href="#DejaVuSans-48"/>
       <use x="354.199219" xlink:href="#DejaVuSans-52"/>
       <use x="417.822266" xlink:href="#DejaVuSans-45"/>
       <use x="453.90625" xlink:href="#DejaVuSans-49"/>
       <use x="517.529297" xlink:href="#DejaVuSans-53"/>
      </g>
     </g>
    </g>
    <g id="xtick_7">
     <g id="line2d_7">
      <g>
       <use style="stroke:#000000;stroke-width:0.8;" x="615.94468" xlink:href="#m69521a70f0" y="316.08"/>
      </g>
     </g>
     <g id="text_7">
      <!-- 2023-04-22 -->
      <g transform="translate(564.575229 358.718252)rotate(-30)scale(0.1 -0.1)">
       <use xlink:href="#DejaVuSans-50"/>
       <use x="63.623047" xlink:href="#DejaVuSans-48"/>
       <use x="127.246094" xlink:href="#DejaVuSans-50"/>
       <use x="190.869141" xlink:href="#DejaVuSans-51"/>
       <use x="254.492188" xlink:href="#DejaVuSans-45"/>
       <use x="290.576172" xlink:href="#DejaVuSans-48"/>
       <use x="354.199219" xlink:href="#DejaVuSans-52"/>
       <use x="417.822266" xlink:href="#DejaVuSans-45"/>
       <use x="453.90625" xlink:href="#DejaVuSans-50"/>
       <use x="517.529297" xlink:href="#DejaVuSans-50"/>
      </g>
     </g>
    </g>
    <g id="text_8">
     <!-- Date -->
     <g transform="translate(363.452344 372.117752)scale(0.1 -0.1)">
      <defs>
       <path d="M 19.671875 64.796875 
L 19.671875 8.109375 
L 31.59375 8.109375 
Q 46.6875 8.109375 53.6875 14.9375 
Q 60.6875 21.78125 60.6875 36.53125 
Q 60.6875 51.171875 53.6875 57.984375 
Q 46.6875 64.796875 31.59375 64.796875 
z
M 9.8125 72.90625 
L 30.078125 72.90625 
Q 51.265625 72.90625 61.171875 64.09375 
Q 71.09375 55.28125 71.09375 36.53125 
Q 71.09375 17.671875 61.125 8.828125 
Q 51.171875 0 30.078125 0 
L 9.8125 0 
z
" id="DejaVuSans-68"/>
       <path d="M 34.28125 27.484375 
Q 23.390625 27.484375 19.1875 25 
Q 14.984375 22.515625 14.984375 16.5 
Q 14.984375 11.71875 18.140625 8.90625 
Q 21.296875 6.109375 26.703125 6.109375 
Q 34.1875 6.109375 38.703125 11.40625 
Q 43.21875 16.703125 43.21875 25.484375 
L 43.21875 27.484375 
z
M 52.203125 31.203125 
L 52.203125 0 
L 43.21875 0 
L 43.21875 8.296875 
Q 40.140625 3.328125 35.546875 0.953125 
Q 30.953125 -1.421875 24.3125 -1.421875 
Q 15.921875 -1.421875 10.953125 3.296875 
Q 6 8.015625 6 15.921875 
Q 6 25.140625 12.171875 29.828125 
Q 18.359375 34.515625 30.609375 34.515625 
L 43.21875 34.515625 
L 43.21875 35.40625 
Q 43.21875 41.609375 39.140625 45 
Q 35.0625 48.390625 27.6875 48.390625 
Q 23 48.390625 18.546875 47.265625 
Q 14.109375 46.140625 10.015625 43.890625 
L 10.015625 52.203125 
Q 14.9375 54.109375 19.578125 55.046875 
Q 24.21875 56 28.609375 56 
Q 40.484375 56 46.34375 49.84375 
Q 52.203125 43.703125 52.203125 31.203125 
z
" id="DejaVuSans-97"/>
       <path d="M 18.3125 70.21875 
L 18.3125 54.6875 
L 36.8125 54.6875 
L 36.8125 47.703125 
L 18.3125 47.703125 
L 18.3125 18.015625 
Q 18.3125 11.328125 20.140625 9.421875 
Q 21.96875 7.515625 27.59375 7.515625 
L 36.8125 7.515625 
L 36.8125 0 
L 27.59375 0 
Q 17.1875 0 13.234375 3.875 
Q 9.28125 7.765625 9.28125 18.015625 
L 9.28125 47.703125 
L 2.6875 47.703125 
L 2.6875 54.6875 
L 9.28125 54.6875 
L 9.28125 70.21875 
z
" id="DejaVuSans-116"/>
       <path d="M 56.203125 29.59375 
L 56.203125 25.203125 
L 14.890625 25.203125 
Q 15.484375 15.921875 20.484375 11.0625 
Q 25.484375 6.203125 34.421875 6.203125 
Q 39.59375 6.203125 44.453125 7.46875 
Q 49.3125 8.734375 54.109375 11.28125 
L 54.109375 2.78125 
Q 49.265625 0.734375 44.1875 -0.34375 
Q 39.109375 -1.421875 33.890625 -1.421875 
Q 20.796875 -1.421875 13.15625 6.1875 
Q 5.515625 13.8125 5.515625 26.8125 
Q 5.515625 40.234375 12.765625 48.109375 
Q 20.015625 56 32.328125 56 
Q 43.359375 56 49.78125 48.890625 
Q 56.203125 41.796875 56.203125 29.59375 
z
M 47.21875 32.234375 
Q 47.125 39.59375 43.09375 43.984375 
Q 39.0625 48.390625 32.421875 48.390625 
Q 24.90625 48.390625 20.390625 44.140625 
Q 15.875 39.890625 15.1875 32.171875 
z
" id="DejaVuSans-101"/>
      </defs>
      <use xlink:href="#DejaVuSans-68"/>
      <use x="77.001953" xlink:href="#DejaVuSans-97"/>
      <use x="138.28125" xlink:href="#DejaVuSans-116"/>
      <use x="177.490234" xlink:href="#DejaVuSans-101"/>
     </g>
    </g>
   </g>
   <g id="matplotlib.axis_2">
    <g id="ytick_1">
     <g id="line2d_8">
      <defs>
       <path d="M 0 0 
L -3.5 0 
" id="m4aa6022aad" style="stroke:#000000;stroke-width:0.8;"/>
      </defs>
      <g>
       <use style="stroke:#000000;stroke-width:0.8;" x="40.603125" xlink:href="#m4aa6022aad" y="316.08"/>
      </g>
     </g>
     <g id="text_9">
      <!-- 0 -->
      <g transform="translate(27.240625 319.879219)scale(0.1 -0.1)">
       <use xlink:href="#DejaVuSans-48"/>
      </g>
     </g>
    </g>
    <g id="ytick_2">
     <g id="line2d_9">
      <g>
       <use style="stroke:#000000;stroke-width:0.8;" x="40.603125" xlink:href="#m4aa6022aad" y="282.679204"/>
      </g>
     </g>
     <g id="text_10">
      <!-- 10 -->
      <g transform="translate(20.878125 286.478423)scale(0.1 -0.1)">
       <use xlink:href="#DejaVuSans-49"/>
       <use x="63.623047" xlink:href="#DejaVuSans-48"/>
      </g>
     </g>
    </g>
    <g id="ytick_3">
     <g id="line2d_10">
      <g>
       <use style="stroke:#000000;stroke-width:0.8;" x="40.603125" xlink:href="#m4aa6022aad" y="249.278408"/>
      </g>
     </g>
     <g id="text_11">
      <!-- 20 -->
      <g transform="translate(20.878125 253.077627)scale(0.1 -0.1)">
       <use xlink:href="#DejaVuSans-50"/>
       <use x="63.623047" xlink:href="#DejaVuSans-48"/>
      </g>
     </g>
    </g>
    <g id="ytick_4">
     <g id="line2d_11">
      <g>
       <use style="stroke:#000000;stroke-width:0.8;" x="40.603125" xlink:href="#m4aa6022aad" y="215.877612"/>
      </g>
     </g>
     <g id="text_12">
      <!-- 30 -->
      <g transform="translate(20.878125 219.676831)scale(0.1 -0.1)">
       <use xlink:href="#DejaVuSans-51"/>
       <use x="63.623047" xlink:href="#DejaVuSans-48"/>
      </g>
     </g>
    </g>
    <g id="ytick_5">
     <g id="line2d_12">
      <g>
       <use style="stroke:#000000;stroke-width:0.8;" x="40.603125" xlink:href="#m4aa6022aad" y="182.476816"/>
      </g>
     </g>
     <g id="text_13">
      <!-- 40 -->
      <g transform="translate(20.878125 186.276035)scale(0.1 -0.1)">
       <use xlink:href="#DejaVuSans-52"/>
       <use x="63.623047" xlink:href="#DejaVuSans-48"/>
      </g>
     </g>
    </g>
    <g id="ytick_6">
     <g id="line2d_13">
      <g>
       <use style="stroke:#000000;stroke-width:0.8;" x="40.603125" xlink:href="#m4aa6022aad" y="149.07602"/>
      </g>
     </g>
     <g id="text_14">
      <!-- 50 -->
      <g transform="translate(20.878125 152.875239)scale(0.1 -0.1)">
       <use xlink:href="#DejaVuSans-53"/>
       <use x="63.623047" xlink:href="#DejaVuSans-48"/>
      </g>
     </g>
    </g>
    <g id="ytick_7">
     <g id="line2d_14">
      <g>
       <use style="stroke:#000000;stroke-width:0.8;" x="40.603125" xlink:href="#m4aa6022aad" y="115.675225"/>
      </g>
     </g>
     <g id="text_15">
      <!-- 60 -->
      <g transform="translate(20.878125 119.474443)scale(0.1 -0.1)">
       <defs>
        <path d="M 33.015625 40.375 
Q 26.375 40.375 22.484375 35.828125 
Q 18.609375 31.296875 18.609375 23.390625 
Q 18.609375 15.53125 22.484375 10.953125 
Q 26.375 6.390625 33.015625 6.390625 
Q 39.65625 6.390625 43.53125 10.953125 
Q 47.40625 15.53125 47.40625 23.390625 
Q 47.40625 31.296875 43.53125 35.828125 
Q 39.65625 40.375 33.015625 40.375 
z
M 52.59375 71.296875 
L 52.59375 62.3125 
Q 48.875 64.0625 45.09375 64.984375 
Q 41.3125 65.921875 37.59375 65.921875 
Q 27.828125 65.921875 22.671875 59.328125 
Q 17.53125 52.734375 16.796875 39.40625 
Q 19.671875 43.65625 24.015625 45.921875 
Q 28.375 48.1875 33.59375 48.1875 
Q 44.578125 48.1875 50.953125 41.515625 
Q 57.328125 34.859375 57.328125 23.390625 
Q 57.328125 12.15625 50.6875 5.359375 
Q 44.046875 -1.421875 33.015625 -1.421875 
Q 20.359375 -1.421875 13.671875 8.265625 
Q 6.984375 17.96875 6.984375 36.375 
Q 6.984375 53.65625 15.1875 63.9375 
Q 23.390625 74.21875 37.203125 74.21875 
Q 40.921875 74.21875 44.703125 73.484375 
Q 48.484375 72.75 52.59375 71.296875 
z
" id="DejaVuSans-54"/>
       </defs>
       <use xlink:href="#DejaVuSans-54"/>
       <use x="63.623047" xlink:href="#DejaVuSans-48"/>
      </g>
     </g>
    </g>
    <g id="ytick_8">
     <g id="line2d_15">
      <g>
       <use style="stroke:#000000;stroke-width:0.8;" x="40.603125" xlink:href="#m4aa6022aad" y="82.274429"/>
      </g>
     </g>
     <g id="text_16">
      <!-- 70 -->
      <g transform="translate(20.878125 86.073647)scale(0.1 -0.1)">
       <defs>
        <path d="M 8.203125 72.90625 
L 55.078125 72.90625 
L 55.078125 68.703125 
L 28.609375 0 
L 18.3125 0 
L 43.21875 64.59375 
L 8.203125 64.59375 
z
" id="DejaVuSans-55"/>
       </defs>
       <use xlink:href="#DejaVuSans-55"/>
       <use x="63.623047" xlink:href="#DejaVuSans-48"/>
      </g>
     </g>
    </g>
    <g id="ytick_9">
     <g id="line2d_16">
      <g>
       <use style="stroke:#000000;stroke-width:0.8;" x="40.603125" xlink:href="#m4aa6022aad" y="48.873633"/>
      </g>
     </g>
     <g id="text_17">
      <!-- 80 -->
      <g transform="translate(20.878125 52.672851)scale(0.1 -0.1)">
       <use xlink:href="#DejaVuSans-56"/>
       <use x="63.623047" xlink:href="#DejaVuSans-48"/>
      </g>
     </g>
    </g>
    <g id="text_18">
     <!-- g/kWh -->
     <g transform="translate(14.798438 185.066406)rotate(-90)scale(0.1 -0.1)">
      <defs>
       <path d="M 45.40625 27.984375 
Q 45.40625 37.75 41.375 43.109375 
Q 37.359375 48.484375 30.078125 48.484375 
Q 22.859375 48.484375 18.828125 43.109375 
Q 14.796875 37.75 14.796875 27.984375 
Q 14.796875 18.265625 18.828125 12.890625 
Q 22.859375 7.515625 30.078125 7.515625 
Q 37.359375 7.515625 41.375 12.890625 
Q 45.40625 18.265625 45.40625 27.984375 
z
M 54.390625 6.78125 
Q 54.390625 -7.171875 48.1875 -13.984375 
Q 42 -20.796875 29.203125 -20.796875 
Q 24.46875 -20.796875 20.265625 -20.09375 
Q 16.0625 -19.390625 12.109375 -17.921875 
L 12.109375 -9.1875 
Q 16.0625 -11.328125 19.921875 -12.34375 
Q 23.78125 -13.375 27.78125 -13.375 
Q 36.625 -13.375 41.015625 -8.765625 
Q 45.40625 -4.15625 45.40625 5.171875 
L 45.40625 9.625 
Q 42.625 4.78125 38.28125 2.390625 
Q 33.9375 0 27.875 0 
Q 17.828125 0 11.671875 7.65625 
Q 5.515625 15.328125 5.515625 27.984375 
Q 5.515625 40.671875 11.671875 48.328125 
Q 17.828125 56 27.875 56 
Q 33.9375 56 38.28125 53.609375 
Q 42.625 51.21875 45.40625 46.390625 
L 45.40625 54.6875 
L 54.390625 54.6875 
z
" id="DejaVuSans-103"/>
       <path d="M 25.390625 72.90625 
L 33.6875 72.90625 
L 8.296875 -9.28125 
L 0 -9.28125 
z
" id="DejaVuSans-47"/>
       <path d="M 9.078125 75.984375 
L 18.109375 75.984375 
L 18.109375 31.109375 
L 44.921875 54.6875 
L 56.390625 54.6875 
L 27.390625 29.109375 
L 57.625 0 
L 45.90625 0 
L 18.109375 26.703125 
L 18.109375 0 
L 9.078125 0 
z
" id="DejaVuSans-107"/>
       <path d="M 3.328125 72.90625 
L 13.28125 72.90625 
L 28.609375 11.28125 
L 43.890625 72.90625 
L 54.984375 72.90625 
L 70.3125 11.28125 
L 85.59375 72.90625 
L 95.609375 72.90625 
L 77.296875 0 
L 64.890625 0 
L 49.515625 63.28125 
L 33.984375 0 
L 21.578125 0 
z
" id="DejaVuSans-87"/>
       <path d="M 54.890625 33.015625 
L 54.890625 0 
L 45.90625 0 
L 45.90625 32.71875 
Q 45.90625 40.484375 42.875 44.328125 
Q 39.84375 48.1875 33.796875 48.1875 
Q 26.515625 48.1875 22.3125 43.546875 
Q 18.109375 38.921875 18.109375 30.90625 
L 18.109375 0 
L 9.078125 0 
L 9.078125 75.984375 
L 18.109375 75.984375 
L 18.109375 46.1875 
Q 21.34375 51.125 25.703125 53.5625 
Q 30.078125 56 35.796875 56 
Q 45.21875 56 50.046875 50.171875 
Q 54.890625 44.34375 54.890625 33.015625 
z
" id="DejaVuSans-104"/>
      </defs>
      <use xlink:href="#DejaVuSans-103"/>
      <use x="63.476562" xlink:href="#DejaVuSans-47"/>
      <use x="97.167969" xlink:href="#DejaVuSans-107"/>
      <use x="155.078125" xlink:href="#DejaVuSans-87"/>
      <use x="253.955078" xlink:href="#DejaVuSans-104"/>
     </g>
    </g>
   </g>
   <g id="line2d_17">
    <path clip-path="url(#p7f27de0c87)" d="M 71.039489 145.735941 
L 71.522989 162.436339 
L 72.00649 159.096259 
L 72.48999 162.436339 
L 72.973491 162.436339 
L 73.940492 182.476816 
L 74.423993 182.476816 
L 74.907494 175.796657 
L 75.390994 172.456578 
L 75.874495 212.537533 
L 76.357995 209.197453 
L 76.841496 225.897851 
L 77.324997 215.877612 
L 77.808497 219.217692 
L 78.291998 202.517294 
L 78.775498 202.517294 
L 79.258999 192.497055 
L 80.226 185.816896 
L 80.709501 185.816896 
L 81.193002 182.476816 
L 81.676502 245.938329 
L 82.160003 275.999045 
L 82.643503 292.699443 
L 83.127004 289.359363 
L 83.610505 275.999045 
L 84.094005 255.958567 
L 84.577506 242.598249 
L 85.061006 235.91809 
L 85.544507 232.57801 
L 86.028008 235.91809 
L 86.511508 222.557771 
L 86.995009 245.938329 
L 87.47851 249.278408 
L 88.445511 242.598249 
L 88.929011 232.57801 
L 89.412512 209.197453 
L 89.896013 222.557771 
L 90.379513 249.278408 
L 90.863014 252.618488 
L 91.830015 262.638727 
L 92.313516 255.958567 
L 92.797016 255.958567 
L 93.280517 289.359363 
L 93.764017 296.039522 
L 94.247518 296.039522 
L 94.731019 292.699443 
L 95.214519 286.019284 
L 95.69802 262.638727 
L 96.181521 262.638727 
L 96.665021 265.978806 
L 97.632022 259.298647 
L 98.115523 265.978806 
L 99.082524 296.039522 
L 99.566025 289.359363 
L 100.049525 272.658965 
L 101.016527 222.557771 
L 101.500027 212.537533 
L 101.983528 219.217692 
L 103.43403 229.237931 
L 103.91753 252.618488 
L 104.401031 262.638727 
L 104.884532 265.978806 
L 105.368032 252.618488 
L 105.851533 252.618488 
L 106.335033 232.57801 
L 106.818534 222.557771 
L 118.906049 269.318886 
L 119.38955 252.618488 
L 119.873051 249.278408 
L 120.840052 255.958567 
L 121.323552 245.938329 
L 121.807053 212.537533 
L 122.290554 209.197453 
L 122.774054 199.177214 
L 123.257555 215.877612 
L 123.741056 215.877612 
L 124.224556 205.857374 
L 124.708057 212.537533 
L 126.158559 212.537533 
L 126.642059 235.91809 
L 127.12556 249.278408 
L 127.60906 239.258169 
L 128.092561 252.618488 
L 128.576062 255.958567 
L 129.059562 252.618488 
L 129.543063 239.258169 
L 130.026564 249.278408 
L 130.993565 202.517294 
L 131.960566 202.517294 
L 132.444067 189.156976 
L 132.927567 165.776418 
L 133.411068 152.4161 
L 133.894568 135.715702 
L 134.378069 152.4161 
L 134.86157 119.015304 
L 135.34507 115.675225 
L 136.312071 122.355384 
L 136.795572 129.035543 
L 137.279073 108.995065 
L 138.246074 95.634747 
L 138.729575 119.015304 
L 139.213075 155.75618 
L 140.180076 175.796657 
L 141.147078 175.796657 
L 141.630578 169.116498 
L 142.114079 165.776418 
L 142.597579 169.116498 
L 143.08108 169.116498 
L 143.564581 165.776418 
L 144.048081 165.776418 
L 144.531582 172.456578 
L 145.015083 175.796657 
L 145.498583 175.796657 
L 145.982084 172.456578 
L 146.465584 162.436339 
L 146.949085 112.335145 
L 147.432586 102.314906 
L 147.916086 102.314906 
L 148.399587 115.675225 
L 148.883087 122.355384 
L 149.366588 125.695463 
L 149.850089 122.355384 
L 150.333589 122.355384 
L 150.81709 82.274429 
L 151.784091 165.776418 
L 152.267592 182.476816 
L 152.751092 185.816896 
L 153.234593 172.456578 
L 154.201594 98.974827 
L 154.685095 85.614508 
L 155.168595 35.513314 
L 155.652096 38.853394 
L 156.135597 35.513314 
L 156.619097 35.513314 
L 157.102598 38.853394 
L 157.586098 58.893872 
L 158.069599 65.574031 
L 158.5531 68.91411 
L 159.520101 122.355384 
L 160.003602 139.055782 
L 160.487102 142.395861 
L 160.970603 135.715702 
L 161.454103 139.055782 
L 162.421105 139.055782 
L 162.904605 155.75618 
L 163.871606 265.978806 
L 164.355107 259.298647 
L 164.838608 269.318886 
L 165.322108 262.638727 
L 165.805609 229.237931 
L 166.28911 225.897851 
L 166.77261 205.857374 
L 167.739611 179.136737 
L 168.223112 185.816896 
L 168.706613 215.877612 
L 169.190113 229.237931 
L 170.157114 215.877612 
L 171.607616 185.816896 
L 172.091117 195.837135 
L 172.574618 202.517294 
L 173.058118 185.816896 
L 173.541619 209.197453 
L 174.025119 222.557771 
L 174.50862 229.237931 
L 174.992121 255.958567 
L 175.959122 255.958567 
L 176.442622 242.598249 
L 176.926123 212.537533 
L 177.409624 172.456578 
L 177.893124 162.436339 
L 178.376625 119.015304 
L 178.860126 108.995065 
L 179.343626 115.675225 
L 179.827127 139.055782 
L 180.310627 179.136737 
L 180.794128 205.857374 
L 181.277629 195.837135 
L 181.761129 175.796657 
L 182.24463 169.116498 
L 184.178632 182.476816 
L 184.662133 182.476816 
L 185.145633 202.517294 
L 185.629134 245.938329 
L 186.112635 255.958567 
L 186.596135 255.958567 
L 187.079636 249.278408 
L 187.563137 255.958567 
L 188.046637 242.598249 
L 188.530138 225.897851 
L 189.013638 192.497055 
L 189.497139 179.136737 
L 189.98064 162.436339 
L 190.46414 162.436339 
L 190.947641 152.4161 
L 191.431141 169.116498 
L 191.914642 199.177214 
L 192.398143 202.517294 
L 192.881643 209.197453 
L 193.365144 199.177214 
L 193.848645 185.816896 
L 194.332145 152.4161 
L 195.299146 152.4161 
L 195.782647 155.75618 
L 196.266148 155.75618 
L 197.233149 262.638727 
L 197.716649 296.039522 
L 199.167151 296.039522 
L 199.650652 289.359363 
L 200.617653 262.638727 
L 201.101154 262.638727 
L 201.584654 265.978806 
L 202.068155 265.978806 
L 202.551656 269.318886 
L 203.035156 255.958567 
L 203.518657 239.258169 
L 204.002157 249.278408 
L 204.485658 262.638727 
L 204.969159 292.699443 
L 205.452659 299.379602 
L 206.41966 286.019284 
L 206.903161 282.679204 
L 208.353663 282.679204 
L 208.837164 279.339125 
L 209.320664 279.339125 
L 209.804165 292.699443 
L 210.287665 299.379602 
L 210.771166 299.379602 
L 211.254667 289.359363 
L 211.738167 296.039522 
L 212.221668 299.379602 
L 215.122672 299.379602 
L 215.606172 296.039522 
L 216.089673 289.359363 
L 216.573173 299.379602 
L 222.858681 299.379602 
L 223.342182 292.699443 
L 223.825683 292.699443 
L 224.309183 282.679204 
L 228.660689 282.679204 
L 229.62769 269.318886 
L 230.111191 265.978806 
L 230.594691 265.978806 
L 231.078192 269.318886 
L 231.561692 265.978806 
L 232.045193 265.978806 
L 232.528694 275.999045 
L 233.012194 289.359363 
L 234.462696 289.359363 
L 234.946197 286.019284 
L 235.429697 279.339125 
L 235.913198 275.999045 
L 236.880199 262.638727 
L 237.3637 269.318886 
L 237.8472 265.978806 
L 238.330701 265.978806 
L 238.814202 279.339125 
L 239.297702 279.339125 
L 239.781203 272.658965 
L 240.264703 272.658965 
L 240.748204 269.318886 
L 241.231705 262.638727 
L 241.715205 265.978806 
L 242.198706 265.978806 
L 242.682207 279.339125 
L 243.165707 286.019284 
L 243.649208 279.339125 
L 244.132708 269.318886 
L 244.616209 262.638727 
L 245.09971 282.679204 
L 245.58321 279.339125 
L 246.066711 272.658965 
L 246.550211 252.618488 
L 247.033712 222.557771 
L 248.000713 108.995065 
L 248.484214 95.634747 
L 248.967715 139.055782 
L 249.451215 139.055782 
L 249.934716 142.395861 
L 250.418216 182.476816 
L 250.901717 209.197453 
L 251.868718 179.136737 
L 252.352219 175.796657 
L 252.835719 162.436339 
L 253.31922 169.116498 
L 254.286221 162.436339 
L 254.769722 172.456578 
L 255.253222 212.537533 
L 255.736723 272.658965 
L 256.220224 282.679204 
L 256.703724 286.019284 
L 257.670726 286.019284 
L 258.154226 275.999045 
L 258.637727 249.278408 
L 259.121227 172.456578 
L 259.604728 142.395861 
L 260.088229 145.735941 
L 260.571729 155.75618 
L 261.05523 155.75618 
L 261.53873 165.776418 
L 262.022231 205.857374 
L 262.505732 229.237931 
L 262.989232 222.557771 
L 263.472733 229.237931 
L 263.956234 215.877612 
L 264.439734 212.537533 
L 264.923235 239.258169 
L 265.406735 242.598249 
L 265.890236 242.598249 
L 266.373737 245.938329 
L 266.857237 289.359363 
L 267.340738 299.379602 
L 269.27474 299.379602 
L 269.758241 282.679204 
L 270.241742 259.298647 
L 270.725242 219.217692 
L 271.208743 165.776418 
L 271.692243 172.456578 
L 272.175744 189.156976 
L 272.659245 192.497055 
L 273.142745 175.796657 
L 273.626246 179.136737 
L 274.109746 199.177214 
L 274.593247 209.197453 
L 275.076748 205.857374 
L 275.560248 195.837135 
L 276.043749 169.116498 
L 276.527249 169.116498 
L 277.01075 159.096259 
L 277.494251 135.715702 
L 277.977751 162.436339 
L 278.944753 235.91809 
L 279.428253 239.258169 
L 279.911754 249.278408 
L 280.395254 249.278408 
L 281.362256 189.156976 
L 281.845756 132.375623 
L 282.329257 125.695463 
L 282.812757 105.654986 
L 283.296258 98.974827 
L 283.779759 108.995065 
L 284.263259 135.715702 
L 284.74676 139.055782 
L 285.230261 159.096259 
L 285.713761 162.436339 
L 286.197262 149.07602 
L 286.680762 155.75618 
L 287.164263 172.456578 
L 287.647764 155.75618 
L 288.131264 169.116498 
L 288.614765 162.436339 
L 289.581766 169.116498 
L 290.548767 229.237931 
L 291.032268 289.359363 
L 291.515769 299.379602 
L 294.900273 299.379602 
L 295.383773 292.699443 
L 295.867274 265.978806 
L 296.350775 245.938329 
L 296.834275 262.638727 
L 297.801276 282.679204 
L 298.284777 272.658965 
L 298.768278 269.318886 
L 299.251778 259.298647 
L 299.735279 269.318886 
L 300.21878 299.379602 
L 303.119783 299.379602 
L 305.053786 296.039522 
L 305.537286 289.359363 
L 306.020787 286.019284 
L 306.987788 282.679204 
L 307.471289 279.339125 
L 307.954789 279.339125 
L 308.43829 275.999045 
L 308.921791 252.618488 
L 309.888792 165.776418 
L 310.372292 155.75618 
L 310.855793 159.096259 
L 312.306295 159.096259 
L 312.789796 172.456578 
L 313.273296 209.197453 
L 313.756797 215.877612 
L 314.240297 215.877612 
L 314.723798 212.537533 
L 315.207299 215.877612 
L 315.690799 205.857374 
L 316.6578 165.776418 
L 317.141301 129.035543 
L 318.108302 122.355384 
L 318.591803 82.274429 
L 319.075303 55.553792 
L 319.558804 58.893872 
L 320.042305 65.574031 
L 320.525805 68.91411 
L 321.009306 78.934349 
L 321.492807 95.634747 
L 321.976307 125.695463 
L 322.459808 102.314906 
L 322.943308 92.294667 
L 323.426809 62.233951 
L 323.91031 68.91411 
L 324.39381 78.934349 
L 324.877311 129.035543 
L 325.360811 145.735941 
L 325.844312 169.116498 
L 326.327813 179.136737 
L 326.811313 162.436339 
L 327.294814 122.355384 
L 327.778315 112.335145 
L 328.261815 55.553792 
L 328.745316 55.553792 
L 329.228816 52.213712 
L 329.712317 58.893872 
L 330.195818 72.25419 
L 330.679318 95.634747 
L 331.162819 112.335145 
L 331.646319 139.055782 
L 332.12982 108.995065 
L 332.613321 119.015304 
L 333.096821 135.715702 
L 333.580322 122.355384 
L 334.063823 119.015304 
L 334.547323 129.035543 
L 335.030824 129.035543 
L 335.997825 135.715702 
L 336.481326 172.456578 
L 337.448327 209.197453 
L 337.931827 215.877612 
L 338.415328 215.877612 
L 338.898829 205.857374 
L 339.382329 185.816896 
L 339.86583 159.096259 
L 340.349331 172.456578 
L 340.832831 179.136737 
L 341.799832 205.857374 
L 342.766834 245.938329 
L 343.250334 259.298647 
L 343.733835 259.298647 
L 345.184337 229.237931 
L 345.667837 215.877612 
L 346.634838 209.197453 
L 347.118339 185.816896 
L 347.60184 155.75618 
L 348.08534 165.776418 
L 349.052342 215.877612 
L 349.535842 209.197453 
L 350.019343 192.497055 
L 350.502843 169.116498 
L 351.469845 82.274429 
L 351.953345 52.213712 
L 352.436846 48.873633 
L 352.920346 52.213712 
L 353.403847 92.294667 
L 353.887348 115.675225 
L 354.370848 179.136737 
L 354.854349 199.177214 
L 355.33785 199.177214 
L 355.82135 202.517294 
L 356.304851 189.156976 
L 357.271852 155.75618 
L 357.755353 155.75618 
L 358.238853 152.4161 
L 358.722354 132.375623 
L 359.205854 139.055782 
L 359.689355 162.436339 
L 360.656356 232.57801 
L 361.139857 259.298647 
L 361.623358 265.978806 
L 362.106858 262.638727 
L 363.073859 205.857374 
L 363.55736 212.537533 
L 364.040861 212.537533 
L 364.524361 215.877612 
L 365.007862 215.877612 
L 365.491362 219.217692 
L 365.974863 205.857374 
L 366.458364 205.857374 
L 366.941864 245.938329 
L 367.425365 249.278408 
L 367.908865 255.958567 
L 368.392366 215.877612 
L 368.875867 222.557771 
L 369.359367 262.638727 
L 369.842868 275.999045 
L 370.326369 275.999045 
L 370.809869 292.699443 
L 371.29337 296.039522 
L 373.227372 296.039522 
L 373.710873 299.379602 
L 376.611877 299.379602 
L 377.095377 292.699443 
L 377.578878 269.318886 
L 378.545879 282.679204 
L 379.02938 296.039522 
L 379.51288 296.039522 
L 379.996381 299.379602 
L 383.864386 299.379602 
L 384.831387 265.978806 
L 385.314888 282.679204 
L 385.798388 282.679204 
L 386.281889 269.318886 
L 386.765389 242.598249 
L 387.24889 225.897851 
L 387.732391 245.938329 
L 388.215891 259.298647 
L 388.699392 255.958567 
L 389.182892 255.958567 
L 389.666393 286.019284 
L 390.149894 286.019284 
L 390.633394 259.298647 
L 391.116895 219.217692 
L 393.050897 219.217692 
L 393.534398 222.557771 
L 394.017899 219.217692 
L 394.501399 272.658965 
L 394.9849 282.679204 
L 395.4684 286.019284 
L 395.951901 299.379602 
L 396.435402 292.699443 
L 396.918902 296.039522 
L 397.885904 296.039522 
L 398.369404 286.019284 
L 398.852905 262.638727 
L 399.336405 269.318886 
L 612.076675 242.598249 
L 612.560176 232.57801 
L 613.043677 229.237931 
L 613.527177 229.237931 
L 614.010678 225.897851 
L 614.494179 219.217692 
L 614.977679 229.237931 
L 615.46118 229.237931 
L 615.94468 225.897851 
L 616.428181 272.658965 
L 616.911682 289.359363 
L 617.395182 282.679204 
L 618.362183 262.638727 
L 619.329185 262.638727 
L 619.812685 265.978806 
L 620.296186 239.258169 
L 621.263187 225.897851 
L 621.746688 229.237931 
L 622.713689 222.557771 
L 623.19719 215.877612 
L 645.438218 175.796657 
L 645.921718 179.136737 
L 646.405219 162.436339 
L 646.88872 155.75618 
L 647.37222 165.776418 
L 647.855721 172.456578 
L 648.339221 169.116498 
L 648.822722 159.096259 
L 649.306223 169.116498 
L 649.789723 172.456578 
L 650.756725 259.298647 
L 651.240225 262.638727 
L 651.723726 262.638727 
L 652.207226 255.958567 
L 652.690727 225.897851 
L 653.174228 179.136737 
L 653.657728 162.436339 
L 654.141229 139.055782 
L 654.624729 159.096259 
L 655.10823 169.116498 
L 655.591731 172.456578 
L 656.075231 195.837135 
L 656.558732 199.177214 
L 657.042233 199.177214 
L 658.009234 169.116498 
L 658.492734 172.456578 
L 658.976235 172.456578 
L 659.459736 165.776418 
L 661.877239 182.476816 
L 662.360739 219.217692 
L 662.84424 245.938329 
L 663.32774 249.278408 
L 663.811241 229.237931 
L 664.294742 195.837135 
L 664.778242 182.476816 
L 665.261743 172.456578 
L 665.745244 122.355384 
L 666.228744 122.355384 
L 666.712245 132.375623 
L 667.679246 145.735941 
L 668.162747 149.07602 
L 671.547251 129.035543 
L 677.832759 169.116498 
L 678.79976 172.456578 
L 679.766761 165.776418 
L 679.766761 165.776418 
" style="fill:none;stroke:#88bde6;stroke-linecap:square;stroke-width:1.5;"/>
   </g>
   <g id="patch_3">
    <path d="M 40.603125 316.08 
L 40.603125 22.32 
" style="fill:none;stroke:#000000;stroke-linecap:square;stroke-linejoin:miter;stroke-width:0.8;"/>
   </g>
   <g id="patch_4">
    <path d="M 710.203125 316.08 
L 710.203125 22.32 
" style="fill:none;stroke:#000000;stroke-linecap:square;stroke-linejoin:miter;stroke-width:0.8;"/>
   </g>
   <g id="patch_5">
    <path d="M 40.603125 316.08 
L 710.203125 316.08 
" style="fill:none;stroke:#000000;stroke-linecap:square;stroke-linejoin:miter;stroke-width:0.8;"/>
   </g>
   <g id="patch_6">
    <path d="M 40.603125 22.32 
L 710.203125 22.32 
" style="fill:none;stroke:#000000;stroke-linecap:square;stroke-linejoin:miter;stroke-width:0.8;"/>
   </g>
   <g id="text_19">
    <!-- CO$_2$e intensity of the Ontario power grid for 30 days ending on 2023-04-27 -->
    <g transform="translate(149.743125 16.32)scale(0.12 -0.12)">
     <defs>
      <path d="M 64.40625 67.28125 
L 64.40625 56.890625 
Q 59.421875 61.53125 53.78125 63.8125 
Q 48.140625 66.109375 41.796875 66.109375 
Q 29.296875 66.109375 22.65625 58.46875 
Q 16.015625 50.828125 16.015625 36.375 
Q 16.015625 21.96875 22.65625 14.328125 
Q 29.296875 6.6875 41.796875 6.6875 
Q 48.140625 6.6875 53.78125 8.984375 
Q 59.421875 11.28125 64.40625 15.921875 
L 64.40625 5.609375 
Q 59.234375 2.09375 53.4375 0.328125 
Q 47.65625 -1.421875 41.21875 -1.421875 
Q 24.65625 -1.421875 15.125 8.703125 
Q 5.609375 18.84375 5.609375 36.375 
Q 5.609375 53.953125 15.125 64.078125 
Q 24.65625 74.21875 41.21875 74.21875 
Q 47.75 74.21875 53.53125 72.484375 
Q 59.328125 70.75 64.40625 67.28125 
z
" id="DejaVuSans-67"/>
      <path d="M 39.40625 66.21875 
Q 28.65625 66.21875 22.328125 58.203125 
Q 16.015625 50.203125 16.015625 36.375 
Q 16.015625 22.609375 22.328125 14.59375 
Q 28.65625 6.59375 39.40625 6.59375 
Q 50.140625 6.59375 56.421875 14.59375 
Q 62.703125 22.609375 62.703125 36.375 
Q 62.703125 50.203125 56.421875 58.203125 
Q 50.140625 66.21875 39.40625 66.21875 
z
M 39.40625 74.21875 
Q 54.734375 74.21875 63.90625 63.9375 
Q 73.09375 53.65625 73.09375 36.375 
Q 73.09375 19.140625 63.90625 8.859375 
Q 54.734375 -1.421875 39.40625 -1.421875 
Q 24.03125 -1.421875 14.8125 8.828125 
Q 5.609375 19.09375 5.609375 36.375 
Q 5.609375 53.65625 14.8125 63.9375 
Q 24.03125 74.21875 39.40625 74.21875 
z
" id="DejaVuSans-79"/>
      <path id="DejaVuSans-32"/>
      <path d="M 9.421875 54.6875 
L 18.40625 54.6875 
L 18.40625 0 
L 9.421875 0 
z
M 9.421875 75.984375 
L 18.40625 75.984375 
L 18.40625 64.59375 
L 9.421875 64.59375 
z
" id="DejaVuSans-105"/>
      <path d="M 54.890625 33.015625 
L 54.890625 0 
L 45.90625 0 
L 45.90625 32.71875 
Q 45.90625 40.484375 42.875 44.328125 
Q 39.84375 48.1875 33.796875 48.1875 
Q 26.515625 48.1875 22.3125 43.546875 
Q 18.109375 38.921875 18.109375 30.90625 
L 18.109375 0 
L 9.078125 0 
L 9.078125 54.6875 
L 18.109375 54.6875 
L 18.109375 46.1875 
Q 21.34375 51.125 25.703125 53.5625 
Q 30.078125 56 35.796875 56 
Q 45.21875 56 50.046875 50.171875 
Q 54.890625 44.34375 54.890625 33.015625 
z
" id="DejaVuSans-110"/>
      <path d="M 44.28125 53.078125 
L 44.28125 44.578125 
Q 40.484375 46.53125 36.375 47.5 
Q 32.28125 48.484375 27.875 48.484375 
Q 21.1875 48.484375 17.84375 46.4375 
Q 14.5 44.390625 14.5 40.28125 
Q 14.5 37.15625 16.890625 35.375 
Q 19.28125 33.59375 26.515625 31.984375 
L 29.59375 31.296875 
Q 39.15625 29.25 43.1875 25.515625 
Q 47.21875 21.78125 47.21875 15.09375 
Q 47.21875 7.46875 41.1875 3.015625 
Q 35.15625 -1.421875 24.609375 -1.421875 
Q 20.21875 -1.421875 15.453125 -0.5625 
Q 10.6875 0.296875 5.421875 2 
L 5.421875 11.28125 
Q 10.40625 8.6875 15.234375 7.390625 
Q 20.0625 6.109375 24.8125 6.109375 
Q 31.15625 6.109375 34.5625 8.28125 
Q 37.984375 10.453125 37.984375 14.40625 
Q 37.984375 18.0625 35.515625 20.015625 
Q 33.0625 21.96875 24.703125 23.78125 
L 21.578125 24.515625 
Q 13.234375 26.265625 9.515625 29.90625 
Q 5.8125 33.546875 5.8125 39.890625 
Q 5.8125 47.609375 11.28125 51.796875 
Q 16.75 56 26.8125 56 
Q 31.78125 56 36.171875 55.265625 
Q 40.578125 54.546875 44.28125 53.078125 
z
" id="DejaVuSans-115"/>
      <path d="M 32.171875 -5.078125 
Q 28.375 -14.84375 24.75 -17.8125 
Q 21.140625 -20.796875 15.09375 -20.796875 
L 7.90625 -20.796875 
L 7.90625 -13.28125 
L 13.1875 -13.28125 
Q 16.890625 -13.28125 18.9375 -11.515625 
Q 21 -9.765625 23.484375 -3.21875 
L 25.09375 0.875 
L 2.984375 54.6875 
L 12.5 54.6875 
L 29.59375 11.921875 
L 46.6875 54.6875 
L 56.203125 54.6875 
z
" id="DejaVuSans-121"/>
      <path d="M 30.609375 48.390625 
Q 23.390625 48.390625 19.1875 42.75 
Q 14.984375 37.109375 14.984375 27.296875 
Q 14.984375 17.484375 19.15625 11.84375 
Q 23.34375 6.203125 30.609375 6.203125 
Q 37.796875 6.203125 41.984375 11.859375 
Q 46.1875 17.53125 46.1875 27.296875 
Q 46.1875 37.015625 41.984375 42.703125 
Q 37.796875 48.390625 30.609375 48.390625 
z
M 30.609375 56 
Q 42.328125 56 49.015625 48.375 
Q 55.71875 40.765625 55.71875 27.296875 
Q 55.71875 13.875 49.015625 6.21875 
Q 42.328125 -1.421875 30.609375 -1.421875 
Q 18.84375 -1.421875 12.171875 6.21875 
Q 5.515625 13.875 5.515625 27.296875 
Q 5.515625 40.765625 12.171875 48.375 
Q 18.84375 56 30.609375 56 
z
" id="DejaVuSans-111"/>
      <path d="M 37.109375 75.984375 
L 37.109375 68.5 
L 28.515625 68.5 
Q 23.6875 68.5 21.796875 66.546875 
Q 19.921875 64.59375 19.921875 59.515625 
L 19.921875 54.6875 
L 34.71875 54.6875 
L 34.71875 47.703125 
L 19.921875 47.703125 
L 19.921875 0 
L 10.890625 0 
L 10.890625 47.703125 
L 2.296875 47.703125 
L 2.296875 54.6875 
L 10.890625 54.6875 
L 10.890625 58.5 
Q 10.890625 67.625 15.140625 71.796875 
Q 19.390625 75.984375 28.609375 75.984375 
z
" id="DejaVuSans-102"/>
      <path d="M 41.109375 46.296875 
Q 39.59375 47.171875 37.8125 47.578125 
Q 36.03125 48 33.890625 48 
Q 26.265625 48 22.1875 43.046875 
Q 18.109375 38.09375 18.109375 28.8125 
L 18.109375 0 
L 9.078125 0 
L 9.078125 54.6875 
L 18.109375 54.6875 
L 18.109375 46.1875 
Q 20.953125 51.171875 25.484375 53.578125 
Q 30.03125 56 36.53125 56 
Q 37.453125 56 38.578125 55.875 
Q 39.703125 55.765625 41.0625 55.515625 
z
" id="DejaVuSans-114"/>
      <path d="M 18.109375 8.203125 
L 18.109375 -20.796875 
L 9.078125 -20.796875 
L 9.078125 54.6875 
L 18.109375 54.6875 
L 18.109375 46.390625 
Q 20.953125 51.265625 25.265625 53.625 
Q 29.59375 56 35.59375 56 
Q 45.5625 56 51.78125 48.09375 
Q 58.015625 40.1875 58.015625 27.296875 
Q 58.015625 14.40625 51.78125 6.484375 
Q 45.5625 -1.421875 35.59375 -1.421875 
Q 29.59375 -1.421875 25.265625 0.953125 
Q 20.953125 3.328125 18.109375 8.203125 
z
M 48.6875 27.296875 
Q 48.6875 37.203125 44.609375 42.84375 
Q 40.53125 48.484375 33.40625 48.484375 
Q 26.265625 48.484375 22.1875 42.84375 
Q 18.109375 37.203125 18.109375 27.296875 
Q 18.109375 17.390625 22.1875 11.75 
Q 26.265625 6.109375 33.40625 6.109375 
Q 40.53125 6.109375 44.609375 11.75 
Q 48.6875 17.390625 48.6875 27.296875 
z
" id="DejaVuSans-112"/>
      <path d="M 4.203125 54.6875 
L 13.1875 54.6875 
L 24.421875 12.015625 
L 35.59375 54.6875 
L 46.1875 54.6875 
L 57.421875 12.015625 
L 68.609375 54.6875 
L 77.59375 54.6875 
L 63.28125 0 
L 52.6875 0 
L 40.921875 44.828125 
L 29.109375 0 
L 18.5 0 
z
" id="DejaVuSans-119"/>
      <path d="M 45.40625 46.390625 
L 45.40625 75.984375 
L 54.390625 75.984375 
L 54.390625 0 
L 45.40625 0 
L 45.40625 8.203125 
Q 42.578125 3.328125 38.25 0.953125 
Q 33.9375 -1.421875 27.875 -1.421875 
Q 17.96875 -1.421875 11.734375 6.484375 
Q 5.515625 14.40625 5.515625 27.296875 
Q 5.515625 40.1875 11.734375 48.09375 
Q 17.96875 56 27.875 56 
Q 33.9375 56 38.25 53.625 
Q 42.578125 51.265625 45.40625 46.390625 
z
M 14.796875 27.296875 
Q 14.796875 17.390625 18.875 11.75 
Q 22.953125 6.109375 30.078125 6.109375 
Q 37.203125 6.109375 41.296875 11.75 
Q 45.40625 17.390625 45.40625 27.296875 
Q 45.40625 37.203125 41.296875 42.84375 
Q 37.203125 48.484375 30.078125 48.484375 
Q 22.953125 48.484375 18.875 42.84375 
Q 14.796875 37.203125 14.796875 27.296875 
z
" id="DejaVuSans-100"/>
     </defs>
     <use transform="translate(0 0.015625)" xlink:href="#DejaVuSans-67"/>
     <use transform="translate(69.824219 0.015625)" xlink:href="#DejaVuSans-79"/>
     <use transform="translate(149.492188 -16.390625)scale(0.7)" xlink:href="#DejaVuSans-50"/>
     <use transform="translate(196.762695 0.015625)" xlink:href="#DejaVuSans-101"/>
     <use transform="translate(258.286133 0.015625)" xlink:href="#DejaVuSans-32"/>
     <use transform="translate(290.073242 0.015625)" xlink:href="#DejaVuSans-105"/>
     <use transform="translate(317.856445 0.015625)" xlink:href="#DejaVuSans-110"/>
     <use transform="translate(381.235352 0.015625)" xlink:href="#DejaVuSans-116"/>
     <use transform="translate(420.444336 0.015625)" xlink:href="#DejaVuSans-101"/>
     <use transform="translate(481.967773 0.015625)" xlink:href="#DejaVuSans-110"/>
     <use transform="translate(545.34668 0.015625)" xlink:href="#DejaVuSans-115"/>
     <use transform="translate(597.446289 0.015625)" xlink:href="#DejaVuSans-105"/>
     <use transform="translate(625.229492 0.015625)" xlink:href="#DejaVuSans-116"/>
     <use transform="translate(664.438477 0.015625)" xlink:href="#DejaVuSans-121"/>
     <use transform="translate(723.618164 0.015625)" xlink:href="#DejaVuSans-32"/>
     <use transform="translate(755.405273 0.015625)" xlink:href="#DejaVuSans-111"/>
     <use transform="translate(816.586914 0.015625)" xlink:href="#DejaVuSans-102"/>
     <use transform="translate(851.791992 0.015625)" xlink:href="#DejaVuSans-32"/>
     <use transform="translate(883.579102 0.015625)" xlink:href="#DejaVuSans-116"/>
     <use transform="translate(922.788086 0.015625)" xlink:href="#DejaVuSans-104"/>
     <use transform="translate(986.166992 0.015625)" xlink:href="#DejaVuSans-101"/>
     <use transform="translate(1047.69043 0.015625)" xlink:href="#DejaVuSans-32"/>
     <use transform="translate(1079.477539 0.015625)" xlink:href="#DejaVuSans-79"/>
     <use transform="translate(1158.188477 0.015625)" xlink:href="#DejaVuSans-110"/>
     <use transform="translate(1221.567383 0.015625)" xlink:href="#DejaVuSans-116"/>
     <use transform="translate(1260.776367 0.015625)" xlink:href="#DejaVuSans-97"/>
     <use transform="translate(1322.055664 0.015625)" xlink:href="#DejaVuSans-114"/>
     <use transform="translate(1363.168945 0.015625)" xlink:href="#DejaVuSans-105"/>
     <use transform="translate(1390.952148 0.015625)" xlink:href="#DejaVuSans-111"/>
     <use transform="translate(1452.133789 0.015625)" xlink:href="#DejaVuSans-32"/>
     <use transform="translate(1483.920898 0.015625)" xlink:href="#DejaVuSans-112"/>
     <use transform="translate(1547.397461 0.015625)" xlink:href="#DejaVuSans-111"/>
     <use transform="translate(1608.579102 0.015625)" xlink:href="#DejaVuSans-119"/>
     <use transform="translate(1690.366211 0.015625)" xlink:href="#DejaVuSans-101"/>
     <use transform="translate(1751.889648 0.015625)" xlink:href="#DejaVuSans-114"/>
     <use transform="translate(1793.00293 0.015625)" xlink:href="#DejaVuSans-32"/>
     <use transform="translate(1824.790039 0.015625)" xlink:href="#DejaVuSans-103"/>
     <use transform="translate(1888.266602 0.015625)" xlink:href="#DejaVuSans-114"/>
     <use transform="translate(1929.379883 0.015625)" xlink:href="#DejaVuSans-105"/>
     <use transform="translate(1957.163086 0.015625)" xlink:href="#DejaVuSans-100"/>
     <use transform="translate(2020.639648 0.015625)" xlink:href="#DejaVuSans-32"/>
     <use transform="translate(2052.426758 0.015625)" xlink:href="#DejaVuSans-102"/>
     <use transform="translate(2087.631836 0.015625)" xlink:href="#DejaVuSans-111"/>
     <use transform="translate(2148.813477 0.015625)" xlink:href="#DejaVuSans-114"/>
     <use transform="translate(2189.926758 0.015625)" xlink:href="#DejaVuSans-32"/>
     <use transform="translate(2221.713867 0.015625)" xlink:href="#DejaVuSans-51"/>
     <use transform="translate(2285.336914 0.015625)" xlink:href="#DejaVuSans-48"/>
     <use transform="translate(2348.959961 0.015625)" xlink:href="#DejaVuSans-32"/>
     <use transform="translate(2380.74707 0.015625)" xlink:href="#DejaVuSans-100"/>
     <use transform="translate(2444.223633 0.015625)" xlink:href="#DejaVuSans-97"/>
     <use transform="translate(2505.50293 0.015625)" xlink:href="#DejaVuSans-121"/>
     <use transform="translate(2564.682617 0.015625)" xlink:href="#DejaVuSans-115"/>
     <use transform="translate(2616.782227 0.015625)" xlink:href="#DejaVuSans-32"/>
     <use transform="translate(2648.569336 0.015625)" xlink:href="#DejaVuSans-101"/>
     <use transform="translate(2710.092773 0.015625)" xlink:href="#DejaVuSans-110"/>
     <use transform="translate(2773.47168 0.015625)" xlink:href="#DejaVuSans-100"/>
     <use transform="translate(2836.948242 0.015625)" xlink:href="#DejaVuSans-105"/>
     <use transform="translate(2864.731445 0.015625)" xlink:href="#DejaVuSans-110"/>
     <use transform="translate(2928.110352 0.015625)" xlink:href="#DejaVuSans-103"/>
     <use transform="translate(2991.586914 0.015625)" xlink:href="#DejaVuSans-32"/>
     <use transform="translate(3023.374023 0.015625)" xlink:href="#DejaVuSans-111"/>
     <use transform="translate(3084.555664 0.015625)" xlink:href="#DejaVuSans-110"/>
     <use transform="translate(3147.93457 0.015625)" xlink:href="#DejaVuSans-32"/>
     <use transform="translate(3179.72168 0.015625)" xlink:href="#DejaVuSans-50"/>
     <use transform="translate(3243.344727 0.015625)" xlink:href="#DejaVuSans-48"/>
     <use transform="translate(3306.967773 0.015625)" xlink:href="#DejaVuSans-50"/>
     <use transform="translate(3370.59082 0.015625)" xlink:href="#DejaVuSans-51"/>
     <use transform="translate(3434.213867 0.015625)" xlink:href="#DejaVuSans-45"/>
     <use transform="translate(3470.297852 0.015625)" xlink:href="#DejaVuSans-48"/>
     <use transform="translate(3533.920898 0.015625)" xlink:href="#DejaVuSans-52"/>
     <use transform="translate(3597.543945 0.015625)" xlink:href="#DejaVuSans-45"/>
     <use transform="translate(3633.62793 0.015625)" xlink:href="#DejaVuSans-50"/>
     <use transform="translate(3697.250977 0.015625)" xlink:href="#DejaVuSans-55"/>
    </g>
   </g>
  </g>
 </g>
 <defs>
  <clipPath id="p7f27de0c87">
   <rect height="293.76" width="669.6" x="40.603125" y="22.32"/>
  </clipPath>
 </defs>
</svg>
