<?xml version="1.0" encoding="utf-8" standalone="no"?>
<!DOCTYPE svg PUBLIC "-//W3C//DTD SVG 1.1//EN"
  "http://www.w3.org/Graphics/SVG/1.1/DTD/svg11.dtd">
<!-- Created with matplotlib (https://matplotlib.org/) -->
<svg height="381.39744pt" version="1.1" viewBox="0 0 717.403125 381.39744" width="717.403125pt" xmlns="http://www.w3.org/2000/svg" xmlns:xlink="http://www.w3.org/1999/xlink">
 <metadata>
  <rdf:RDF xmlns:cc="http://creativecommons.org/ns#" xmlns:dc="http://purl.org/dc/elements/1.1/" xmlns:rdf="http://www.w3.org/1999/02/22-rdf-syntax-ns#">
   <cc:Work>
    <dc:type rdf:resource="http://purl.org/dc/dcmitype/StillImage"/>
    <dc:date>2023-04-25T20:06:46.469002</dc:date>
    <dc:format>image/svg+xml</dc:format>
    <dc:creator>
     <cc:Agent>
      <dc:title>Matplotlib v3.3.4, https://matplotlib.org/</dc:title>
     </cc:Agent>
    </dc:creator>
   </cc:Work>
  </rdf:RDF>
 </metadata>
 <defs>
  <style type="text/css">*{stroke-linecap:butt;stroke-linejoin:round;}</style>
 </defs>
 <g id="figure_1">
  <g id="patch_1">
   <path d="M 0 381.39744 
L 717.403125 381.39744 
L 717.403125 0 
L 0 0 
z
" style="fill:#ffffff;"/>
  </g>
  <g id="axes_1">
   <g id="patch_2">
    <path d="M 40.603125 316.08 
L 710.203125 316.08 
L 710.203125 22.32 
L 40.603125 22.32 
z
" style="fill:#ffffff;"/>
   </g>
   <g id="matplotlib.axis_1">
    <g id="xtick_1">
     <g id="line2d_1">
      <defs>
       <path d="M 0 0 
L 0 3.5 
" id="me849349d97" style="stroke:#000000;stroke-width:0.8;"/>
      </defs>
      <g>
       <use style="stroke:#000000;stroke-width:0.8;" x="104.475235" xlink:href="#me849349d97" y="316.08"/>
      </g>
     </g>
     <g id="text_1">
      <!-- 2023-03-08 -->
      <g transform="translate(53.105784 358.718252)rotate(-30)scale(0.1 -0.1)">
       <defs>
        <path d="M 19.1875 8.296875 
L 53.609375 8.296875 
L 53.609375 0 
L 7.328125 0 
L 7.328125 8.296875 
Q 12.9375 14.109375 22.625 23.890625 
Q 32.328125 33.6875 34.8125 36.53125 
Q 39.546875 41.84375 41.421875 45.53125 
Q 43.3125 49.21875 43.3125 52.78125 
Q 43.3125 58.59375 39.234375 62.25 
Q 35.15625 65.921875 28.609375 65.921875 
Q 23.96875 65.921875 18.8125 64.3125 
Q 13.671875 62.703125 7.8125 59.421875 
L 7.8125 69.390625 
Q 13.765625 71.78125 18.9375 73 
Q 24.125 74.21875 28.421875 74.21875 
Q 39.75 74.21875 46.484375 68.546875 
Q 53.21875 62.890625 53.21875 53.421875 
Q 53.21875 48.921875 51.53125 44.890625 
Q 49.859375 40.875 45.40625 35.40625 
Q 44.1875 33.984375 37.640625 27.21875 
Q 31.109375 20.453125 19.1875 8.296875 
z
" id="DejaVuSans-50"/>
        <path d="M 31.78125 66.40625 
Q 24.171875 66.40625 20.328125 58.90625 
Q 16.5 51.421875 16.5 36.375 
Q 16.5 21.390625 20.328125 13.890625 
Q 24.171875 6.390625 31.78125 6.390625 
Q 39.453125 6.390625 43.28125 13.890625 
Q 47.125 21.390625 47.125 36.375 
Q 47.125 51.421875 43.28125 58.90625 
Q 39.453125 66.40625 31.78125 66.40625 
z
M 31.78125 74.21875 
Q 44.046875 74.21875 50.515625 64.515625 
Q 56.984375 54.828125 56.984375 36.375 
Q 56.984375 17.96875 50.515625 8.265625 
Q 44.046875 -1.421875 31.78125 -1.421875 
Q 19.53125 -1.421875 13.0625 8.265625 
Q 6.59375 17.96875 6.59375 36.375 
Q 6.59375 54.828125 13.0625 64.515625 
Q 19.53125 74.21875 31.78125 74.21875 
z
" id="DejaVuSans-48"/>
        <path d="M 40.578125 39.3125 
Q 47.65625 37.796875 51.625 33 
Q 55.609375 28.21875 55.609375 21.1875 
Q 55.609375 10.40625 48.1875 4.484375 
Q 40.765625 -1.421875 27.09375 -1.421875 
Q 22.515625 -1.421875 17.65625 -0.515625 
Q 12.796875 0.390625 7.625 2.203125 
L 7.625 11.71875 
Q 11.71875 9.328125 16.59375 8.109375 
Q 21.484375 6.890625 26.8125 6.890625 
Q 36.078125 6.890625 40.9375 10.546875 
Q 45.796875 14.203125 45.796875 21.1875 
Q 45.796875 27.640625 41.28125 31.265625 
Q 36.765625 34.90625 28.71875 34.90625 
L 20.21875 34.90625 
L 20.21875 43.015625 
L 29.109375 43.015625 
Q 36.375 43.015625 40.234375 45.921875 
Q 44.09375 48.828125 44.09375 54.296875 
Q 44.09375 59.90625 40.109375 62.90625 
Q 36.140625 65.921875 28.71875 65.921875 
Q 24.65625 65.921875 20.015625 65.03125 
Q 15.375 64.15625 9.8125 62.3125 
L 9.8125 71.09375 
Q 15.4375 72.65625 20.34375 73.4375 
Q 25.25 74.21875 29.59375 74.21875 
Q 40.828125 74.21875 47.359375 69.109375 
Q 53.90625 64.015625 53.90625 55.328125 
Q 53.90625 49.265625 50.4375 45.09375 
Q 46.96875 40.921875 40.578125 39.3125 
z
" id="DejaVuSans-51"/>
        <path d="M 4.890625 31.390625 
L 31.203125 31.390625 
L 31.203125 23.390625 
L 4.890625 23.390625 
z
" id="DejaVuSans-45"/>
        <path d="M 31.78125 34.625 
Q 24.75 34.625 20.71875 30.859375 
Q 16.703125 27.09375 16.703125 20.515625 
Q 16.703125 13.921875 20.71875 10.15625 
Q 24.75 6.390625 31.78125 6.390625 
Q 38.8125 6.390625 42.859375 10.171875 
Q 46.921875 13.96875 46.921875 20.515625 
Q 46.921875 27.09375 42.890625 30.859375 
Q 38.875 34.625 31.78125 34.625 
z
M 21.921875 38.8125 
Q 15.578125 40.375 12.03125 44.71875 
Q 8.5 49.078125 8.5 55.328125 
Q 8.5 64.0625 14.71875 69.140625 
Q 20.953125 74.21875 31.78125 74.21875 
Q 42.671875 74.21875 48.875 69.140625 
Q 55.078125 64.0625 55.078125 55.328125 
Q 55.078125 49.078125 51.53125 44.71875 
Q 48 40.375 41.703125 38.8125 
Q 48.828125 37.15625 52.796875 32.3125 
Q 56.78125 27.484375 56.78125 20.515625 
Q 56.78125 9.90625 50.3125 4.234375 
Q 43.84375 -1.421875 31.78125 -1.421875 
Q 19.734375 -1.421875 13.25 4.234375 
Q 6.78125 9.90625 6.78125 20.515625 
Q 6.78125 27.484375 10.78125 32.3125 
Q 14.796875 37.15625 21.921875 38.8125 
z
M 18.3125 54.390625 
Q 18.3125 48.734375 21.84375 45.5625 
Q 25.390625 42.390625 31.78125 42.390625 
Q 38.140625 42.390625 41.71875 45.5625 
Q 45.3125 48.734375 45.3125 54.390625 
Q 45.3125 60.0625 41.71875 63.234375 
Q 38.140625 66.40625 31.78125 66.40625 
Q 25.390625 66.40625 21.84375 63.234375 
Q 18.3125 60.0625 18.3125 54.390625 
z
" id="DejaVuSans-56"/>
       </defs>
       <use xlink:href="#DejaVuSans-50"/>
       <use x="63.623047" xlink:href="#DejaVuSans-48"/>
       <use x="127.246094" xlink:href="#DejaVuSans-50"/>
       <use x="190.869141" xlink:href="#DejaVuSans-51"/>
       <use x="254.492188" xlink:href="#DejaVuSans-45"/>
       <use x="290.576172" xlink:href="#DejaVuSans-48"/>
       <use x="354.199219" xlink:href="#DejaVuSans-51"/>
       <use x="417.822266" xlink:href="#DejaVuSans-45"/>
       <use x="453.90625" xlink:href="#DejaVuSans-48"/>
       <use x="517.529297" xlink:href="#DejaVuSans-56"/>
      </g>
     </g>
    </g>
    <g id="xtick_2">
     <g id="line2d_2">
      <g>
       <use style="stroke:#000000;stroke-width:0.8;" x="187.081198" xlink:href="#me849349d97" y="316.08"/>
      </g>
     </g>
     <g id="text_2">
      <!-- 2023-03-15 -->
      <g transform="translate(135.711747 358.718252)rotate(-30)scale(0.1 -0.1)">
       <defs>
        <path d="M 12.40625 8.296875 
L 28.515625 8.296875 
L 28.515625 63.921875 
L 10.984375 60.40625 
L 10.984375 69.390625 
L 28.421875 72.90625 
L 38.28125 72.90625 
L 38.28125 8.296875 
L 54.390625 8.296875 
L 54.390625 0 
L 12.40625 0 
z
" id="DejaVuSans-49"/>
        <path d="M 10.796875 72.90625 
L 49.515625 72.90625 
L 49.515625 64.59375 
L 19.828125 64.59375 
L 19.828125 46.734375 
Q 21.96875 47.46875 24.109375 47.828125 
Q 26.265625 48.1875 28.421875 48.1875 
Q 40.625 48.1875 47.75 41.5 
Q 54.890625 34.8125 54.890625 23.390625 
Q 54.890625 11.625 47.5625 5.09375 
Q 40.234375 -1.421875 26.90625 -1.421875 
Q 22.3125 -1.421875 17.546875 -0.640625 
Q 12.796875 0.140625 7.71875 1.703125 
L 7.71875 11.625 
Q 12.109375 9.234375 16.796875 8.0625 
Q 21.484375 6.890625 26.703125 6.890625 
Q 35.15625 6.890625 40.078125 11.328125 
Q 45.015625 15.765625 45.015625 23.390625 
Q 45.015625 31 40.078125 35.4375 
Q 35.15625 39.890625 26.703125 39.890625 
Q 22.75 39.890625 18.8125 39.015625 
Q 14.890625 38.140625 10.796875 36.28125 
z
" id="DejaVuSans-53"/>
       </defs>
       <use xlink:href="#DejaVuSans-50"/>
       <use x="63.623047" xlink:href="#DejaVuSans-48"/>
       <use x="127.246094" xlink:href="#DejaVuSans-50"/>
       <use x="190.869141" xlink:href="#DejaVuSans-51"/>
       <use x="254.492188" xlink:href="#DejaVuSans-45"/>
       <use x="290.576172" xlink:href="#DejaVuSans-48"/>
       <use x="354.199219" xlink:href="#DejaVuSans-51"/>
       <use x="417.822266" xlink:href="#DejaVuSans-45"/>
       <use x="453.90625" xlink:href="#DejaVuSans-49"/>
       <use x="517.529297" xlink:href="#DejaVuSans-53"/>
      </g>
     </g>
    </g>
    <g id="xtick_3">
     <g id="line2d_3">
      <g>
       <use style="stroke:#000000;stroke-width:0.8;" x="269.687161" xlink:href="#me849349d97" y="316.08"/>
      </g>
     </g>
     <g id="text_3">
      <!-- 2023-03-22 -->
      <g transform="translate(218.317709 358.718252)rotate(-30)scale(0.1 -0.1)">
       <use xlink:href="#DejaVuSans-50"/>
       <use x="63.623047" xlink:href="#DejaVuSans-48"/>
       <use x="127.246094" xlink:href="#DejaVuSans-50"/>
       <use x="190.869141" xlink:href="#DejaVuSans-51"/>
       <use x="254.492188" xlink:href="#DejaVuSans-45"/>
       <use x="290.576172" xlink:href="#DejaVuSans-48"/>
       <use x="354.199219" xlink:href="#DejaVuSans-51"/>
       <use x="417.822266" xlink:href="#DejaVuSans-45"/>
       <use x="453.90625" xlink:href="#DejaVuSans-50"/>
       <use x="517.529297" xlink:href="#DejaVuSans-50"/>
      </g>
     </g>
    </g>
    <g id="xtick_4">
     <g id="line2d_4">
      <g>
       <use style="stroke:#000000;stroke-width:0.8;" x="387.695679" xlink:href="#me849349d97" y="316.08"/>
      </g>
     </g>
     <g id="text_4">
      <!-- 2023-04-01 -->
      <g transform="translate(336.326228 358.718252)rotate(-30)scale(0.1 -0.1)">
       <defs>
        <path d="M 37.796875 64.3125 
L 12.890625 25.390625 
L 37.796875 25.390625 
z
M 35.203125 72.90625 
L 47.609375 72.90625 
L 47.609375 25.390625 
L 58.015625 25.390625 
L 58.015625 17.1875 
L 47.609375 17.1875 
L 47.609375 0 
L 37.796875 0 
L 37.796875 17.1875 
L 4.890625 17.1875 
L 4.890625 26.703125 
z
" id="DejaVuSans-52"/>
       </defs>
       <use xlink:href="#DejaVuSans-50"/>
       <use x="63.623047" xlink:href="#DejaVuSans-48"/>
       <use x="127.246094" xlink:href="#DejaVuSans-50"/>
       <use x="190.869141" xlink:href="#DejaVuSans-51"/>
       <use x="254.492188" xlink:href="#DejaVuSans-45"/>
       <use x="290.576172" xlink:href="#DejaVuSans-48"/>
       <use x="354.199219" xlink:href="#DejaVuSans-52"/>
       <use x="417.822266" xlink:href="#DejaVuSans-45"/>
       <use x="453.90625" xlink:href="#DejaVuSans-48"/>
       <use x="517.529297" xlink:href="#DejaVuSans-49"/>
      </g>
     </g>
    </g>
    <g id="xtick_5">
     <g id="line2d_5">
      <g>
       <use style="stroke:#000000;stroke-width:0.8;" x="470.301642" xlink:href="#me849349d97" y="316.08"/>
      </g>
     </g>
     <g id="text_5">
      <!-- 2023-04-08 -->
      <g transform="translate(418.93219 358.718252)rotate(-30)scale(0.1 -0.1)">
       <use xlink:href="#DejaVuSans-50"/>
       <use x="63.623047" xlink:href="#DejaVuSans-48"/>
       <use x="127.246094" xlink:href="#DejaVuSans-50"/>
       <use x="190.869141" xlink:href="#DejaVuSans-51"/>
       <use x="254.492188" xlink:href="#DejaVuSans-45"/>
       <use x="290.576172" xlink:href="#DejaVuSans-48"/>
       <use x="354.199219" xlink:href="#DejaVuSans-52"/>
       <use x="417.822266" xlink:href="#DejaVuSans-45"/>
       <use x="453.90625" xlink:href="#DejaVuSans-48"/>
       <use x="517.529297" xlink:href="#DejaVuSans-56"/>
      </g>
     </g>
    </g>
    <g id="xtick_6">
     <g id="line2d_6">
      <g>
       <use style="stroke:#000000;stroke-width:0.8;" x="552.907604" xlink:href="#me849349d97" y="316.08"/>
      </g>
     </g>
     <g id="text_6">
      <!-- 2023-04-15 -->
      <g transform="translate(501.538153 358.718252)rotate(-30)scale(0.1 -0.1)">
       <use xlink:href="#DejaVuSans-50"/>
       <use x="63.623047" xlink:href="#DejaVuSans-48"/>
       <use x="127.246094" xlink:href="#DejaVuSans-50"/>
       <use x="190.869141" xlink:href="#DejaVuSans-51"/>
       <use x="254.492188" xlink:href="#DejaVuSans-45"/>
       <use x="290.576172" xlink:href="#DejaVuSans-48"/>
       <use x="354.199219" xlink:href="#DejaVuSans-52"/>
       <use x="417.822266" xlink:href="#DejaVuSans-45"/>
       <use x="453.90625" xlink:href="#DejaVuSans-49"/>
       <use x="517.529297" xlink:href="#DejaVuSans-53"/>
      </g>
     </g>
    </g>
    <g id="xtick_7">
     <g id="line2d_7">
      <g>
       <use style="stroke:#000000;stroke-width:0.8;" x="635.513567" xlink:href="#me849349d97" y="316.08"/>
      </g>
     </g>
     <g id="text_7">
      <!-- 2023-04-22 -->
      <g transform="translate(584.144116 358.718252)rotate(-30)scale(0.1 -0.1)">
       <use xlink:href="#DejaVuSans-50"/>
       <use x="63.623047" xlink:href="#DejaVuSans-48"/>
       <use x="127.246094" xlink:href="#DejaVuSans-50"/>
       <use x="190.869141" xlink:href="#DejaVuSans-51"/>
       <use x="254.492188" xlink:href="#DejaVuSans-45"/>
       <use x="290.576172" xlink:href="#DejaVuSans-48"/>
       <use x="354.199219" xlink:href="#DejaVuSans-52"/>
       <use x="417.822266" xlink:href="#DejaVuSans-45"/>
       <use x="453.90625" xlink:href="#DejaVuSans-50"/>
       <use x="517.529297" xlink:href="#DejaVuSans-50"/>
      </g>
     </g>
    </g>
    <g id="text_8">
     <!-- Date -->
     <g transform="translate(363.452344 372.117752)scale(0.1 -0.1)">
      <defs>
       <path d="M 19.671875 64.796875 
L 19.671875 8.109375 
L 31.59375 8.109375 
Q 46.6875 8.109375 53.6875 14.9375 
Q 60.6875 21.78125 60.6875 36.53125 
Q 60.6875 51.171875 53.6875 57.984375 
Q 46.6875 64.796875 31.59375 64.796875 
z
M 9.8125 72.90625 
L 30.078125 72.90625 
Q 51.265625 72.90625 61.171875 64.09375 
Q 71.09375 55.28125 71.09375 36.53125 
Q 71.09375 17.671875 61.125 8.828125 
Q 51.171875 0 30.078125 0 
L 9.8125 0 
z
" id="DejaVuSans-68"/>
       <path d="M 34.28125 27.484375 
Q 23.390625 27.484375 19.1875 25 
Q 14.984375 22.515625 14.984375 16.5 
Q 14.984375 11.71875 18.140625 8.90625 
Q 21.296875 6.109375 26.703125 6.109375 
Q 34.1875 6.109375 38.703125 11.40625 
Q 43.21875 16.703125 43.21875 25.484375 
L 43.21875 27.484375 
z
M 52.203125 31.203125 
L 52.203125 0 
L 43.21875 0 
L 43.21875 8.296875 
Q 40.140625 3.328125 35.546875 0.953125 
Q 30.953125 -1.421875 24.3125 -1.421875 
Q 15.921875 -1.421875 10.953125 3.296875 
Q 6 8.015625 6 15.921875 
Q 6 25.140625 12.171875 29.828125 
Q 18.359375 34.515625 30.609375 34.515625 
L 43.21875 34.515625 
L 43.21875 35.40625 
Q 43.21875 41.609375 39.140625 45 
Q 35.0625 48.390625 27.6875 48.390625 
Q 23 48.390625 18.546875 47.265625 
Q 14.109375 46.140625 10.015625 43.890625 
L 10.015625 52.203125 
Q 14.9375 54.109375 19.578125 55.046875 
Q 24.21875 56 28.609375 56 
Q 40.484375 56 46.34375 49.84375 
Q 52.203125 43.703125 52.203125 31.203125 
z
" id="DejaVuSans-97"/>
       <path d="M 18.3125 70.21875 
L 18.3125 54.6875 
L 36.8125 54.6875 
L 36.8125 47.703125 
L 18.3125 47.703125 
L 18.3125 18.015625 
Q 18.3125 11.328125 20.140625 9.421875 
Q 21.96875 7.515625 27.59375 7.515625 
L 36.8125 7.515625 
L 36.8125 0 
L 27.59375 0 
Q 17.1875 0 13.234375 3.875 
Q 9.28125 7.765625 9.28125 18.015625 
L 9.28125 47.703125 
L 2.6875 47.703125 
L 2.6875 54.6875 
L 9.28125 54.6875 
L 9.28125 70.21875 
z
" id="DejaVuSans-116"/>
       <path d="M 56.203125 29.59375 
L 56.203125 25.203125 
L 14.890625 25.203125 
Q 15.484375 15.921875 20.484375 11.0625 
Q 25.484375 6.203125 34.421875 6.203125 
Q 39.59375 6.203125 44.453125 7.46875 
Q 49.3125 8.734375 54.109375 11.28125 
L 54.109375 2.78125 
Q 49.265625 0.734375 44.1875 -0.34375 
Q 39.109375 -1.421875 33.890625 -1.421875 
Q 20.796875 -1.421875 13.15625 6.1875 
Q 5.515625 13.8125 5.515625 26.8125 
Q 5.515625 40.234375 12.765625 48.109375 
Q 20.015625 56 32.328125 56 
Q 43.359375 56 49.78125 48.890625 
Q 56.203125 41.796875 56.203125 29.59375 
z
M 47.21875 32.234375 
Q 47.125 39.59375 43.09375 43.984375 
Q 39.0625 48.390625 32.421875 48.390625 
Q 24.90625 48.390625 20.390625 44.140625 
Q 15.875 39.890625 15.1875 32.171875 
z
" id="DejaVuSans-101"/>
      </defs>
      <use xlink:href="#DejaVuSans-68"/>
      <use x="77.001953" xlink:href="#DejaVuSans-97"/>
      <use x="138.28125" xlink:href="#DejaVuSans-116"/>
      <use x="177.490234" xlink:href="#DejaVuSans-101"/>
     </g>
    </g>
   </g>
   <g id="matplotlib.axis_2">
    <g id="ytick_1">
     <g id="line2d_8">
      <defs>
       <path d="M 0 0 
L -3.5 0 
" id="m8b1888623c" style="stroke:#000000;stroke-width:0.8;"/>
      </defs>
      <g>
       <use style="stroke:#000000;stroke-width:0.8;" x="40.603125" xlink:href="#m8b1888623c" y="316.08"/>
      </g>
     </g>
     <g id="text_9">
      <!-- 0 -->
      <g transform="translate(27.240625 319.879219)scale(0.1 -0.1)">
       <use xlink:href="#DejaVuSans-48"/>
      </g>
     </g>
    </g>
    <g id="ytick_2">
     <g id="line2d_9">
      <g>
       <use style="stroke:#000000;stroke-width:0.8;" x="40.603125" xlink:href="#m8b1888623c" y="255.102314"/>
      </g>
     </g>
     <g id="text_10">
      <!-- 20 -->
      <g transform="translate(20.878125 258.901533)scale(0.1 -0.1)">
       <use xlink:href="#DejaVuSans-50"/>
       <use x="63.623047" xlink:href="#DejaVuSans-48"/>
      </g>
     </g>
    </g>
    <g id="ytick_3">
     <g id="line2d_10">
      <g>
       <use style="stroke:#000000;stroke-width:0.8;" x="40.603125" xlink:href="#m8b1888623c" y="194.124629"/>
      </g>
     </g>
     <g id="text_11">
      <!-- 40 -->
      <g transform="translate(20.878125 197.923848)scale(0.1 -0.1)">
       <use xlink:href="#DejaVuSans-52"/>
       <use x="63.623047" xlink:href="#DejaVuSans-48"/>
      </g>
     </g>
    </g>
    <g id="ytick_4">
     <g id="line2d_11">
      <g>
       <use style="stroke:#000000;stroke-width:0.8;" x="40.603125" xlink:href="#m8b1888623c" y="133.146943"/>
      </g>
     </g>
     <g id="text_12">
      <!-- 60 -->
      <g transform="translate(20.878125 136.946162)scale(0.1 -0.1)">
       <defs>
        <path d="M 33.015625 40.375 
Q 26.375 40.375 22.484375 35.828125 
Q 18.609375 31.296875 18.609375 23.390625 
Q 18.609375 15.53125 22.484375 10.953125 
Q 26.375 6.390625 33.015625 6.390625 
Q 39.65625 6.390625 43.53125 10.953125 
Q 47.40625 15.53125 47.40625 23.390625 
Q 47.40625 31.296875 43.53125 35.828125 
Q 39.65625 40.375 33.015625 40.375 
z
M 52.59375 71.296875 
L 52.59375 62.3125 
Q 48.875 64.0625 45.09375 64.984375 
Q 41.3125 65.921875 37.59375 65.921875 
Q 27.828125 65.921875 22.671875 59.328125 
Q 17.53125 52.734375 16.796875 39.40625 
Q 19.671875 43.65625 24.015625 45.921875 
Q 28.375 48.1875 33.59375 48.1875 
Q 44.578125 48.1875 50.953125 41.515625 
Q 57.328125 34.859375 57.328125 23.390625 
Q 57.328125 12.15625 50.6875 5.359375 
Q 44.046875 -1.421875 33.015625 -1.421875 
Q 20.359375 -1.421875 13.671875 8.265625 
Q 6.984375 17.96875 6.984375 36.375 
Q 6.984375 53.65625 15.1875 63.9375 
Q 23.390625 74.21875 37.203125 74.21875 
Q 40.921875 74.21875 44.703125 73.484375 
Q 48.484375 72.75 52.59375 71.296875 
z
" id="DejaVuSans-54"/>
       </defs>
       <use xlink:href="#DejaVuSans-54"/>
       <use x="63.623047" xlink:href="#DejaVuSans-48"/>
      </g>
     </g>
    </g>
    <g id="ytick_5">
     <g id="line2d_12">
      <g>
       <use style="stroke:#000000;stroke-width:0.8;" x="40.603125" xlink:href="#m8b1888623c" y="72.169258"/>
      </g>
     </g>
     <g id="text_13">
      <!-- 80 -->
      <g transform="translate(20.878125 75.968477)scale(0.1 -0.1)">
       <use xlink:href="#DejaVuSans-56"/>
       <use x="63.623047" xlink:href="#DejaVuSans-48"/>
      </g>
     </g>
    </g>
    <g id="text_14">
     <!-- g/kWh -->
     <g transform="translate(14.798438 185.066406)rotate(-90)scale(0.1 -0.1)">
      <defs>
       <path d="M 45.40625 27.984375 
Q 45.40625 37.75 41.375 43.109375 
Q 37.359375 48.484375 30.078125 48.484375 
Q 22.859375 48.484375 18.828125 43.109375 
Q 14.796875 37.75 14.796875 27.984375 
Q 14.796875 18.265625 18.828125 12.890625 
Q 22.859375 7.515625 30.078125 7.515625 
Q 37.359375 7.515625 41.375 12.890625 
Q 45.40625 18.265625 45.40625 27.984375 
z
M 54.390625 6.78125 
Q 54.390625 -7.171875 48.1875 -13.984375 
Q 42 -20.796875 29.203125 -20.796875 
Q 24.46875 -20.796875 20.265625 -20.09375 
Q 16.0625 -19.390625 12.109375 -17.921875 
L 12.109375 -9.1875 
Q 16.0625 -11.328125 19.921875 -12.34375 
Q 23.78125 -13.375 27.78125 -13.375 
Q 36.625 -13.375 41.015625 -8.765625 
Q 45.40625 -4.15625 45.40625 5.171875 
L 45.40625 9.625 
Q 42.625 4.78125 38.28125 2.390625 
Q 33.9375 0 27.875 0 
Q 17.828125 0 11.671875 7.65625 
Q 5.515625 15.328125 5.515625 27.984375 
Q 5.515625 40.671875 11.671875 48.328125 
Q 17.828125 56 27.875 56 
Q 33.9375 56 38.28125 53.609375 
Q 42.625 51.21875 45.40625 46.390625 
L 45.40625 54.6875 
L 54.390625 54.6875 
z
" id="DejaVuSans-103"/>
       <path d="M 25.390625 72.90625 
L 33.6875 72.90625 
L 8.296875 -9.28125 
L 0 -9.28125 
z
" id="DejaVuSans-47"/>
       <path d="M 9.078125 75.984375 
L 18.109375 75.984375 
L 18.109375 31.109375 
L 44.921875 54.6875 
L 56.390625 54.6875 
L 27.390625 29.109375 
L 57.625 0 
L 45.90625 0 
L 18.109375 26.703125 
L 18.109375 0 
L 9.078125 0 
z
" id="DejaVuSans-107"/>
       <path d="M 3.328125 72.90625 
L 13.28125 72.90625 
L 28.609375 11.28125 
L 43.890625 72.90625 
L 54.984375 72.90625 
L 70.3125 11.28125 
L 85.59375 72.90625 
L 95.609375 72.90625 
L 77.296875 0 
L 64.890625 0 
L 49.515625 63.28125 
L 33.984375 0 
L 21.578125 0 
z
" id="DejaVuSans-87"/>
       <path d="M 54.890625 33.015625 
L 54.890625 0 
L 45.90625 0 
L 45.90625 32.71875 
Q 45.90625 40.484375 42.875 44.328125 
Q 39.84375 48.1875 33.796875 48.1875 
Q 26.515625 48.1875 22.3125 43.546875 
Q 18.109375 38.921875 18.109375 30.90625 
L 18.109375 0 
L 9.078125 0 
L 9.078125 75.984375 
L 18.109375 75.984375 
L 18.109375 46.1875 
Q 21.34375 51.125 25.703125 53.5625 
Q 30.078125 56 35.796875 56 
Q 45.21875 56 50.046875 50.171875 
Q 54.890625 44.34375 54.890625 33.015625 
z
" id="DejaVuSans-104"/>
      </defs>
      <use xlink:href="#DejaVuSans-103"/>
      <use x="63.476562" xlink:href="#DejaVuSans-47"/>
      <use x="97.167969" xlink:href="#DejaVuSans-107"/>
      <use x="155.078125" xlink:href="#DejaVuSans-87"/>
      <use x="253.955078" xlink:href="#DejaVuSans-104"/>
     </g>
    </g>
   </g>
   <g id="line2d_13">
    <path clip-path="url(#pd1299de874)" d="M 71.039489 175.831323 
L 71.531191 175.831323 
L 72.022893 166.68467 
L 72.514595 160.586902 
L 73.497999 154.489133 
L 73.989702 166.68467 
L 74.481404 166.68467 
L 74.973106 157.538018 
L 75.464808 151.440249 
L 75.95651 163.635786 
L 76.448212 145.342481 
L 76.939915 114.853638 
L 77.431617 99.609216 
L 77.923319 47.778184 
L 78.906723 35.582647 
L 79.398425 59.973721 
L 79.890127 72.169258 
L 80.873532 145.342481 
L 81.856936 175.831323 
L 82.348638 172.782439 
L 82.84034 175.831323 
L 83.332043 175.831323 
L 84.315447 194.124629 
L 84.807149 194.124629 
L 85.298851 188.02686 
L 85.790553 184.977976 
L 86.282256 221.564587 
L 86.773958 218.515703 
L 87.26566 233.760125 
L 87.757362 224.613472 
L 88.249064 227.662356 
L 88.740766 212.417935 
L 89.232469 212.417935 
L 89.724171 203.271282 
L 90.707575 197.173513 
L 91.199277 197.173513 
L 91.690979 194.124629 
L 92.182681 252.05343 
L 92.674384 279.493389 
L 93.166086 294.73781 
L 93.657788 291.688926 
L 94.14949 279.493389 
L 94.641192 261.200083 
L 95.132894 249.004546 
L 95.624597 242.906777 
L 96.116299 239.857893 
L 96.608001 242.906777 
L 97.099703 230.71124 
L 97.591405 252.05343 
L 98.083107 255.102314 
L 99.066512 249.004546 
L 99.558214 239.857893 
L 100.049916 218.515703 
L 100.541618 230.71124 
L 101.03332 255.102314 
L 101.525022 258.151199 
L 102.508427 267.297852 
L 103.000129 261.200083 
L 103.491831 261.200083 
L 103.983533 291.688926 
L 104.475235 297.786694 
L 104.966938 297.786694 
L 105.45864 294.73781 
L 105.950342 288.640042 
L 106.442044 267.297852 
L 106.933746 267.297852 
L 107.425448 270.346736 
L 108.408853 264.248967 
L 108.900555 270.346736 
L 109.883959 297.786694 
L 110.375661 291.688926 
L 110.867364 276.444504 
L 111.850768 230.71124 
L 112.34247 221.564587 
L 112.834172 227.662356 
L 114.309279 236.809009 
L 114.800981 258.151199 
L 115.292683 267.297852 
L 115.784385 270.346736 
L 116.276087 258.151199 
L 116.767789 258.151199 
L 117.259492 239.857893 
L 117.751194 230.71124 
L 130.043748 273.39562 
L 130.53545 258.151199 
L 131.027152 255.102314 
L 132.010556 261.200083 
L 132.502258 252.05343 
L 132.993961 221.564587 
L 133.485663 218.515703 
L 133.977365 209.36905 
L 134.469067 224.613472 
L 134.960769 224.613472 
L 135.452471 215.466819 
L 135.944174 221.564587 
L 137.41928 221.564587 
L 137.910982 242.906777 
L 138.402684 255.102314 
L 138.894387 245.955662 
L 139.386089 258.151199 
L 139.877791 261.200083 
L 140.369493 258.151199 
L 140.861195 245.955662 
L 141.352897 255.102314 
L 142.336302 212.417935 
L 143.319706 212.417935 
L 143.811408 200.222398 
L 144.30311 178.880208 
L 144.794812 166.68467 
L 145.286515 151.440249 
L 145.778217 166.68467 
L 146.269919 136.195828 
L 146.761621 133.146943 
L 147.745025 139.244712 
L 148.236728 145.342481 
L 148.72843 127.049175 
L 149.711834 114.853638 
L 150.203536 136.195828 
L 150.695238 169.733555 
L 151.678643 188.02686 
L 152.662047 188.02686 
L 153.153749 181.929092 
L 153.645451 178.880208 
L 154.137153 181.929092 
L 154.628856 181.929092 
L 155.120558 178.880208 
L 155.61226 178.880208 
L 156.103962 184.977976 
L 156.595664 188.02686 
L 157.087366 188.02686 
L 157.579069 184.977976 
L 158.070771 175.831323 
L 158.562473 130.098059 
L 159.054175 120.951406 
L 159.545877 120.951406 
L 160.037579 133.146943 
L 160.529282 139.244712 
L 161.020984 142.293596 
L 161.512686 139.244712 
L 162.004388 139.244712 
L 162.49609 102.658101 
L 163.479495 178.880208 
L 163.971197 194.124629 
L 164.462899 197.173513 
L 164.954601 184.977976 
L 165.938005 117.902522 
L 166.429707 105.706985 
L 166.92141 59.973721 
L 167.413112 63.022605 
L 167.904814 59.973721 
L 168.396516 59.973721 
L 168.888218 63.022605 
L 169.37992 81.315911 
L 169.871623 87.413679 
L 170.363325 90.462564 
L 171.346729 139.244712 
L 171.838431 154.489133 
L 172.330133 157.538018 
L 172.821836 151.440249 
L 173.313538 154.489133 
L 174.296942 154.489133 
L 174.788644 169.733555 
L 175.772048 270.346736 
L 176.263751 264.248967 
L 176.755453 273.39562 
L 177.247155 267.297852 
L 177.738857 236.809009 
L 178.230559 233.760125 
L 178.722261 215.466819 
L 179.705666 191.075745 
L 180.197368 197.173513 
L 180.68907 224.613472 
L 181.180772 236.809009 
L 182.164177 224.613472 
L 183.639283 197.173513 
L 184.130985 206.320166 
L 184.622687 212.417935 
L 185.11439 197.173513 
L 185.606092 218.515703 
L 186.097794 230.71124 
L 186.589496 236.809009 
L 187.081198 261.200083 
L 188.064602 261.200083 
L 188.556305 249.004546 
L 189.048007 221.564587 
L 189.539709 184.977976 
L 190.031411 175.831323 
L 190.523113 136.195828 
L 191.014815 127.049175 
L 191.506518 133.146943 
L 191.99822 154.489133 
L 192.489922 191.075745 
L 192.981624 215.466819 
L 193.473326 206.320166 
L 193.965028 188.02686 
L 194.456731 181.929092 
L 196.423539 194.124629 
L 196.915241 194.124629 
L 197.406943 212.417935 
L 197.898646 252.05343 
L 198.390348 261.200083 
L 198.88205 261.200083 
L 199.373752 255.102314 
L 199.865454 261.200083 
L 200.357156 249.004546 
L 200.848859 233.760125 
L 201.340561 203.271282 
L 201.832263 191.075745 
L 202.323965 175.831323 
L 202.815667 175.831323 
L 203.307369 166.68467 
L 203.799072 181.929092 
L 204.290774 209.36905 
L 204.782476 212.417935 
L 205.274178 218.515703 
L 205.76588 209.36905 
L 206.257582 197.173513 
L 206.749284 166.68467 
L 207.732689 166.68467 
L 208.224391 169.733555 
L 208.716093 169.733555 
L 209.699497 267.297852 
L 210.1912 297.786694 
L 211.666306 297.786694 
L 212.158008 291.688926 
L 213.141413 267.297852 
L 213.633115 267.297852 
L 214.124817 270.346736 
L 214.616519 270.346736 
L 215.108221 273.39562 
L 215.599923 261.200083 
L 216.091626 245.955662 
L 216.583328 255.102314 
L 217.07503 267.297852 
L 217.566732 294.73781 
L 218.058434 300.835579 
L 219.041838 288.640042 
L 219.533541 285.591157 
L 221.008647 285.591157 
L 221.500349 282.542273 
L 221.992051 282.542273 
L 222.483754 294.73781 
L 222.975456 300.835579 
L 223.467158 300.835579 
L 223.95886 291.688926 
L 224.450562 297.786694 
L 224.942264 300.835579 
L 227.892477 300.835579 
L 228.384179 297.786694 
L 228.875882 291.688926 
L 229.367584 300.835579 
L 235.759712 300.835579 
L 236.251414 294.73781 
L 236.743116 294.73781 
L 237.234818 285.591157 
L 241.660138 285.591157 
L 242.643542 273.39562 
L 243.135244 270.346736 
L 243.626946 270.346736 
L 244.118649 273.39562 
L 244.610351 270.346736 
L 245.102053 270.346736 
L 245.593755 279.493389 
L 246.085457 291.688926 
L 247.560564 291.688926 
L 248.052266 288.640042 
L 248.543968 282.542273 
L 249.03567 279.493389 
L 250.019074 267.297852 
L 250.510777 273.39562 
L 251.002479 270.346736 
L 251.494181 270.346736 
L 251.985883 282.542273 
L 252.477585 282.542273 
L 252.969287 276.444504 
L 253.46099 276.444504 
L 253.952692 273.39562 
L 254.444394 267.297852 
L 254.936096 270.346736 
L 255.427798 270.346736 
L 255.9195 282.542273 
L 256.411203 288.640042 
L 256.902905 282.542273 
L 257.394607 273.39562 
L 257.886309 267.297852 
L 258.378011 285.591157 
L 258.869713 282.542273 
L 259.361415 276.444504 
L 259.853118 258.151199 
L 260.34482 230.71124 
L 261.328224 127.049175 
L 261.819926 114.853638 
L 262.311628 154.489133 
L 262.803331 154.489133 
L 263.295033 157.538018 
L 263.786735 194.124629 
L 264.278437 218.515703 
L 265.261841 191.075745 
L 265.753544 188.02686 
L 266.245246 175.831323 
L 266.736948 181.929092 
L 267.720352 175.831323 
L 268.212054 184.977976 
L 268.703757 221.564587 
L 269.195459 276.444504 
L 269.687161 285.591157 
L 270.178863 288.640042 
L 271.162267 288.640042 
L 271.653969 279.493389 
L 272.145672 255.102314 
L 272.637374 184.977976 
L 273.129076 157.538018 
L 273.620778 160.586902 
L 274.11248 169.733555 
L 274.604182 169.733555 
L 275.095885 178.880208 
L 275.587587 215.466819 
L 276.079289 236.809009 
L 276.570991 230.71124 
L 277.062693 236.809009 
L 277.554395 224.613472 
L 278.046098 221.564587 
L 278.5378 245.955662 
L 279.029502 249.004546 
L 279.521204 249.004546 
L 280.012906 252.05343 
L 280.504608 291.688926 
L 280.99631 300.835579 
L 282.963119 300.835579 
L 283.454821 285.591157 
L 283.946523 264.248967 
L 284.438226 227.662356 
L 284.929928 178.880208 
L 285.42163 184.977976 
L 285.913332 200.222398 
L 286.405034 203.271282 
L 286.896736 188.02686 
L 287.388439 191.075745 
L 287.880141 209.36905 
L 288.371843 218.515703 
L 288.863545 215.466819 
L 289.355247 206.320166 
L 289.846949 181.929092 
L 290.338652 181.929092 
L 290.830354 172.782439 
L 291.322056 151.440249 
L 291.813758 175.831323 
L 292.797162 242.906777 
L 293.288864 245.955662 
L 293.780567 255.102314 
L 294.272269 255.102314 
L 295.255673 200.222398 
L 295.747375 148.391365 
L 296.239077 142.293596 
L 296.73078 124.000291 
L 297.222482 117.902522 
L 297.714184 127.049175 
L 298.205886 151.440249 
L 298.697588 154.489133 
L 299.18929 172.782439 
L 299.680993 175.831323 
L 300.172695 163.635786 
L 300.664397 169.733555 
L 301.156099 184.977976 
L 301.647801 169.733555 
L 302.139503 181.929092 
L 302.631205 175.831323 
L 303.61461 181.929092 
L 304.598014 236.809009 
L 305.089716 291.688926 
L 305.581418 300.835579 
L 309.023334 300.835579 
L 309.515036 294.73781 
L 310.006738 270.346736 
L 310.49844 252.05343 
L 310.990142 267.297852 
L 311.973547 285.591157 
L 312.465249 276.444504 
L 312.956951 273.39562 
L 313.448653 264.248967 
L 313.940355 273.39562 
L 314.432057 300.835579 
L 317.38227 300.835579 
L 319.349079 297.786694 
L 319.840781 291.688926 
L 320.332483 288.640042 
L 321.315888 285.591157 
L 321.80759 282.542273 
L 322.299292 282.542273 
L 322.790994 279.493389 
L 323.282696 258.151199 
L 324.2661 178.880208 
L 324.757803 169.733555 
L 325.249505 172.782439 
L 326.724611 172.782439 
L 327.216313 184.977976 
L 327.708016 218.515703 
L 328.199718 224.613472 
L 328.69142 224.613472 
L 329.183122 221.564587 
L 329.674824 224.613472 
L 330.166526 215.466819 
L 331.149931 178.880208 
L 331.641633 145.342481 
L 332.625037 139.244712 
L 333.116739 102.658101 
L 333.608441 78.267026 
L 334.100144 81.315911 
L 334.591846 87.413679 
L 335.083548 90.462564 
L 335.57525 99.609216 
L 336.066952 114.853638 
L 336.558654 142.293596 
L 337.050357 120.951406 
L 337.542059 111.804754 
L 338.033761 84.364795 
L 338.525463 90.462564 
L 339.017165 99.609216 
L 339.508867 145.342481 
L 340.00057 160.586902 
L 340.492272 181.929092 
L 340.983974 191.075745 
L 341.475676 175.831323 
L 341.967378 139.244712 
L 342.45908 130.098059 
L 342.950783 78.267026 
L 343.442485 78.267026 
L 343.934187 75.218142 
L 344.425889 81.315911 
L 344.917591 93.511448 
L 345.409293 114.853638 
L 345.900995 130.098059 
L 346.392698 154.489133 
L 346.8844 127.049175 
L 347.376102 136.195828 
L 347.867804 151.440249 
L 348.359506 139.244712 
L 348.851208 136.195828 
L 349.342911 145.342481 
L 349.834613 145.342481 
L 350.818017 151.440249 
L 351.309719 184.977976 
L 352.293124 218.515703 
L 352.784826 224.613472 
L 353.276528 224.613472 
L 353.76823 215.466819 
L 354.259932 197.173513 
L 354.751634 172.782439 
L 355.243336 184.977976 
L 355.735039 191.075745 
L 356.718443 215.466819 
L 357.701847 252.05343 
L 358.193549 264.248967 
L 358.685252 264.248967 
L 360.160358 236.809009 
L 360.65206 224.613472 
L 361.635465 218.515703 
L 362.127167 197.173513 
L 362.618869 169.733555 
L 363.110571 178.880208 
L 364.093975 224.613472 
L 364.585678 218.515703 
L 365.07738 203.271282 
L 365.569082 181.929092 
L 366.552486 102.658101 
L 367.044188 75.218142 
L 367.53589 72.169258 
L 368.027593 75.218142 
L 368.519295 111.804754 
L 369.010997 133.146943 
L 369.502699 191.075745 
L 369.994401 209.36905 
L 370.486103 209.36905 
L 370.977806 212.417935 
L 371.469508 200.222398 
L 372.452912 169.733555 
L 372.944614 169.733555 
L 373.436316 166.68467 
L 373.928019 148.391365 
L 374.419721 154.489133 
L 374.911423 175.831323 
L 375.894827 239.857893 
L 376.386529 264.248967 
L 376.878231 270.346736 
L 377.369934 267.297852 
L 378.353338 215.466819 
L 378.84504 221.564587 
L 379.336742 221.564587 
L 379.828444 224.613472 
L 380.320147 224.613472 
L 380.811849 227.662356 
L 381.303551 215.466819 
L 381.795253 215.466819 
L 382.286955 252.05343 
L 382.778657 255.102314 
L 383.27036 261.200083 
L 383.762062 224.613472 
L 384.253764 230.71124 
L 384.745466 267.297852 
L 385.237168 279.493389 
L 385.72887 279.493389 
L 386.220572 294.73781 
L 386.712275 297.786694 
L 388.679083 297.786694 
L 389.170785 300.835579 
L 392.120998 300.835579 
L 392.612701 294.73781 
L 393.104403 273.39562 
L 394.087807 285.591157 
L 394.579509 297.786694 
L 395.071211 297.786694 
L 395.562914 300.835579 
L 399.496531 300.835579 
L 400.479935 270.346736 
L 400.971637 285.591157 
L 401.463339 285.591157 
L 401.955042 273.39562 
L 402.446744 249.004546 
L 402.938446 233.760125 
L 403.430148 252.05343 
L 403.92185 264.248967 
L 404.413552 261.200083 
L 404.905255 261.200083 
L 405.396957 288.640042 
L 405.888659 288.640042 
L 406.380361 264.248967 
L 406.872063 227.662356 
L 408.838872 227.662356 
L 409.330574 230.71124 
L 409.822276 227.662356 
L 410.313978 276.444504 
L 410.80568 285.591157 
L 411.297383 288.640042 
L 411.789085 300.835579 
L 412.280787 294.73781 
L 412.772489 297.786694 
L 413.755893 297.786694 
L 414.247596 288.640042 
L 414.739298 267.297852 
L 415.231 273.39562 
L 631.57995 249.004546 
L 632.071652 239.857893 
L 632.563354 236.809009 
L 633.055056 236.809009 
L 633.546758 233.760125 
L 634.038461 227.662356 
L 634.530163 236.809009 
L 635.021865 236.809009 
L 635.513567 233.760125 
L 636.005269 276.444504 
L 636.496971 291.688926 
L 636.988674 285.591157 
L 637.972078 267.297852 
L 638.955482 267.297852 
L 639.447184 270.346736 
L 639.938886 245.955662 
L 640.922291 233.760125 
L 641.413993 236.809009 
L 642.397397 230.71124 
L 642.889099 224.613472 
L 665.507399 188.02686 
L 665.999101 191.075745 
L 666.490803 175.831323 
L 666.982505 169.733555 
L 667.474207 178.880208 
L 667.96591 184.977976 
L 668.457612 181.929092 
L 668.949314 172.782439 
L 669.441016 181.929092 
L 669.932718 184.977976 
L 670.916123 264.248967 
L 671.407825 267.297852 
L 671.899527 267.297852 
L 672.391229 261.200083 
L 672.882931 233.760125 
L 673.374633 191.075745 
L 673.866335 175.831323 
L 674.358038 154.489133 
L 674.84974 172.782439 
L 675.341442 181.929092 
L 675.833144 184.977976 
L 676.324846 206.320166 
L 676.816548 209.36905 
L 677.308251 209.36905 
L 678.291655 181.929092 
L 678.783357 184.977976 
L 679.275059 184.977976 
L 679.766761 178.880208 
L 679.766761 178.880208 
" style="fill:none;stroke:#88bde6;stroke-linecap:square;stroke-width:1.5;"/>
   </g>
   <g id="patch_3">
    <path d="M 40.603125 316.08 
L 40.603125 22.32 
" style="fill:none;stroke:#000000;stroke-linecap:square;stroke-linejoin:miter;stroke-width:0.8;"/>
   </g>
   <g id="patch_4">
    <path d="M 710.203125 316.08 
L 710.203125 22.32 
" style="fill:none;stroke:#000000;stroke-linecap:square;stroke-linejoin:miter;stroke-width:0.8;"/>
   </g>
   <g id="patch_5">
    <path d="M 40.603125 316.08 
L 710.203125 316.08 
" style="fill:none;stroke:#000000;stroke-linecap:square;stroke-linejoin:miter;stroke-width:0.8;"/>
   </g>
   <g id="patch_6">
    <path d="M 40.603125 22.32 
L 710.203125 22.32 
" style="fill:none;stroke:#000000;stroke-linecap:square;stroke-linejoin:miter;stroke-width:0.8;"/>
   </g>
   <g id="text_15">
    <!-- CO$_2$e intensity of the Ontario power grid for 30 days ending on 2023-04-25 -->
    <g transform="translate(149.743125 16.32)scale(0.12 -0.12)">
     <defs>
      <path d="M 64.40625 67.28125 
L 64.40625 56.890625 
Q 59.421875 61.53125 53.78125 63.8125 
Q 48.140625 66.109375 41.796875 66.109375 
Q 29.296875 66.109375 22.65625 58.46875 
Q 16.015625 50.828125 16.015625 36.375 
Q 16.015625 21.96875 22.65625 14.328125 
Q 29.296875 6.6875 41.796875 6.6875 
Q 48.140625 6.6875 53.78125 8.984375 
Q 59.421875 11.28125 64.40625 15.921875 
L 64.40625 5.609375 
Q 59.234375 2.09375 53.4375 0.328125 
Q 47.65625 -1.421875 41.21875 -1.421875 
Q 24.65625 -1.421875 15.125 8.703125 
Q 5.609375 18.84375 5.609375 36.375 
Q 5.609375 53.953125 15.125 64.078125 
Q 24.65625 74.21875 41.21875 74.21875 
Q 47.75 74.21875 53.53125 72.484375 
Q 59.328125 70.75 64.40625 67.28125 
z
" id="DejaVuSans-67"/>
      <path d="M 39.40625 66.21875 
Q 28.65625 66.21875 22.328125 58.203125 
Q 16.015625 50.203125 16.015625 36.375 
Q 16.015625 22.609375 22.328125 14.59375 
Q 28.65625 6.59375 39.40625 6.59375 
Q 50.140625 6.59375 56.421875 14.59375 
Q 62.703125 22.609375 62.703125 36.375 
Q 62.703125 50.203125 56.421875 58.203125 
Q 50.140625 66.21875 39.40625 66.21875 
z
M 39.40625 74.21875 
Q 54.734375 74.21875 63.90625 63.9375 
Q 73.09375 53.65625 73.09375 36.375 
Q 73.09375 19.140625 63.90625 8.859375 
Q 54.734375 -1.421875 39.40625 -1.421875 
Q 24.03125 -1.421875 14.8125 8.828125 
Q 5.609375 19.09375 5.609375 36.375 
Q 5.609375 53.65625 14.8125 63.9375 
Q 24.03125 74.21875 39.40625 74.21875 
z
" id="DejaVuSans-79"/>
      <path id="DejaVuSans-32"/>
      <path d="M 9.421875 54.6875 
L 18.40625 54.6875 
L 18.40625 0 
L 9.421875 0 
z
M 9.421875 75.984375 
L 18.40625 75.984375 
L 18.40625 64.59375 
L 9.421875 64.59375 
z
" id="DejaVuSans-105"/>
      <path d="M 54.890625 33.015625 
L 54.890625 0 
L 45.90625 0 
L 45.90625 32.71875 
Q 45.90625 40.484375 42.875 44.328125 
Q 39.84375 48.1875 33.796875 48.1875 
Q 26.515625 48.1875 22.3125 43.546875 
Q 18.109375 38.921875 18.109375 30.90625 
L 18.109375 0 
L 9.078125 0 
L 9.078125 54.6875 
L 18.109375 54.6875 
L 18.109375 46.1875 
Q 21.34375 51.125 25.703125 53.5625 
Q 30.078125 56 35.796875 56 
Q 45.21875 56 50.046875 50.171875 
Q 54.890625 44.34375 54.890625 33.015625 
z
" id="DejaVuSans-110"/>
      <path d="M 44.28125 53.078125 
L 44.28125 44.578125 
Q 40.484375 46.53125 36.375 47.5 
Q 32.28125 48.484375 27.875 48.484375 
Q 21.1875 48.484375 17.84375 46.4375 
Q 14.5 44.390625 14.5 40.28125 
Q 14.5 37.15625 16.890625 35.375 
Q 19.28125 33.59375 26.515625 31.984375 
L 29.59375 31.296875 
Q 39.15625 29.25 43.1875 25.515625 
Q 47.21875 21.78125 47.21875 15.09375 
Q 47.21875 7.46875 41.1875 3.015625 
Q 35.15625 -1.421875 24.609375 -1.421875 
Q 20.21875 -1.421875 15.453125 -0.5625 
Q 10.6875 0.296875 5.421875 2 
L 5.421875 11.28125 
Q 10.40625 8.6875 15.234375 7.390625 
Q 20.0625 6.109375 24.8125 6.109375 
Q 31.15625 6.109375 34.5625 8.28125 
Q 37.984375 10.453125 37.984375 14.40625 
Q 37.984375 18.0625 35.515625 20.015625 
Q 33.0625 21.96875 24.703125 23.78125 
L 21.578125 24.515625 
Q 13.234375 26.265625 9.515625 29.90625 
Q 5.8125 33.546875 5.8125 39.890625 
Q 5.8125 47.609375 11.28125 51.796875 
Q 16.75 56 26.8125 56 
Q 31.78125 56 36.171875 55.265625 
Q 40.578125 54.546875 44.28125 53.078125 
z
" id="DejaVuSans-115"/>
      <path d="M 32.171875 -5.078125 
Q 28.375 -14.84375 24.75 -17.8125 
Q 21.140625 -20.796875 15.09375 -20.796875 
L 7.90625 -20.796875 
L 7.90625 -13.28125 
L 13.1875 -13.28125 
Q 16.890625 -13.28125 18.9375 -11.515625 
Q 21 -9.765625 23.484375 -3.21875 
L 25.09375 0.875 
L 2.984375 54.6875 
L 12.5 54.6875 
L 29.59375 11.921875 
L 46.6875 54.6875 
L 56.203125 54.6875 
z
" id="DejaVuSans-121"/>
      <path d="M 30.609375 48.390625 
Q 23.390625 48.390625 19.1875 42.75 
Q 14.984375 37.109375 14.984375 27.296875 
Q 14.984375 17.484375 19.15625 11.84375 
Q 23.34375 6.203125 30.609375 6.203125 
Q 37.796875 6.203125 41.984375 11.859375 
Q 46.1875 17.53125 46.1875 27.296875 
Q 46.1875 37.015625 41.984375 42.703125 
Q 37.796875 48.390625 30.609375 48.390625 
z
M 30.609375 56 
Q 42.328125 56 49.015625 48.375 
Q 55.71875 40.765625 55.71875 27.296875 
Q 55.71875 13.875 49.015625 6.21875 
Q 42.328125 -1.421875 30.609375 -1.421875 
Q 18.84375 -1.421875 12.171875 6.21875 
Q 5.515625 13.875 5.515625 27.296875 
Q 5.515625 40.765625 12.171875 48.375 
Q 18.84375 56 30.609375 56 
z
" id="DejaVuSans-111"/>
      <path d="M 37.109375 75.984375 
L 37.109375 68.5 
L 28.515625 68.5 
Q 23.6875 68.5 21.796875 66.546875 
Q 19.921875 64.59375 19.921875 59.515625 
L 19.921875 54.6875 
L 34.71875 54.6875 
L 34.71875 47.703125 
L 19.921875 47.703125 
L 19.921875 0 
L 10.890625 0 
L 10.890625 47.703125 
L 2.296875 47.703125 
L 2.296875 54.6875 
L 10.890625 54.6875 
L 10.890625 58.5 
Q 10.890625 67.625 15.140625 71.796875 
Q 19.390625 75.984375 28.609375 75.984375 
z
" id="DejaVuSans-102"/>
      <path d="M 41.109375 46.296875 
Q 39.59375 47.171875 37.8125 47.578125 
Q 36.03125 48 33.890625 48 
Q 26.265625 48 22.1875 43.046875 
Q 18.109375 38.09375 18.109375 28.8125 
L 18.109375 0 
L 9.078125 0 
L 9.078125 54.6875 
L 18.109375 54.6875 
L 18.109375 46.1875 
Q 20.953125 51.171875 25.484375 53.578125 
Q 30.03125 56 36.53125 56 
Q 37.453125 56 38.578125 55.875 
Q 39.703125 55.765625 41.0625 55.515625 
z
" id="DejaVuSans-114"/>
      <path d="M 18.109375 8.203125 
L 18.109375 -20.796875 
L 9.078125 -20.796875 
L 9.078125 54.6875 
L 18.109375 54.6875 
L 18.109375 46.390625 
Q 20.953125 51.265625 25.265625 53.625 
Q 29.59375 56 35.59375 56 
Q 45.5625 56 51.78125 48.09375 
Q 58.015625 40.1875 58.015625 27.296875 
Q 58.015625 14.40625 51.78125 6.484375 
Q 45.5625 -1.421875 35.59375 -1.421875 
Q 29.59375 -1.421875 25.265625 0.953125 
Q 20.953125 3.328125 18.109375 8.203125 
z
M 48.6875 27.296875 
Q 48.6875 37.203125 44.609375 42.84375 
Q 40.53125 48.484375 33.40625 48.484375 
Q 26.265625 48.484375 22.1875 42.84375 
Q 18.109375 37.203125 18.109375 27.296875 
Q 18.109375 17.390625 22.1875 11.75 
Q 26.265625 6.109375 33.40625 6.109375 
Q 40.53125 6.109375 44.609375 11.75 
Q 48.6875 17.390625 48.6875 27.296875 
z
" id="DejaVuSans-112"/>
      <path d="M 4.203125 54.6875 
L 13.1875 54.6875 
L 24.421875 12.015625 
L 35.59375 54.6875 
L 46.1875 54.6875 
L 57.421875 12.015625 
L 68.609375 54.6875 
L 77.59375 54.6875 
L 63.28125 0 
L 52.6875 0 
L 40.921875 44.828125 
L 29.109375 0 
L 18.5 0 
z
" id="DejaVuSans-119"/>
      <path d="M 45.40625 46.390625 
L 45.40625 75.984375 
L 54.390625 75.984375 
L 54.390625 0 
L 45.40625 0 
L 45.40625 8.203125 
Q 42.578125 3.328125 38.25 0.953125 
Q 33.9375 -1.421875 27.875 -1.421875 
Q 17.96875 -1.421875 11.734375 6.484375 
Q 5.515625 14.40625 5.515625 27.296875 
Q 5.515625 40.1875 11.734375 48.09375 
Q 17.96875 56 27.875 56 
Q 33.9375 56 38.25 53.625 
Q 42.578125 51.265625 45.40625 46.390625 
z
M 14.796875 27.296875 
Q 14.796875 17.390625 18.875 11.75 
Q 22.953125 6.109375 30.078125 6.109375 
Q 37.203125 6.109375 41.296875 11.75 
Q 45.40625 17.390625 45.40625 27.296875 
Q 45.40625 37.203125 41.296875 42.84375 
Q 37.203125 48.484375 30.078125 48.484375 
Q 22.953125 48.484375 18.875 42.84375 
Q 14.796875 37.203125 14.796875 27.296875 
z
" id="DejaVuSans-100"/>
     </defs>
     <use transform="translate(0 0.015625)" xlink:href="#DejaVuSans-67"/>
     <use transform="translate(69.824219 0.015625)" xlink:href="#DejaVuSans-79"/>
     <use transform="translate(149.492188 -16.390625)scale(0.7)" xlink:href="#DejaVuSans-50"/>
     <use transform="translate(196.762695 0.015625)" xlink:href="#DejaVuSans-101"/>
     <use transform="translate(258.286133 0.015625)" xlink:href="#DejaVuSans-32"/>
     <use transform="translate(290.073242 0.015625)" xlink:href="#DejaVuSans-105"/>
     <use transform="translate(317.856445 0.015625)" xlink:href="#DejaVuSans-110"/>
     <use transform="translate(381.235352 0.015625)" xlink:href="#DejaVuSans-116"/>
     <use transform="translate(420.444336 0.015625)" xlink:href="#DejaVuSans-101"/>
     <use transform="translate(481.967773 0.015625)" xlink:href="#DejaVuSans-110"/>
     <use transform="translate(545.34668 0.015625)" xlink:href="#DejaVuSans-115"/>
     <use transform="translate(597.446289 0.015625)" xlink:href="#DejaVuSans-105"/>
     <use transform="translate(625.229492 0.015625)" xlink:href="#DejaVuSans-116"/>
     <use transform="translate(664.438477 0.015625)" xlink:href="#DejaVuSans-121"/>
     <use transform="translate(723.618164 0.015625)" xlink:href="#DejaVuSans-32"/>
     <use transform="translate(755.405273 0.015625)" xlink:href="#DejaVuSans-111"/>
     <use transform="translate(816.586914 0.015625)" xlink:href="#DejaVuSans-102"/>
     <use transform="translate(851.791992 0.015625)" xlink:href="#DejaVuSans-32"/>
     <use transform="translate(883.579102 0.015625)" xlink:href="#DejaVuSans-116"/>
     <use transform="translate(922.788086 0.015625)" xlink:href="#DejaVuSans-104"/>
     <use transform="translate(986.166992 0.015625)" xlink:href="#DejaVuSans-101"/>
     <use transform="translate(1047.69043 0.015625)" xlink:href="#DejaVuSans-32"/>
     <use transform="translate(1079.477539 0.015625)" xlink:href="#DejaVuSans-79"/>
     <use transform="translate(1158.188477 0.015625)" xlink:href="#DejaVuSans-110"/>
     <use transform="translate(1221.567383 0.015625)" xlink:href="#DejaVuSans-116"/>
     <use transform="translate(1260.776367 0.015625)" xlink:href="#DejaVuSans-97"/>
     <use transform="translate(1322.055664 0.015625)" xlink:href="#DejaVuSans-114"/>
     <use transform="translate(1363.168945 0.015625)" xlink:href="#DejaVuSans-105"/>
     <use transform="translate(1390.952148 0.015625)" xlink:href="#DejaVuSans-111"/>
     <use transform="translate(1452.133789 0.015625)" xlink:href="#DejaVuSans-32"/>
     <use transform="translate(1483.920898 0.015625)" xlink:href="#DejaVuSans-112"/>
     <use transform="translate(1547.397461 0.015625)" xlink:href="#DejaVuSans-111"/>
     <use transform="translate(1608.579102 0.015625)" xlink:href="#DejaVuSans-119"/>
     <use transform="translate(1690.366211 0.015625)" xlink:href="#DejaVuSans-101"/>
     <use transform="translate(1751.889648 0.015625)" xlink:href="#DejaVuSans-114"/>
     <use transform="translate(1793.00293 0.015625)" xlink:href="#DejaVuSans-32"/>
     <use transform="translate(1824.790039 0.015625)" xlink:href="#DejaVuSans-103"/>
     <use transform="translate(1888.266602 0.015625)" xlink:href="#DejaVuSans-114"/>
     <use transform="translate(1929.379883 0.015625)" xlink:href="#DejaVuSans-105"/>
     <use transform="translate(1957.163086 0.015625)" xlink:href="#DejaVuSans-100"/>
     <use transform="translate(2020.639648 0.015625)" xlink:href="#DejaVuSans-32"/>
     <use transform="translate(2052.426758 0.015625)" xlink:href="#DejaVuSans-102"/>
     <use transform="translate(2087.631836 0.015625)" xlink:href="#DejaVuSans-111"/>
     <use transform="translate(2148.813477 0.015625)" xlink:href="#DejaVuSans-114"/>
     <use transform="translate(2189.926758 0.015625)" xlink:href="#DejaVuSans-32"/>
     <use transform="translate(2221.713867 0.015625)" xlink:href="#DejaVuSans-51"/>
     <use transform="translate(2285.336914 0.015625)" xlink:href="#DejaVuSans-48"/>
     <use transform="translate(2348.959961 0.015625)" xlink:href="#DejaVuSans-32"/>
     <use transform="translate(2380.74707 0.015625)" xlink:href="#DejaVuSans-100"/>
     <use transform="translate(2444.223633 0.015625)" xlink:href="#DejaVuSans-97"/>
     <use transform="translate(2505.50293 0.015625)" xlink:href="#DejaVuSans-121"/>
     <use transform="translate(2564.682617 0.015625)" xlink:href="#DejaVuSans-115"/>
     <use transform="translate(2616.782227 0.015625)" xlink:href="#DejaVuSans-32"/>
     <use transform="translate(2648.569336 0.015625)" xlink:href="#DejaVuSans-101"/>
     <use transform="translate(2710.092773 0.015625)" xlink:href="#DejaVuSans-110"/>
     <use transform="translate(2773.47168 0.015625)" xlink:href="#DejaVuSans-100"/>
     <use transform="translate(2836.948242 0.015625)" xlink:href="#DejaVuSans-105"/>
     <use transform="translate(2864.731445 0.015625)" xlink:href="#DejaVuSans-110"/>
     <use transform="translate(2928.110352 0.015625)" xlink:href="#DejaVuSans-103"/>
     <use transform="translate(2991.586914 0.015625)" xlink:href="#DejaVuSans-32"/>
     <use transform="translate(3023.374023 0.015625)" xlink:href="#DejaVuSans-111"/>
     <use transform="translate(3084.555664 0.015625)" xlink:href="#DejaVuSans-110"/>
     <use transform="translate(3147.93457 0.015625)" xlink:href="#DejaVuSans-32"/>
     <use transform="translate(3179.72168 0.015625)" xlink:href="#DejaVuSans-50"/>
     <use transform="translate(3243.344727 0.015625)" xlink:href="#DejaVuSans-48"/>
     <use transform="translate(3306.967773 0.015625)" xlink:href="#DejaVuSans-50"/>
     <use transform="translate(3370.59082 0.015625)" xlink:href="#DejaVuSans-51"/>
     <use transform="translate(3434.213867 0.015625)" xlink:href="#DejaVuSans-45"/>
     <use transform="translate(3470.297852 0.015625)" xlink:href="#DejaVuSans-48"/>
     <use transform="translate(3533.920898 0.015625)" xlink:href="#DejaVuSans-52"/>
     <use transform="translate(3597.543945 0.015625)" xlink:href="#DejaVuSans-45"/>
     <use transform="translate(3633.62793 0.015625)" xlink:href="#DejaVuSans-50"/>
     <use transform="translate(3697.250977 0.015625)" xlink:href="#DejaVuSans-53"/>
    </g>
   </g>
  </g>
 </g>
 <defs>
  <clipPath id="pd1299de874">
   <rect height="293.76" width="669.6" x="40.603125" y="22.32"/>
  </clipPath>
 </defs>
</svg>
