<?xml version="1.0" encoding="utf-8" standalone="no"?>
<!DOCTYPE svg PUBLIC "-//W3C//DTD SVG 1.1//EN"
  "http://www.w3.org/Graphics/SVG/1.1/DTD/svg11.dtd">
<svg xmlns:xlink="http://www.w3.org/1999/xlink" width="723.765625pt" height="381.39744pt" viewBox="0 0 723.765625 381.39744" xmlns="http://www.w3.org/2000/svg" version="1.1">
 <metadata>
  <rdf:RDF xmlns:dc="http://purl.org/dc/elements/1.1/" xmlns:cc="http://creativecommons.org/ns#" xmlns:rdf="http://www.w3.org/1999/02/22-rdf-syntax-ns#">
   <cc:Work>
    <dc:type rdf:resource="http://purl.org/dc/dcmitype/StillImage"/>
    <dc:date>2023-12-11T22:02:37.191403</dc:date>
    <dc:format>image/svg+xml</dc:format>
    <dc:creator>
     <cc:Agent>
      <dc:title>Matplotlib v3.8.2, https://matplotlib.org/</dc:title>
     </cc:Agent>
    </dc:creator>
   </cc:Work>
  </rdf:RDF>
 </metadata>
 <defs>
  <style type="text/css">*{stroke-linejoin: round; stroke-linecap: butt}</style>
 </defs>
 <g id="figure_1">
  <g id="patch_1">
   <path d="M 0 381.39744 
L 723.765625 381.39744 
L 723.765625 0 
L 0 0 
z
" style="fill: #ffffff"/>
  </g>
  <g id="axes_1">
   <g id="patch_2">
    <path d="M 46.965625 316.08 
L 716.565625 316.08 
L 716.565625 22.32 
L 46.965625 22.32 
z
" style="fill: #ffffff"/>
   </g>
   <g id="matplotlib.axis_1">
    <g id="xtick_1">
     <g id="line2d_1">
      <defs>
       <path id="mce976010d9" d="M 0 0 
L 0 3.5 
" style="stroke: #000000; stroke-width: 0.8"/>
      </defs>
      <g>
       <use xlink:href="#mce976010d9" x="105.109575" y="316.08" style="stroke: #000000; stroke-width: 0.8"/>
      </g>
     </g>
     <g id="text_1">
      <!-- 2023-11-13 -->
      <g transform="translate(53.740123 358.718252) rotate(-30) scale(0.1 -0.1)">
       <defs>
        <path id="DejaVuSans-32" d="M 1228 531 
L 3431 531 
L 3431 0 
L 469 0 
L 469 531 
Q 828 903 1448 1529 
Q 2069 2156 2228 2338 
Q 2531 2678 2651 2914 
Q 2772 3150 2772 3378 
Q 2772 3750 2511 3984 
Q 2250 4219 1831 4219 
Q 1534 4219 1204 4116 
Q 875 4013 500 3803 
L 500 4441 
Q 881 4594 1212 4672 
Q 1544 4750 1819 4750 
Q 2544 4750 2975 4387 
Q 3406 4025 3406 3419 
Q 3406 3131 3298 2873 
Q 3191 2616 2906 2266 
Q 2828 2175 2409 1742 
Q 1991 1309 1228 531 
z
" transform="scale(0.015625)"/>
        <path id="DejaVuSans-30" d="M 2034 4250 
Q 1547 4250 1301 3770 
Q 1056 3291 1056 2328 
Q 1056 1369 1301 889 
Q 1547 409 2034 409 
Q 2525 409 2770 889 
Q 3016 1369 3016 2328 
Q 3016 3291 2770 3770 
Q 2525 4250 2034 4250 
z
M 2034 4750 
Q 2819 4750 3233 4129 
Q 3647 3509 3647 2328 
Q 3647 1150 3233 529 
Q 2819 -91 2034 -91 
Q 1250 -91 836 529 
Q 422 1150 422 2328 
Q 422 3509 836 4129 
Q 1250 4750 2034 4750 
z
" transform="scale(0.015625)"/>
        <path id="DejaVuSans-33" d="M 2597 2516 
Q 3050 2419 3304 2112 
Q 3559 1806 3559 1356 
Q 3559 666 3084 287 
Q 2609 -91 1734 -91 
Q 1441 -91 1130 -33 
Q 819 25 488 141 
L 488 750 
Q 750 597 1062 519 
Q 1375 441 1716 441 
Q 2309 441 2620 675 
Q 2931 909 2931 1356 
Q 2931 1769 2642 2001 
Q 2353 2234 1838 2234 
L 1294 2234 
L 1294 2753 
L 1863 2753 
Q 2328 2753 2575 2939 
Q 2822 3125 2822 3475 
Q 2822 3834 2567 4026 
Q 2313 4219 1838 4219 
Q 1578 4219 1281 4162 
Q 984 4106 628 3988 
L 628 4550 
Q 988 4650 1302 4700 
Q 1616 4750 1894 4750 
Q 2613 4750 3031 4423 
Q 3450 4097 3450 3541 
Q 3450 3153 3228 2886 
Q 3006 2619 2597 2516 
z
" transform="scale(0.015625)"/>
        <path id="DejaVuSans-2d" d="M 313 2009 
L 1997 2009 
L 1997 1497 
L 313 1497 
L 313 2009 
z
" transform="scale(0.015625)"/>
        <path id="DejaVuSans-31" d="M 794 531 
L 1825 531 
L 1825 4091 
L 703 3866 
L 703 4441 
L 1819 4666 
L 2450 4666 
L 2450 531 
L 3481 531 
L 3481 0 
L 794 0 
L 794 531 
z
" transform="scale(0.015625)"/>
       </defs>
       <use xlink:href="#DejaVuSans-32"/>
       <use xlink:href="#DejaVuSans-30" x="63.623047"/>
       <use xlink:href="#DejaVuSans-32" x="127.246094"/>
       <use xlink:href="#DejaVuSans-33" x="190.869141"/>
       <use xlink:href="#DejaVuSans-2d" x="254.492188"/>
       <use xlink:href="#DejaVuSans-31" x="290.576172"/>
       <use xlink:href="#DejaVuSans-31" x="354.199219"/>
       <use xlink:href="#DejaVuSans-2d" x="417.822266"/>
       <use xlink:href="#DejaVuSans-31" x="453.90625"/>
       <use xlink:href="#DejaVuSans-33" x="517.529297"/>
      </g>
     </g>
    </g>
    <g id="xtick_2">
     <g id="line2d_2">
      <g>
       <use xlink:href="#mce976010d9" x="185.713462" y="316.08" style="stroke: #000000; stroke-width: 0.8"/>
      </g>
     </g>
     <g id="text_2">
      <!-- 2023-11-17 -->
      <g transform="translate(134.344011 358.718252) rotate(-30) scale(0.1 -0.1)">
       <defs>
        <path id="DejaVuSans-37" d="M 525 4666 
L 3525 4666 
L 3525 4397 
L 1831 0 
L 1172 0 
L 2766 4134 
L 525 4134 
L 525 4666 
z
" transform="scale(0.015625)"/>
       </defs>
       <use xlink:href="#DejaVuSans-32"/>
       <use xlink:href="#DejaVuSans-30" x="63.623047"/>
       <use xlink:href="#DejaVuSans-32" x="127.246094"/>
       <use xlink:href="#DejaVuSans-33" x="190.869141"/>
       <use xlink:href="#DejaVuSans-2d" x="254.492188"/>
       <use xlink:href="#DejaVuSans-31" x="290.576172"/>
       <use xlink:href="#DejaVuSans-31" x="354.199219"/>
       <use xlink:href="#DejaVuSans-2d" x="417.822266"/>
       <use xlink:href="#DejaVuSans-31" x="453.90625"/>
       <use xlink:href="#DejaVuSans-37" x="517.529297"/>
      </g>
     </g>
    </g>
    <g id="xtick_3">
     <g id="line2d_3">
      <g>
       <use xlink:href="#mce976010d9" x="266.317349" y="316.08" style="stroke: #000000; stroke-width: 0.8"/>
      </g>
     </g>
     <g id="text_3">
      <!-- 2023-11-21 -->
      <g transform="translate(214.947898 358.718252) rotate(-30) scale(0.1 -0.1)">
       <use xlink:href="#DejaVuSans-32"/>
       <use xlink:href="#DejaVuSans-30" x="63.623047"/>
       <use xlink:href="#DejaVuSans-32" x="127.246094"/>
       <use xlink:href="#DejaVuSans-33" x="190.869141"/>
       <use xlink:href="#DejaVuSans-2d" x="254.492188"/>
       <use xlink:href="#DejaVuSans-31" x="290.576172"/>
       <use xlink:href="#DejaVuSans-31" x="354.199219"/>
       <use xlink:href="#DejaVuSans-2d" x="417.822266"/>
       <use xlink:href="#DejaVuSans-32" x="453.90625"/>
       <use xlink:href="#DejaVuSans-31" x="517.529297"/>
      </g>
     </g>
    </g>
    <g id="xtick_4">
     <g id="line2d_4">
      <g>
       <use xlink:href="#mce976010d9" x="346.921236" y="316.08" style="stroke: #000000; stroke-width: 0.8"/>
      </g>
     </g>
     <g id="text_4">
      <!-- 2023-11-25 -->
      <g transform="translate(295.551785 358.718252) rotate(-30) scale(0.1 -0.1)">
       <defs>
        <path id="DejaVuSans-35" d="M 691 4666 
L 3169 4666 
L 3169 4134 
L 1269 4134 
L 1269 2991 
Q 1406 3038 1543 3061 
Q 1681 3084 1819 3084 
Q 2600 3084 3056 2656 
Q 3513 2228 3513 1497 
Q 3513 744 3044 326 
Q 2575 -91 1722 -91 
Q 1428 -91 1123 -41 
Q 819 9 494 109 
L 494 744 
Q 775 591 1075 516 
Q 1375 441 1709 441 
Q 2250 441 2565 725 
Q 2881 1009 2881 1497 
Q 2881 1984 2565 2268 
Q 2250 2553 1709 2553 
Q 1456 2553 1204 2497 
Q 953 2441 691 2322 
L 691 4666 
z
" transform="scale(0.015625)"/>
       </defs>
       <use xlink:href="#DejaVuSans-32"/>
       <use xlink:href="#DejaVuSans-30" x="63.623047"/>
       <use xlink:href="#DejaVuSans-32" x="127.246094"/>
       <use xlink:href="#DejaVuSans-33" x="190.869141"/>
       <use xlink:href="#DejaVuSans-2d" x="254.492188"/>
       <use xlink:href="#DejaVuSans-31" x="290.576172"/>
       <use xlink:href="#DejaVuSans-31" x="354.199219"/>
       <use xlink:href="#DejaVuSans-2d" x="417.822266"/>
       <use xlink:href="#DejaVuSans-32" x="453.90625"/>
       <use xlink:href="#DejaVuSans-35" x="517.529297"/>
      </g>
     </g>
    </g>
    <g id="xtick_5">
     <g id="line2d_5">
      <g>
       <use xlink:href="#mce976010d9" x="427.525123" y="316.08" style="stroke: #000000; stroke-width: 0.8"/>
      </g>
     </g>
     <g id="text_5">
      <!-- 2023-11-29 -->
      <g transform="translate(376.155672 358.718252) rotate(-30) scale(0.1 -0.1)">
       <defs>
        <path id="DejaVuSans-39" d="M 703 97 
L 703 672 
Q 941 559 1184 500 
Q 1428 441 1663 441 
Q 2288 441 2617 861 
Q 2947 1281 2994 2138 
Q 2813 1869 2534 1725 
Q 2256 1581 1919 1581 
Q 1219 1581 811 2004 
Q 403 2428 403 3163 
Q 403 3881 828 4315 
Q 1253 4750 1959 4750 
Q 2769 4750 3195 4129 
Q 3622 3509 3622 2328 
Q 3622 1225 3098 567 
Q 2575 -91 1691 -91 
Q 1453 -91 1209 -44 
Q 966 3 703 97 
z
M 1959 2075 
Q 2384 2075 2632 2365 
Q 2881 2656 2881 3163 
Q 2881 3666 2632 3958 
Q 2384 4250 1959 4250 
Q 1534 4250 1286 3958 
Q 1038 3666 1038 3163 
Q 1038 2656 1286 2365 
Q 1534 2075 1959 2075 
z
" transform="scale(0.015625)"/>
       </defs>
       <use xlink:href="#DejaVuSans-32"/>
       <use xlink:href="#DejaVuSans-30" x="63.623047"/>
       <use xlink:href="#DejaVuSans-32" x="127.246094"/>
       <use xlink:href="#DejaVuSans-33" x="190.869141"/>
       <use xlink:href="#DejaVuSans-2d" x="254.492188"/>
       <use xlink:href="#DejaVuSans-31" x="290.576172"/>
       <use xlink:href="#DejaVuSans-31" x="354.199219"/>
       <use xlink:href="#DejaVuSans-2d" x="417.822266"/>
       <use xlink:href="#DejaVuSans-32" x="453.90625"/>
       <use xlink:href="#DejaVuSans-39" x="517.529297"/>
      </g>
     </g>
    </g>
    <g id="xtick_6">
     <g id="line2d_6">
      <g>
       <use xlink:href="#mce976010d9" x="467.827067" y="316.08" style="stroke: #000000; stroke-width: 0.8"/>
      </g>
     </g>
     <g id="text_6">
      <!-- 2023-12-01 -->
      <g transform="translate(416.457616 358.718252) rotate(-30) scale(0.1 -0.1)">
       <use xlink:href="#DejaVuSans-32"/>
       <use xlink:href="#DejaVuSans-30" x="63.623047"/>
       <use xlink:href="#DejaVuSans-32" x="127.246094"/>
       <use xlink:href="#DejaVuSans-33" x="190.869141"/>
       <use xlink:href="#DejaVuSans-2d" x="254.492188"/>
       <use xlink:href="#DejaVuSans-31" x="290.576172"/>
       <use xlink:href="#DejaVuSans-32" x="354.199219"/>
       <use xlink:href="#DejaVuSans-2d" x="417.822266"/>
       <use xlink:href="#DejaVuSans-30" x="453.90625"/>
       <use xlink:href="#DejaVuSans-31" x="517.529297"/>
      </g>
     </g>
    </g>
    <g id="xtick_7">
     <g id="line2d_7">
      <g>
       <use xlink:href="#mce976010d9" x="548.430954" y="316.08" style="stroke: #000000; stroke-width: 0.8"/>
      </g>
     </g>
     <g id="text_7">
      <!-- 2023-12-05 -->
      <g transform="translate(497.061503 358.718252) rotate(-30) scale(0.1 -0.1)">
       <use xlink:href="#DejaVuSans-32"/>
       <use xlink:href="#DejaVuSans-30" x="63.623047"/>
       <use xlink:href="#DejaVuSans-32" x="127.246094"/>
       <use xlink:href="#DejaVuSans-33" x="190.869141"/>
       <use xlink:href="#DejaVuSans-2d" x="254.492188"/>
       <use xlink:href="#DejaVuSans-31" x="290.576172"/>
       <use xlink:href="#DejaVuSans-32" x="354.199219"/>
       <use xlink:href="#DejaVuSans-2d" x="417.822266"/>
       <use xlink:href="#DejaVuSans-30" x="453.90625"/>
       <use xlink:href="#DejaVuSans-35" x="517.529297"/>
      </g>
     </g>
    </g>
    <g id="xtick_8">
     <g id="line2d_8">
      <g>
       <use xlink:href="#mce976010d9" x="629.034841" y="316.08" style="stroke: #000000; stroke-width: 0.8"/>
      </g>
     </g>
     <g id="text_8">
      <!-- 2023-12-09 -->
      <g transform="translate(577.66539 358.718252) rotate(-30) scale(0.1 -0.1)">
       <use xlink:href="#DejaVuSans-32"/>
       <use xlink:href="#DejaVuSans-30" x="63.623047"/>
       <use xlink:href="#DejaVuSans-32" x="127.246094"/>
       <use xlink:href="#DejaVuSans-33" x="190.869141"/>
       <use xlink:href="#DejaVuSans-2d" x="254.492188"/>
       <use xlink:href="#DejaVuSans-31" x="290.576172"/>
       <use xlink:href="#DejaVuSans-32" x="354.199219"/>
       <use xlink:href="#DejaVuSans-2d" x="417.822266"/>
       <use xlink:href="#DejaVuSans-30" x="453.90625"/>
       <use xlink:href="#DejaVuSans-39" x="517.529297"/>
      </g>
     </g>
    </g>
    <g id="xtick_9">
     <g id="line2d_9">
      <g>
       <use xlink:href="#mce976010d9" x="709.638728" y="316.08" style="stroke: #000000; stroke-width: 0.8"/>
      </g>
     </g>
     <g id="text_9">
      <!-- 2023-12-13 -->
      <g transform="translate(658.269277 358.718252) rotate(-30) scale(0.1 -0.1)">
       <use xlink:href="#DejaVuSans-32"/>
       <use xlink:href="#DejaVuSans-30" x="63.623047"/>
       <use xlink:href="#DejaVuSans-32" x="127.246094"/>
       <use xlink:href="#DejaVuSans-33" x="190.869141"/>
       <use xlink:href="#DejaVuSans-2d" x="254.492188"/>
       <use xlink:href="#DejaVuSans-31" x="290.576172"/>
       <use xlink:href="#DejaVuSans-32" x="354.199219"/>
       <use xlink:href="#DejaVuSans-2d" x="417.822266"/>
       <use xlink:href="#DejaVuSans-31" x="453.90625"/>
       <use xlink:href="#DejaVuSans-33" x="517.529297"/>
      </g>
     </g>
    </g>
    <g id="text_10">
     <!-- Date -->
     <g transform="translate(369.814844 372.117752) scale(0.1 -0.1)">
      <defs>
       <path id="DejaVuSans-44" d="M 1259 4147 
L 1259 519 
L 2022 519 
Q 2988 519 3436 956 
Q 3884 1394 3884 2338 
Q 3884 3275 3436 3711 
Q 2988 4147 2022 4147 
L 1259 4147 
z
M 628 4666 
L 1925 4666 
Q 3281 4666 3915 4102 
Q 4550 3538 4550 2338 
Q 4550 1131 3912 565 
Q 3275 0 1925 0 
L 628 0 
L 628 4666 
z
" transform="scale(0.015625)"/>
       <path id="DejaVuSans-61" d="M 2194 1759 
Q 1497 1759 1228 1600 
Q 959 1441 959 1056 
Q 959 750 1161 570 
Q 1363 391 1709 391 
Q 2188 391 2477 730 
Q 2766 1069 2766 1631 
L 2766 1759 
L 2194 1759 
z
M 3341 1997 
L 3341 0 
L 2766 0 
L 2766 531 
Q 2569 213 2275 61 
Q 1981 -91 1556 -91 
Q 1019 -91 701 211 
Q 384 513 384 1019 
Q 384 1609 779 1909 
Q 1175 2209 1959 2209 
L 2766 2209 
L 2766 2266 
Q 2766 2663 2505 2880 
Q 2244 3097 1772 3097 
Q 1472 3097 1187 3025 
Q 903 2953 641 2809 
L 641 3341 
Q 956 3463 1253 3523 
Q 1550 3584 1831 3584 
Q 2591 3584 2966 3190 
Q 3341 2797 3341 1997 
z
" transform="scale(0.015625)"/>
       <path id="DejaVuSans-74" d="M 1172 4494 
L 1172 3500 
L 2356 3500 
L 2356 3053 
L 1172 3053 
L 1172 1153 
Q 1172 725 1289 603 
Q 1406 481 1766 481 
L 2356 481 
L 2356 0 
L 1766 0 
Q 1100 0 847 248 
Q 594 497 594 1153 
L 594 3053 
L 172 3053 
L 172 3500 
L 594 3500 
L 594 4494 
L 1172 4494 
z
" transform="scale(0.015625)"/>
       <path id="DejaVuSans-65" d="M 3597 1894 
L 3597 1613 
L 953 1613 
Q 991 1019 1311 708 
Q 1631 397 2203 397 
Q 2534 397 2845 478 
Q 3156 559 3463 722 
L 3463 178 
Q 3153 47 2828 -22 
Q 2503 -91 2169 -91 
Q 1331 -91 842 396 
Q 353 884 353 1716 
Q 353 2575 817 3079 
Q 1281 3584 2069 3584 
Q 2775 3584 3186 3129 
Q 3597 2675 3597 1894 
z
M 3022 2063 
Q 3016 2534 2758 2815 
Q 2500 3097 2075 3097 
Q 1594 3097 1305 2825 
Q 1016 2553 972 2059 
L 3022 2063 
z
" transform="scale(0.015625)"/>
      </defs>
      <use xlink:href="#DejaVuSans-44"/>
      <use xlink:href="#DejaVuSans-61" x="77.001953"/>
      <use xlink:href="#DejaVuSans-74" x="138.28125"/>
      <use xlink:href="#DejaVuSans-65" x="177.490234"/>
     </g>
    </g>
   </g>
   <g id="matplotlib.axis_2">
    <g id="ytick_1">
     <g id="line2d_10">
      <defs>
       <path id="ma6cafec42b" d="M 0 0 
L -3.5 0 
" style="stroke: #000000; stroke-width: 0.8"/>
      </defs>
      <g>
       <use xlink:href="#ma6cafec42b" x="46.965625" y="316.08" style="stroke: #000000; stroke-width: 0.8"/>
      </g>
     </g>
     <g id="text_11">
      <!-- 0 -->
      <g transform="translate(33.603125 319.879219) scale(0.1 -0.1)">
       <use xlink:href="#DejaVuSans-30"/>
      </g>
     </g>
    </g>
    <g id="ytick_2">
     <g id="line2d_11">
      <g>
       <use xlink:href="#ma6cafec42b" x="46.965625" y="266.014384" style="stroke: #000000; stroke-width: 0.8"/>
      </g>
     </g>
     <g id="text_12">
      <!-- 20 -->
      <g transform="translate(27.240625 269.813603) scale(0.1 -0.1)">
       <use xlink:href="#DejaVuSans-32"/>
       <use xlink:href="#DejaVuSans-30" x="63.623047"/>
      </g>
     </g>
    </g>
    <g id="ytick_3">
     <g id="line2d_12">
      <g>
       <use xlink:href="#ma6cafec42b" x="46.965625" y="215.948769" style="stroke: #000000; stroke-width: 0.8"/>
      </g>
     </g>
     <g id="text_13">
      <!-- 40 -->
      <g transform="translate(27.240625 219.747987) scale(0.1 -0.1)">
       <defs>
        <path id="DejaVuSans-34" d="M 2419 4116 
L 825 1625 
L 2419 1625 
L 2419 4116 
z
M 2253 4666 
L 3047 4666 
L 3047 1625 
L 3713 1625 
L 3713 1100 
L 3047 1100 
L 3047 0 
L 2419 0 
L 2419 1100 
L 313 1100 
L 313 1709 
L 2253 4666 
z
" transform="scale(0.015625)"/>
       </defs>
       <use xlink:href="#DejaVuSans-34"/>
       <use xlink:href="#DejaVuSans-30" x="63.623047"/>
      </g>
     </g>
    </g>
    <g id="ytick_4">
     <g id="line2d_13">
      <g>
       <use xlink:href="#ma6cafec42b" x="46.965625" y="165.883153" style="stroke: #000000; stroke-width: 0.8"/>
      </g>
     </g>
     <g id="text_14">
      <!-- 60 -->
      <g transform="translate(27.240625 169.682372) scale(0.1 -0.1)">
       <defs>
        <path id="DejaVuSans-36" d="M 2113 2584 
Q 1688 2584 1439 2293 
Q 1191 2003 1191 1497 
Q 1191 994 1439 701 
Q 1688 409 2113 409 
Q 2538 409 2786 701 
Q 3034 994 3034 1497 
Q 3034 2003 2786 2293 
Q 2538 2584 2113 2584 
z
M 3366 4563 
L 3366 3988 
Q 3128 4100 2886 4159 
Q 2644 4219 2406 4219 
Q 1781 4219 1451 3797 
Q 1122 3375 1075 2522 
Q 1259 2794 1537 2939 
Q 1816 3084 2150 3084 
Q 2853 3084 3261 2657 
Q 3669 2231 3669 1497 
Q 3669 778 3244 343 
Q 2819 -91 2113 -91 
Q 1303 -91 875 529 
Q 447 1150 447 2328 
Q 447 3434 972 4092 
Q 1497 4750 2381 4750 
Q 2619 4750 2861 4703 
Q 3103 4656 3366 4563 
z
" transform="scale(0.015625)"/>
       </defs>
       <use xlink:href="#DejaVuSans-36"/>
       <use xlink:href="#DejaVuSans-30" x="63.623047"/>
      </g>
     </g>
    </g>
    <g id="ytick_5">
     <g id="line2d_14">
      <g>
       <use xlink:href="#ma6cafec42b" x="46.965625" y="115.817537" style="stroke: #000000; stroke-width: 0.8"/>
      </g>
     </g>
     <g id="text_15">
      <!-- 80 -->
      <g transform="translate(27.240625 119.616756) scale(0.1 -0.1)">
       <defs>
        <path id="DejaVuSans-38" d="M 2034 2216 
Q 1584 2216 1326 1975 
Q 1069 1734 1069 1313 
Q 1069 891 1326 650 
Q 1584 409 2034 409 
Q 2484 409 2743 651 
Q 3003 894 3003 1313 
Q 3003 1734 2745 1975 
Q 2488 2216 2034 2216 
z
M 1403 2484 
Q 997 2584 770 2862 
Q 544 3141 544 3541 
Q 544 4100 942 4425 
Q 1341 4750 2034 4750 
Q 2731 4750 3128 4425 
Q 3525 4100 3525 3541 
Q 3525 3141 3298 2862 
Q 3072 2584 2669 2484 
Q 3125 2378 3379 2068 
Q 3634 1759 3634 1313 
Q 3634 634 3220 271 
Q 2806 -91 2034 -91 
Q 1263 -91 848 271 
Q 434 634 434 1313 
Q 434 1759 690 2068 
Q 947 2378 1403 2484 
z
M 1172 3481 
Q 1172 3119 1398 2916 
Q 1625 2713 2034 2713 
Q 2441 2713 2670 2916 
Q 2900 3119 2900 3481 
Q 2900 3844 2670 4047 
Q 2441 4250 2034 4250 
Q 1625 4250 1398 4047 
Q 1172 3844 1172 3481 
z
" transform="scale(0.015625)"/>
       </defs>
       <use xlink:href="#DejaVuSans-38"/>
       <use xlink:href="#DejaVuSans-30" x="63.623047"/>
      </g>
     </g>
    </g>
    <g id="ytick_6">
     <g id="line2d_15">
      <g>
       <use xlink:href="#ma6cafec42b" x="46.965625" y="65.751922" style="stroke: #000000; stroke-width: 0.8"/>
      </g>
     </g>
     <g id="text_16">
      <!-- 100 -->
      <g transform="translate(20.878125 69.55114) scale(0.1 -0.1)">
       <use xlink:href="#DejaVuSans-31"/>
       <use xlink:href="#DejaVuSans-30" x="63.623047"/>
       <use xlink:href="#DejaVuSans-30" x="127.246094"/>
      </g>
     </g>
    </g>
    <g id="text_17">
     <!-- g/kWh -->
     <g transform="translate(14.798438 185.066406) rotate(-90) scale(0.1 -0.1)">
      <defs>
       <path id="DejaVuSans-67" d="M 2906 1791 
Q 2906 2416 2648 2759 
Q 2391 3103 1925 3103 
Q 1463 3103 1205 2759 
Q 947 2416 947 1791 
Q 947 1169 1205 825 
Q 1463 481 1925 481 
Q 2391 481 2648 825 
Q 2906 1169 2906 1791 
z
M 3481 434 
Q 3481 -459 3084 -895 
Q 2688 -1331 1869 -1331 
Q 1566 -1331 1297 -1286 
Q 1028 -1241 775 -1147 
L 775 -588 
Q 1028 -725 1275 -790 
Q 1522 -856 1778 -856 
Q 2344 -856 2625 -561 
Q 2906 -266 2906 331 
L 2906 616 
Q 2728 306 2450 153 
Q 2172 0 1784 0 
Q 1141 0 747 490 
Q 353 981 353 1791 
Q 353 2603 747 3093 
Q 1141 3584 1784 3584 
Q 2172 3584 2450 3431 
Q 2728 3278 2906 2969 
L 2906 3500 
L 3481 3500 
L 3481 434 
z
" transform="scale(0.015625)"/>
       <path id="DejaVuSans-2f" d="M 1625 4666 
L 2156 4666 
L 531 -594 
L 0 -594 
L 1625 4666 
z
" transform="scale(0.015625)"/>
       <path id="DejaVuSans-6b" d="M 581 4863 
L 1159 4863 
L 1159 1991 
L 2875 3500 
L 3609 3500 
L 1753 1863 
L 3688 0 
L 2938 0 
L 1159 1709 
L 1159 0 
L 581 0 
L 581 4863 
z
" transform="scale(0.015625)"/>
       <path id="DejaVuSans-57" d="M 213 4666 
L 850 4666 
L 1831 722 
L 2809 4666 
L 3519 4666 
L 4500 722 
L 5478 4666 
L 6119 4666 
L 4947 0 
L 4153 0 
L 3169 4050 
L 2175 0 
L 1381 0 
L 213 4666 
z
" transform="scale(0.015625)"/>
       <path id="DejaVuSans-68" d="M 3513 2113 
L 3513 0 
L 2938 0 
L 2938 2094 
Q 2938 2591 2744 2837 
Q 2550 3084 2163 3084 
Q 1697 3084 1428 2787 
Q 1159 2491 1159 1978 
L 1159 0 
L 581 0 
L 581 4863 
L 1159 4863 
L 1159 2956 
Q 1366 3272 1645 3428 
Q 1925 3584 2291 3584 
Q 2894 3584 3203 3211 
Q 3513 2838 3513 2113 
z
" transform="scale(0.015625)"/>
      </defs>
      <use xlink:href="#DejaVuSans-67"/>
      <use xlink:href="#DejaVuSans-2f" x="63.476562"/>
      <use xlink:href="#DejaVuSans-6b" x="97.167969"/>
      <use xlink:href="#DejaVuSans-57" x="155.078125"/>
      <use xlink:href="#DejaVuSans-68" x="253.955078"/>
     </g>
    </g>
   </g>
   <g id="line2d_16">
    <path d="M 77.401989 100.797853 
L 78.241612 90.784729 
L 79.081236 85.778168 
L 79.92086 90.784729 
L 80.760484 83.274887 
L 81.600108 90.784729 
L 82.439732 88.281449 
L 84.118979 140.850345 
L 84.958603 183.406118 
L 85.798227 198.425803 
L 86.637851 210.942207 
L 87.477475 178.399557 
L 88.317098 158.373311 
L 89.156722 163.379872 
L 89.996346 175.896276 
L 90.83597 155.87003 
L 91.675594 155.87003 
L 93.354841 170.889715 
L 94.194465 185.909399 
L 95.034089 163.379872 
L 95.873713 153.366749 
L 96.713337 155.87003 
L 98.392584 103.301133 
L 99.232208 100.797853 
L 100.071832 103.301133 
L 100.911456 115.817537 
L 101.75108 123.32738 
L 102.590703 135.843784 
L 103.430327 178.399557 
L 104.269951 208.438926 
L 105.109575 220.95533 
L 106.788822 266.014384 
L 107.628446 263.511104 
L 108.46807 235.975015 
L 110.986942 173.392995 
L 111.826565 145.856907 
L 112.666189 140.850345 
L 114.345437 183.406118 
L 115.185061 178.399557 
L 116.024685 195.922522 
L 117.703932 200.929084 
L 118.543556 183.406118 
L 119.38318 155.87003 
L 120.222804 133.340503 
L 121.062428 133.340503 
L 121.902051 173.392995 
L 122.741675 175.896276 
L 124.420923 210.942207 
L 125.260547 245.988138 
L 126.10017 240.981576 
L 126.939794 230.968453 
L 127.779418 225.961892 
L 128.619042 225.961892 
L 129.458666 200.929084 
L 130.29829 148.360187 
L 131.137913 88.281449 
L 131.977537 63.248641 
L 132.817161 68.255202 
L 134.496409 93.28801 
L 135.336033 100.797853 
L 136.175656 110.810976 
L 137.01528 103.301133 
L 137.854904 118.320818 
L 138.694528 110.810976 
L 139.534152 83.274887 
L 141.213399 103.301133 
L 142.053023 105.804414 
L 142.892647 120.824099 
L 143.732271 170.889715 
L 144.571895 195.922522 
L 145.411518 233.471734 
L 146.251142 256.001261 
L 147.090766 263.511104 
L 147.93039 256.001261 
L 149.609638 230.968453 
L 150.449261 210.942207 
L 151.288885 195.922522 
L 152.128509 210.942207 
L 153.807757 220.95533 
L 154.64738 218.452049 
L 155.487004 233.471734 
L 156.326628 233.471734 
L 157.166252 200.929084 
L 158.8455 163.379872 
L 159.685123 173.392995 
L 160.524747 173.392995 
L 161.364371 165.883153 
L 162.203995 160.876591 
L 163.043619 180.902838 
L 163.883243 193.419242 
L 164.722866 228.465173 
L 165.56249 215.948769 
L 166.402114 190.915961 
L 167.241738 173.392995 
L 168.081362 173.392995 
L 168.920986 183.406118 
L 169.760609 150.863468 
L 170.600233 125.83066 
L 171.439857 113.314256 
L 172.279481 125.83066 
L 173.119105 150.863468 
L 173.958728 170.889715 
L 174.798352 173.392995 
L 175.637976 170.889715 
L 176.4776 190.915961 
L 177.317224 185.909399 
L 178.156848 178.399557 
L 178.996471 163.379872 
L 179.836095 158.373311 
L 180.675719 170.889715 
L 181.515343 193.419242 
L 182.354967 205.935646 
L 183.194591 228.465173 
L 184.034214 278.530788 
L 184.873838 288.543911 
L 185.713462 288.543911 
L 186.553086 286.040631 
L 187.39271 286.040631 
L 188.232333 281.034069 
L 189.071957 266.014384 
L 189.911581 245.988138 
L 190.751205 240.981576 
L 191.590829 245.988138 
L 193.270076 245.988138 
L 194.1097 228.465173 
L 194.949324 215.948769 
L 195.788948 210.942207 
L 196.628572 213.445488 
L 197.468196 190.915961 
L 198.307819 203.432365 
L 199.147443 183.406118 
L 199.987067 138.347064 
L 200.826691 128.333941 
L 201.666315 125.83066 
L 202.505938 120.824099 
L 203.345562 123.32738 
L 204.185186 150.863468 
L 205.864434 228.465173 
L 206.704058 250.9947 
L 207.543681 253.49798 
L 208.383305 240.981576 
L 209.222929 220.95533 
L 210.062553 208.438926 
L 210.902177 183.406118 
L 211.741801 180.902838 
L 212.581424 188.41268 
L 213.421048 200.929084 
L 214.260672 238.478296 
L 215.100296 250.9947 
L 215.93992 248.491419 
L 216.779543 243.484857 
L 217.619167 228.465173 
L 218.458791 205.935646 
L 219.298415 190.915961 
L 220.138039 195.922522 
L 221.817286 195.922522 
L 222.65691 210.942207 
L 223.496534 215.948769 
L 224.336158 235.975015 
L 225.175782 238.478296 
L 226.015406 245.988138 
L 226.855029 248.491419 
L 227.694653 245.988138 
L 228.534277 261.007823 
L 229.373901 258.504542 
L 230.213525 233.471734 
L 231.053149 203.432365 
L 231.892772 230.968453 
L 232.732396 230.968453 
L 233.57202 218.452049 
L 234.411644 200.929084 
L 235.251268 213.445488 
L 236.090891 205.935646 
L 236.930515 193.419242 
L 237.770139 173.392995 
L 239.449387 118.320818 
L 240.289011 103.301133 
L 241.128634 95.791291 
L 241.968258 100.797853 
L 242.807882 98.294572 
L 243.647506 98.294572 
L 244.48713 108.307695 
L 245.326754 123.32738 
L 246.166377 153.366749 
L 247.006001 160.876591 
L 248.685249 150.863468 
L 249.524873 165.883153 
L 252.043744 93.28801 
L 252.883368 105.804414 
L 253.722992 98.294572 
L 254.562616 93.28801 
L 255.402239 98.294572 
L 256.241863 98.294572 
L 257.081487 103.301133 
L 257.921111 115.817537 
L 258.760735 133.340503 
L 259.600359 133.340503 
L 260.439982 105.804414 
L 261.279606 108.307695 
L 262.11923 113.314256 
L 262.958854 128.333941 
L 263.798478 135.843784 
L 264.638101 175.896276 
L 267.156973 233.471734 
L 267.996597 230.968453 
L 268.836221 223.458611 
L 269.675844 220.95533 
L 271.355092 170.889715 
L 272.194716 158.373311 
L 273.03434 140.850345 
L 273.873964 160.876591 
L 274.713587 138.347064 
L 275.553211 135.843784 
L 277.232459 100.797853 
L 278.911707 115.817537 
L 279.75133 110.810976 
L 280.590954 113.314256 
L 281.430578 105.804414 
L 282.270202 90.784729 
L 283.109826 90.784729 
L 283.949449 88.281449 
L 284.789073 98.294572 
L 285.628697 143.353626 
L 286.468321 168.386434 
L 287.307945 183.406118 
L 288.147569 173.392995 
L 288.987192 200.929084 
L 289.826816 173.392995 
L 290.66644 178.399557 
L 291.506064 168.386434 
L 293.185312 88.281449 
L 294.024935 83.274887 
L 294.864559 100.797853 
L 295.704183 90.784729 
L 296.543807 90.784729 
L 298.223054 80.771606 
L 299.062678 80.771606 
L 299.902302 68.255202 
L 300.741926 53.235518 
L 301.58155 48.228956 
L 302.421174 50.732237 
L 303.260797 85.778168 
L 304.100421 95.791291 
L 304.940045 98.294572 
L 305.779669 128.333941 
L 306.619293 150.863468 
L 307.458917 205.935646 
L 308.29854 193.419242 
L 309.138164 195.922522 
L 309.977788 190.915961 
L 310.817412 180.902838 
L 311.657036 173.392995 
L 313.336283 180.902838 
L 314.175907 183.406118 
L 315.015531 183.406118 
L 316.694779 120.824099 
L 317.534402 120.824099 
L 318.374026 108.307695 
L 319.21365 103.301133 
L 320.053274 123.32738 
L 320.892898 135.843784 
L 321.732522 140.850345 
L 322.572145 165.883153 
L 323.411769 170.889715 
L 324.251393 170.889715 
L 325.091017 165.883153 
L 325.930641 170.889715 
L 326.770264 188.41268 
L 327.609888 218.452049 
L 328.449512 200.929084 
L 330.12876 200.929084 
L 330.968384 193.419242 
L 331.808007 180.902838 
L 332.647631 135.843784 
L 334.326879 140.850345 
L 335.166503 165.883153 
L 336.84575 165.883153 
L 337.685374 160.876591 
L 338.524998 170.889715 
L 339.364622 168.386434 
L 340.204246 143.353626 
L 341.04387 103.301133 
L 341.883493 95.791291 
L 342.723117 103.301133 
L 343.562741 103.301133 
L 344.402365 105.804414 
L 345.241989 128.333941 
L 346.081612 140.850345 
L 346.921236 155.87003 
L 347.76086 158.373311 
L 348.600484 163.379872 
L 349.440108 163.379872 
L 351.958979 185.909399 
L 352.798603 168.386434 
L 353.638227 153.366749 
L 355.317475 133.340503 
L 356.157098 138.347064 
L 356.996722 150.863468 
L 357.836346 158.373311 
L 358.67597 150.863468 
L 359.515594 103.301133 
L 360.355217 105.804414 
L 361.194841 85.778168 
L 362.034465 105.804414 
L 362.874089 95.791291 
L 363.713713 95.791291 
L 364.553337 103.301133 
L 365.39296 123.32738 
L 366.232584 135.843784 
L 367.072208 163.379872 
L 367.911832 153.366749 
L 368.751456 160.876591 
L 369.59108 170.889715 
L 370.430703 178.399557 
L 371.270327 165.883153 
L 372.109951 170.889715 
L 372.949575 170.889715 
L 374.628822 190.915961 
L 375.468446 183.406118 
L 376.30807 178.399557 
L 377.147694 155.87003 
L 377.987318 138.347064 
L 378.826942 128.333941 
L 379.666565 125.83066 
L 380.506189 135.843784 
L 381.345813 138.347064 
L 382.185437 150.863468 
L 383.025061 153.366749 
L 383.864685 170.889715 
L 384.704308 218.452049 
L 385.543932 250.9947 
L 387.22318 296.053754 
L 388.062804 303.563596 
L 389.742051 303.563596 
L 390.581675 291.047192 
L 391.421299 266.014384 
L 392.260923 256.001261 
L 393.100547 228.465173 
L 393.94017 215.948769 
L 394.779794 205.935646 
L 395.619418 220.95533 
L 396.459042 223.458611 
L 397.298666 215.948769 
L 398.13829 210.942207 
L 398.977913 213.445488 
L 399.817537 205.935646 
L 400.657161 183.406118 
L 401.496785 175.896276 
L 402.336409 165.883153 
L 403.176033 173.392995 
L 404.015656 165.883153 
L 404.85528 180.902838 
L 405.694904 188.41268 
L 407.374152 223.458611 
L 408.213775 248.491419 
L 409.053399 256.001261 
L 409.893023 261.007823 
L 410.732647 245.988138 
L 412.411895 205.935646 
L 413.251518 165.883153 
L 414.091142 168.386434 
L 414.930766 183.406118 
L 415.77039 188.41268 
L 416.610014 190.915961 
L 417.449638 213.445488 
L 418.289261 220.95533 
L 419.128885 205.935646 
L 419.968509 173.392995 
L 420.808133 125.83066 
L 421.647757 105.804414 
L 422.48738 103.301133 
L 423.327004 113.314256 
L 424.166628 125.83066 
L 425.006252 130.837222 
L 425.845876 133.340503 
L 426.6855 153.366749 
L 427.525123 185.909399 
L 428.364747 198.425803 
L 429.204371 193.419242 
L 430.043995 198.425803 
L 431.723243 198.425803 
L 432.562866 155.87003 
L 433.40249 140.850345 
L 434.242114 143.353626 
L 435.081738 138.347064 
L 435.921362 153.366749 
L 436.760986 160.876591 
L 437.600609 175.896276 
L 438.440233 158.373311 
L 439.279857 138.347064 
L 440.119481 130.837222 
L 441.798728 93.28801 
L 442.638352 98.294572 
L 443.477976 118.320818 
L 444.3176 118.320818 
L 445.157224 135.843784 
L 445.996848 163.379872 
L 446.836471 185.909399 
L 447.676095 185.909399 
L 448.515719 213.445488 
L 449.355343 218.452049 
L 450.194967 213.445488 
L 451.034591 215.948769 
L 451.874214 205.935646 
L 452.713838 185.909399 
L 453.553462 160.876591 
L 454.393086 155.87003 
L 455.23271 175.896276 
L 456.072333 183.406118 
L 456.911957 200.929084 
L 457.751581 210.942207 
L 458.591205 233.471734 
L 459.430829 233.471734 
L 460.270453 215.948769 
L 461.110076 190.915961 
L 461.9497 193.419242 
L 464.468572 185.909399 
L 466.147819 238.478296 
L 466.987443 256.001261 
L 467.827067 248.491419 
L 468.666691 233.471734 
L 469.506315 230.968453 
L 470.345938 225.961892 
L 471.185562 210.942207 
L 472.025186 188.41268 
L 472.86481 153.366749 
L 473.704434 95.791291 
L 474.544058 80.771606 
L 476.223305 95.791291 
L 477.062929 93.28801 
L 477.902553 85.778168 
L 478.742177 83.274887 
L 479.581801 75.765045 
L 480.421424 88.281449 
L 482.100672 103.301133 
L 482.940296 115.817537 
L 483.77992 110.810976 
L 484.619543 100.797853 
L 485.459167 100.797853 
L 486.298791 103.301133 
L 487.138415 148.360187 
L 487.978039 155.87003 
L 489.657286 153.366749 
L 490.49691 160.876591 
L 491.336534 188.41268 
L 492.176158 200.929084 
L 493.015782 198.425803 
L 493.855406 175.896276 
L 494.695029 170.889715 
L 495.534653 145.856907 
L 496.374277 125.83066 
L 497.213901 98.294572 
L 498.053525 93.28801 
L 498.893149 93.28801 
L 499.732772 98.294572 
L 500.572396 113.314256 
L 501.41202 118.320818 
L 502.251644 118.320818 
L 503.091268 125.83066 
L 503.930891 130.837222 
L 504.770515 138.347064 
L 505.610139 158.373311 
L 506.449763 153.366749 
L 507.289387 170.889715 
L 508.129011 210.942207 
L 508.968634 243.484857 
L 509.808258 248.491419 
L 510.647882 258.504542 
L 511.487506 263.511104 
L 512.32713 253.49798 
L 513.166754 248.491419 
L 514.006377 240.981576 
L 514.846001 200.929084 
L 515.685625 178.399557 
L 516.525249 148.360187 
L 517.364873 128.333941 
L 518.204496 113.314256 
L 519.04412 103.301133 
L 519.883744 128.333941 
L 520.723368 143.353626 
L 521.562992 150.863468 
L 522.402616 123.32738 
L 523.242239 113.314256 
L 524.081863 138.347064 
L 524.921487 148.360187 
L 525.761111 173.392995 
L 526.600735 188.41268 
L 527.440359 223.458611 
L 528.279982 218.452049 
L 529.95923 248.491419 
L 531.638478 218.452049 
L 533.317725 125.83066 
L 534.157349 90.784729 
L 534.996973 73.261764 
L 535.836597 60.74536 
L 536.676221 58.242079 
L 537.515844 60.74536 
L 538.355468 65.751922 
L 539.195092 75.765045 
L 540.034716 68.255202 
L 540.87434 78.268326 
L 541.713964 80.771606 
L 542.553587 80.771606 
L 543.393211 85.778168 
L 544.232835 80.771606 
L 545.072459 68.255202 
L 545.912083 75.765045 
L 546.751707 85.778168 
L 548.430954 125.83066 
L 549.270578 123.32738 
L 550.110202 135.843784 
L 550.949826 143.353626 
L 551.789449 145.856907 
L 552.629073 108.307695 
L 554.308321 60.74536 
L 555.147945 45.725675 
L 555.987569 40.719114 
L 557.666816 35.712552 
L 558.50644 55.738798 
L 559.346064 58.242079 
L 560.185688 58.242079 
L 561.025312 53.235518 
L 561.864935 43.222395 
L 562.704559 45.725675 
L 563.544183 53.235518 
L 565.223431 48.228956 
L 566.063054 65.751922 
L 567.742302 133.340503 
L 568.581926 158.373311 
L 569.42155 163.379872 
L 570.261174 155.87003 
L 571.100797 150.863468 
L 571.940421 155.87003 
L 572.780045 153.366749 
L 573.619669 123.32738 
L 574.459293 83.274887 
L 575.298917 70.758483 
L 576.13854 73.261764 
L 576.978164 83.274887 
L 578.657412 93.28801 
L 579.497036 88.281449 
L 580.336659 85.778168 
L 581.176283 93.28801 
L 582.015907 73.261764 
L 582.855531 58.242079 
L 583.695155 70.758483 
L 584.534779 78.268326 
L 585.374402 83.274887 
L 586.214026 98.294572 
L 587.893274 173.392995 
L 588.732898 180.902838 
L 589.572522 193.419242 
L 590.412145 190.915961 
L 591.251769 185.909399 
L 592.091393 183.406118 
L 592.931017 185.909399 
L 593.770641 180.902838 
L 594.610264 133.340503 
L 595.449888 120.824099 
L 596.289512 110.810976 
L 597.129136 108.307695 
L 597.96876 95.791291 
L 598.808384 93.28801 
L 599.648007 75.765045 
L 600.487631 65.751922 
L 601.327255 60.74536 
L 602.166879 40.719114 
L 603.006503 40.719114 
L 603.846127 55.738798 
L 604.68575 55.738798 
L 605.525374 53.235518 
L 606.364998 63.248641 
L 607.204622 90.784729 
L 608.044246 123.32738 
L 608.88387 170.889715 
L 609.723493 193.419242 
L 610.563117 193.419242 
L 611.402741 198.425803 
L 613.081989 193.419242 
L 613.921612 195.922522 
L 615.60086 170.889715 
L 616.440484 163.379872 
L 617.280108 160.876591 
L 618.119732 155.87003 
L 618.959355 165.883153 
L 619.798979 155.87003 
L 620.638603 165.883153 
L 621.478227 148.360187 
L 622.317851 160.876591 
L 623.157475 150.863468 
L 623.997098 148.360187 
L 625.676346 188.41268 
L 626.51597 215.948769 
L 627.355594 230.968453 
L 628.195217 261.007823 
L 629.034841 296.053754 
L 629.874465 303.563596 
L 631.553713 303.563596 
L 632.393337 296.053754 
L 633.23296 286.040631 
L 634.072584 268.517665 
L 634.912208 256.001261 
L 635.751832 258.504542 
L 636.591456 258.504542 
L 637.43108 256.001261 
L 638.270703 248.491419 
L 639.110327 258.504542 
L 639.949951 261.007823 
L 640.789575 253.49798 
L 641.629199 261.007823 
L 642.468822 235.975015 
L 643.308446 223.458611 
L 644.14807 220.95533 
L 645.827318 210.942207 
L 647.506565 225.961892 
L 648.346189 240.981576 
L 649.185813 291.047192 
L 650.025437 301.060315 
L 652.544308 301.060315 
L 653.383932 293.550473 
L 655.06318 273.524227 
L 655.902804 268.517665 
L 656.742428 250.9947 
L 657.582051 228.465173 
L 658.421675 195.922522 
L 659.261299 175.896276 
L 660.100923 148.360187 
L 660.940547 113.314256 
L 661.78017 130.837222 
L 662.619794 140.850345 
L 663.459418 128.333941 
L 664.299042 118.320818 
L 665.138666 118.320818 
L 665.97829 128.333941 
L 666.817913 143.353626 
L 668.497161 210.942207 
L 669.336785 218.452049 
L 670.176409 208.438926 
L 671.016033 223.458611 
L 671.855656 218.452049 
L 672.69528 203.432365 
L 673.534904 185.909399 
L 674.374528 180.902838 
L 675.214152 145.856907 
L 676.053775 125.83066 
L 676.893399 123.32738 
L 677.733023 125.83066 
L 678.572647 138.347064 
L 679.412271 133.340503 
L 680.251895 133.340503 
L 681.091518 130.837222 
L 681.931142 130.837222 
L 683.61039 90.784729 
L 684.450014 85.778168 
L 686.129261 100.797853 
L 686.129261 100.797853 
" clip-path="url(#p2c8cfd214e)" style="fill: none; stroke: #88bde6; stroke-width: 1.5; stroke-linecap: square"/>
   </g>
   <g id="patch_3">
    <path d="M 46.965625 316.08 
L 46.965625 22.32 
" style="fill: none; stroke: #000000; stroke-width: 0.8; stroke-linejoin: miter; stroke-linecap: square"/>
   </g>
   <g id="patch_4">
    <path d="M 716.565625 316.08 
L 716.565625 22.32 
" style="fill: none; stroke: #000000; stroke-width: 0.8; stroke-linejoin: miter; stroke-linecap: square"/>
   </g>
   <g id="patch_5">
    <path d="M 46.965625 316.08 
L 716.565625 316.08 
" style="fill: none; stroke: #000000; stroke-width: 0.8; stroke-linejoin: miter; stroke-linecap: square"/>
   </g>
   <g id="patch_6">
    <path d="M 46.965625 22.32 
L 716.565625 22.32 
" style="fill: none; stroke: #000000; stroke-width: 0.8; stroke-linejoin: miter; stroke-linecap: square"/>
   </g>
   <g id="text_18">
    <!-- CO$_2$e intensity of the Ontario power grid for 30 days ending on 2023-12-11 -->
    <g transform="translate(156.105625 16.32) scale(0.12 -0.12)">
     <defs>
      <path id="DejaVuSans-43" d="M 4122 4306 
L 4122 3641 
Q 3803 3938 3442 4084 
Q 3081 4231 2675 4231 
Q 1875 4231 1450 3742 
Q 1025 3253 1025 2328 
Q 1025 1406 1450 917 
Q 1875 428 2675 428 
Q 3081 428 3442 575 
Q 3803 722 4122 1019 
L 4122 359 
Q 3791 134 3420 21 
Q 3050 -91 2638 -91 
Q 1578 -91 968 557 
Q 359 1206 359 2328 
Q 359 3453 968 4101 
Q 1578 4750 2638 4750 
Q 3056 4750 3426 4639 
Q 3797 4528 4122 4306 
z
" transform="scale(0.015625)"/>
      <path id="DejaVuSans-4f" d="M 2522 4238 
Q 1834 4238 1429 3725 
Q 1025 3213 1025 2328 
Q 1025 1447 1429 934 
Q 1834 422 2522 422 
Q 3209 422 3611 934 
Q 4013 1447 4013 2328 
Q 4013 3213 3611 3725 
Q 3209 4238 2522 4238 
z
M 2522 4750 
Q 3503 4750 4090 4092 
Q 4678 3434 4678 2328 
Q 4678 1225 4090 567 
Q 3503 -91 2522 -91 
Q 1538 -91 948 565 
Q 359 1222 359 2328 
Q 359 3434 948 4092 
Q 1538 4750 2522 4750 
z
" transform="scale(0.015625)"/>
      <path id="DejaVuSans-20" transform="scale(0.015625)"/>
      <path id="DejaVuSans-69" d="M 603 3500 
L 1178 3500 
L 1178 0 
L 603 0 
L 603 3500 
z
M 603 4863 
L 1178 4863 
L 1178 4134 
L 603 4134 
L 603 4863 
z
" transform="scale(0.015625)"/>
      <path id="DejaVuSans-6e" d="M 3513 2113 
L 3513 0 
L 2938 0 
L 2938 2094 
Q 2938 2591 2744 2837 
Q 2550 3084 2163 3084 
Q 1697 3084 1428 2787 
Q 1159 2491 1159 1978 
L 1159 0 
L 581 0 
L 581 3500 
L 1159 3500 
L 1159 2956 
Q 1366 3272 1645 3428 
Q 1925 3584 2291 3584 
Q 2894 3584 3203 3211 
Q 3513 2838 3513 2113 
z
" transform="scale(0.015625)"/>
      <path id="DejaVuSans-73" d="M 2834 3397 
L 2834 2853 
Q 2591 2978 2328 3040 
Q 2066 3103 1784 3103 
Q 1356 3103 1142 2972 
Q 928 2841 928 2578 
Q 928 2378 1081 2264 
Q 1234 2150 1697 2047 
L 1894 2003 
Q 2506 1872 2764 1633 
Q 3022 1394 3022 966 
Q 3022 478 2636 193 
Q 2250 -91 1575 -91 
Q 1294 -91 989 -36 
Q 684 19 347 128 
L 347 722 
Q 666 556 975 473 
Q 1284 391 1588 391 
Q 1994 391 2212 530 
Q 2431 669 2431 922 
Q 2431 1156 2273 1281 
Q 2116 1406 1581 1522 
L 1381 1569 
Q 847 1681 609 1914 
Q 372 2147 372 2553 
Q 372 3047 722 3315 
Q 1072 3584 1716 3584 
Q 2034 3584 2315 3537 
Q 2597 3491 2834 3397 
z
" transform="scale(0.015625)"/>
      <path id="DejaVuSans-79" d="M 2059 -325 
Q 1816 -950 1584 -1140 
Q 1353 -1331 966 -1331 
L 506 -1331 
L 506 -850 
L 844 -850 
Q 1081 -850 1212 -737 
Q 1344 -625 1503 -206 
L 1606 56 
L 191 3500 
L 800 3500 
L 1894 763 
L 2988 3500 
L 3597 3500 
L 2059 -325 
z
" transform="scale(0.015625)"/>
      <path id="DejaVuSans-6f" d="M 1959 3097 
Q 1497 3097 1228 2736 
Q 959 2375 959 1747 
Q 959 1119 1226 758 
Q 1494 397 1959 397 
Q 2419 397 2687 759 
Q 2956 1122 2956 1747 
Q 2956 2369 2687 2733 
Q 2419 3097 1959 3097 
z
M 1959 3584 
Q 2709 3584 3137 3096 
Q 3566 2609 3566 1747 
Q 3566 888 3137 398 
Q 2709 -91 1959 -91 
Q 1206 -91 779 398 
Q 353 888 353 1747 
Q 353 2609 779 3096 
Q 1206 3584 1959 3584 
z
" transform="scale(0.015625)"/>
      <path id="DejaVuSans-66" d="M 2375 4863 
L 2375 4384 
L 1825 4384 
Q 1516 4384 1395 4259 
Q 1275 4134 1275 3809 
L 1275 3500 
L 2222 3500 
L 2222 3053 
L 1275 3053 
L 1275 0 
L 697 0 
L 697 3053 
L 147 3053 
L 147 3500 
L 697 3500 
L 697 3744 
Q 697 4328 969 4595 
Q 1241 4863 1831 4863 
L 2375 4863 
z
" transform="scale(0.015625)"/>
      <path id="DejaVuSans-72" d="M 2631 2963 
Q 2534 3019 2420 3045 
Q 2306 3072 2169 3072 
Q 1681 3072 1420 2755 
Q 1159 2438 1159 1844 
L 1159 0 
L 581 0 
L 581 3500 
L 1159 3500 
L 1159 2956 
Q 1341 3275 1631 3429 
Q 1922 3584 2338 3584 
Q 2397 3584 2469 3576 
Q 2541 3569 2628 3553 
L 2631 2963 
z
" transform="scale(0.015625)"/>
      <path id="DejaVuSans-70" d="M 1159 525 
L 1159 -1331 
L 581 -1331 
L 581 3500 
L 1159 3500 
L 1159 2969 
Q 1341 3281 1617 3432 
Q 1894 3584 2278 3584 
Q 2916 3584 3314 3078 
Q 3713 2572 3713 1747 
Q 3713 922 3314 415 
Q 2916 -91 2278 -91 
Q 1894 -91 1617 61 
Q 1341 213 1159 525 
z
M 3116 1747 
Q 3116 2381 2855 2742 
Q 2594 3103 2138 3103 
Q 1681 3103 1420 2742 
Q 1159 2381 1159 1747 
Q 1159 1113 1420 752 
Q 1681 391 2138 391 
Q 2594 391 2855 752 
Q 3116 1113 3116 1747 
z
" transform="scale(0.015625)"/>
      <path id="DejaVuSans-77" d="M 269 3500 
L 844 3500 
L 1563 769 
L 2278 3500 
L 2956 3500 
L 3675 769 
L 4391 3500 
L 4966 3500 
L 4050 0 
L 3372 0 
L 2619 2869 
L 1863 0 
L 1184 0 
L 269 3500 
z
" transform="scale(0.015625)"/>
      <path id="DejaVuSans-64" d="M 2906 2969 
L 2906 4863 
L 3481 4863 
L 3481 0 
L 2906 0 
L 2906 525 
Q 2725 213 2448 61 
Q 2172 -91 1784 -91 
Q 1150 -91 751 415 
Q 353 922 353 1747 
Q 353 2572 751 3078 
Q 1150 3584 1784 3584 
Q 2172 3584 2448 3432 
Q 2725 3281 2906 2969 
z
M 947 1747 
Q 947 1113 1208 752 
Q 1469 391 1925 391 
Q 2381 391 2643 752 
Q 2906 1113 2906 1747 
Q 2906 2381 2643 2742 
Q 2381 3103 1925 3103 
Q 1469 3103 1208 2742 
Q 947 2381 947 1747 
z
" transform="scale(0.015625)"/>
     </defs>
     <use xlink:href="#DejaVuSans-43" transform="translate(0 0.015625)"/>
     <use xlink:href="#DejaVuSans-4f" transform="translate(69.824219 0.015625)"/>
     <use xlink:href="#DejaVuSans-32" transform="translate(149.492188 -16.390625) scale(0.7)"/>
     <use xlink:href="#DejaVuSans-65" transform="translate(196.762695 0.015625)"/>
     <use xlink:href="#DejaVuSans-20" transform="translate(258.286133 0.015625)"/>
     <use xlink:href="#DejaVuSans-69" transform="translate(290.073242 0.015625)"/>
     <use xlink:href="#DejaVuSans-6e" transform="translate(317.856445 0.015625)"/>
     <use xlink:href="#DejaVuSans-74" transform="translate(381.235352 0.015625)"/>
     <use xlink:href="#DejaVuSans-65" transform="translate(420.444336 0.015625)"/>
     <use xlink:href="#DejaVuSans-6e" transform="translate(481.967773 0.015625)"/>
     <use xlink:href="#DejaVuSans-73" transform="translate(545.34668 0.015625)"/>
     <use xlink:href="#DejaVuSans-69" transform="translate(597.446289 0.015625)"/>
     <use xlink:href="#DejaVuSans-74" transform="translate(625.229492 0.015625)"/>
     <use xlink:href="#DejaVuSans-79" transform="translate(664.438477 0.015625)"/>
     <use xlink:href="#DejaVuSans-20" transform="translate(723.618164 0.015625)"/>
     <use xlink:href="#DejaVuSans-6f" transform="translate(755.405273 0.015625)"/>
     <use xlink:href="#DejaVuSans-66" transform="translate(816.586914 0.015625)"/>
     <use xlink:href="#DejaVuSans-20" transform="translate(851.791992 0.015625)"/>
     <use xlink:href="#DejaVuSans-74" transform="translate(883.579102 0.015625)"/>
     <use xlink:href="#DejaVuSans-68" transform="translate(922.788086 0.015625)"/>
     <use xlink:href="#DejaVuSans-65" transform="translate(986.166992 0.015625)"/>
     <use xlink:href="#DejaVuSans-20" transform="translate(1047.69043 0.015625)"/>
     <use xlink:href="#DejaVuSans-4f" transform="translate(1079.477539 0.015625)"/>
     <use xlink:href="#DejaVuSans-6e" transform="translate(1158.188477 0.015625)"/>
     <use xlink:href="#DejaVuSans-74" transform="translate(1221.567383 0.015625)"/>
     <use xlink:href="#DejaVuSans-61" transform="translate(1260.776367 0.015625)"/>
     <use xlink:href="#DejaVuSans-72" transform="translate(1322.055664 0.015625)"/>
     <use xlink:href="#DejaVuSans-69" transform="translate(1363.168945 0.015625)"/>
     <use xlink:href="#DejaVuSans-6f" transform="translate(1390.952148 0.015625)"/>
     <use xlink:href="#DejaVuSans-20" transform="translate(1452.133789 0.015625)"/>
     <use xlink:href="#DejaVuSans-70" transform="translate(1483.920898 0.015625)"/>
     <use xlink:href="#DejaVuSans-6f" transform="translate(1547.397461 0.015625)"/>
     <use xlink:href="#DejaVuSans-77" transform="translate(1608.579102 0.015625)"/>
     <use xlink:href="#DejaVuSans-65" transform="translate(1690.366211 0.015625)"/>
     <use xlink:href="#DejaVuSans-72" transform="translate(1751.889648 0.015625)"/>
     <use xlink:href="#DejaVuSans-20" transform="translate(1793.00293 0.015625)"/>
     <use xlink:href="#DejaVuSans-67" transform="translate(1824.790039 0.015625)"/>
     <use xlink:href="#DejaVuSans-72" transform="translate(1888.266602 0.015625)"/>
     <use xlink:href="#DejaVuSans-69" transform="translate(1929.379883 0.015625)"/>
     <use xlink:href="#DejaVuSans-64" transform="translate(1957.163086 0.015625)"/>
     <use xlink:href="#DejaVuSans-20" transform="translate(2020.639648 0.015625)"/>
     <use xlink:href="#DejaVuSans-66" transform="translate(2052.426758 0.015625)"/>
     <use xlink:href="#DejaVuSans-6f" transform="translate(2087.631836 0.015625)"/>
     <use xlink:href="#DejaVuSans-72" transform="translate(2148.813477 0.015625)"/>
     <use xlink:href="#DejaVuSans-20" transform="translate(2189.926758 0.015625)"/>
     <use xlink:href="#DejaVuSans-33" transform="translate(2221.713867 0.015625)"/>
     <use xlink:href="#DejaVuSans-30" transform="translate(2285.336914 0.015625)"/>
     <use xlink:href="#DejaVuSans-20" transform="translate(2348.959961 0.015625)"/>
     <use xlink:href="#DejaVuSans-64" transform="translate(2380.74707 0.015625)"/>
     <use xlink:href="#DejaVuSans-61" transform="translate(2444.223633 0.015625)"/>
     <use xlink:href="#DejaVuSans-79" transform="translate(2505.50293 0.015625)"/>
     <use xlink:href="#DejaVuSans-73" transform="translate(2564.682617 0.015625)"/>
     <use xlink:href="#DejaVuSans-20" transform="translate(2616.782227 0.015625)"/>
     <use xlink:href="#DejaVuSans-65" transform="translate(2648.569336 0.015625)"/>
     <use xlink:href="#DejaVuSans-6e" transform="translate(2710.092773 0.015625)"/>
     <use xlink:href="#DejaVuSans-64" transform="translate(2773.47168 0.015625)"/>
     <use xlink:href="#DejaVuSans-69" transform="translate(2836.948242 0.015625)"/>
     <use xlink:href="#DejaVuSans-6e" transform="translate(2864.731445 0.015625)"/>
     <use xlink:href="#DejaVuSans-67" transform="translate(2928.110352 0.015625)"/>
     <use xlink:href="#DejaVuSans-20" transform="translate(2991.586914 0.015625)"/>
     <use xlink:href="#DejaVuSans-6f" transform="translate(3023.374023 0.015625)"/>
     <use xlink:href="#DejaVuSans-6e" transform="translate(3084.555664 0.015625)"/>
     <use xlink:href="#DejaVuSans-20" transform="translate(3147.93457 0.015625)"/>
     <use xlink:href="#DejaVuSans-32" transform="translate(3179.72168 0.015625)"/>
     <use xlink:href="#DejaVuSans-30" transform="translate(3243.344727 0.015625)"/>
     <use xlink:href="#DejaVuSans-32" transform="translate(3306.967773 0.015625)"/>
     <use xlink:href="#DejaVuSans-33" transform="translate(3370.59082 0.015625)"/>
     <use xlink:href="#DejaVuSans-2d" transform="translate(3434.213867 0.015625)"/>
     <use xlink:href="#DejaVuSans-31" transform="translate(3470.297852 0.015625)"/>
     <use xlink:href="#DejaVuSans-32" transform="translate(3533.920898 0.015625)"/>
     <use xlink:href="#DejaVuSans-2d" transform="translate(3597.543945 0.015625)"/>
     <use xlink:href="#DejaVuSans-31" transform="translate(3633.62793 0.015625)"/>
     <use xlink:href="#DejaVuSans-31" transform="translate(3697.250977 0.015625)"/>
    </g>
   </g>
  </g>
 </g>
 <defs>
  <clipPath id="p2c8cfd214e">
   <rect x="46.965625" y="22.32" width="669.6" height="293.76"/>
  </clipPath>
 </defs>
</svg>
