<?xml version="1.0" encoding="utf-8" standalone="no"?>
<!DOCTYPE svg PUBLIC "-//W3C//DTD SVG 1.1//EN"
  "http://www.w3.org/Graphics/SVG/1.1/DTD/svg11.dtd">
<!-- Created with matplotlib (https://matplotlib.org/) -->
<svg height="381.39744pt" version="1.1" viewBox="0 0 717.403125 381.39744" width="717.403125pt" xmlns="http://www.w3.org/2000/svg" xmlns:xlink="http://www.w3.org/1999/xlink">
 <metadata>
  <rdf:RDF xmlns:cc="http://creativecommons.org/ns#" xmlns:dc="http://purl.org/dc/elements/1.1/" xmlns:rdf="http://www.w3.org/1999/02/22-rdf-syntax-ns#">
   <cc:Work>
    <dc:type rdf:resource="http://purl.org/dc/dcmitype/StillImage"/>
    <dc:date>2023-04-22T23:16:56.564012</dc:date>
    <dc:format>image/svg+xml</dc:format>
    <dc:creator>
     <cc:Agent>
      <dc:title>Matplotlib v3.3.4, https://matplotlib.org/</dc:title>
     </cc:Agent>
    </dc:creator>
   </cc:Work>
  </rdf:RDF>
 </metadata>
 <defs>
  <style type="text/css">*{stroke-linecap:butt;stroke-linejoin:round;}</style>
 </defs>
 <g id="figure_1">
  <g id="patch_1">
   <path d="M 0 381.39744 
L 717.403125 381.39744 
L 717.403125 0 
L 0 0 
z
" style="fill:#ffffff;"/>
  </g>
  <g id="axes_1">
   <g id="patch_2">
    <path d="M 40.603125 316.08 
L 710.203125 316.08 
L 710.203125 22.32 
L 40.603125 22.32 
z
" style="fill:#ffffff;"/>
   </g>
   <g id="matplotlib.axis_1">
    <g id="xtick_1">
     <g id="line2d_1">
      <defs>
       <path d="M 0 0 
L 0 3.5 
" id="mcb3a1fcef4" style="stroke:#000000;stroke-width:0.8;"/>
      </defs>
      <g>
       <use style="stroke:#000000;stroke-width:0.8;" x="121.51185" xlink:href="#mcb3a1fcef4" y="316.08"/>
      </g>
     </g>
     <g id="text_1">
      <!-- 2023-03-08 -->
      <g transform="translate(70.142399 358.718252)rotate(-30)scale(0.1 -0.1)">
       <defs>
        <path d="M 19.1875 8.296875 
L 53.609375 8.296875 
L 53.609375 0 
L 7.328125 0 
L 7.328125 8.296875 
Q 12.9375 14.109375 22.625 23.890625 
Q 32.328125 33.6875 34.8125 36.53125 
Q 39.546875 41.84375 41.421875 45.53125 
Q 43.3125 49.21875 43.3125 52.78125 
Q 43.3125 58.59375 39.234375 62.25 
Q 35.15625 65.921875 28.609375 65.921875 
Q 23.96875 65.921875 18.8125 64.3125 
Q 13.671875 62.703125 7.8125 59.421875 
L 7.8125 69.390625 
Q 13.765625 71.78125 18.9375 73 
Q 24.125 74.21875 28.421875 74.21875 
Q 39.75 74.21875 46.484375 68.546875 
Q 53.21875 62.890625 53.21875 53.421875 
Q 53.21875 48.921875 51.53125 44.890625 
Q 49.859375 40.875 45.40625 35.40625 
Q 44.1875 33.984375 37.640625 27.21875 
Q 31.109375 20.453125 19.1875 8.296875 
z
" id="DejaVuSans-50"/>
        <path d="M 31.78125 66.40625 
Q 24.171875 66.40625 20.328125 58.90625 
Q 16.5 51.421875 16.5 36.375 
Q 16.5 21.390625 20.328125 13.890625 
Q 24.171875 6.390625 31.78125 6.390625 
Q 39.453125 6.390625 43.28125 13.890625 
Q 47.125 21.390625 47.125 36.375 
Q 47.125 51.421875 43.28125 58.90625 
Q 39.453125 66.40625 31.78125 66.40625 
z
M 31.78125 74.21875 
Q 44.046875 74.21875 50.515625 64.515625 
Q 56.984375 54.828125 56.984375 36.375 
Q 56.984375 17.96875 50.515625 8.265625 
Q 44.046875 -1.421875 31.78125 -1.421875 
Q 19.53125 -1.421875 13.0625 8.265625 
Q 6.59375 17.96875 6.59375 36.375 
Q 6.59375 54.828125 13.0625 64.515625 
Q 19.53125 74.21875 31.78125 74.21875 
z
" id="DejaVuSans-48"/>
        <path d="M 40.578125 39.3125 
Q 47.65625 37.796875 51.625 33 
Q 55.609375 28.21875 55.609375 21.1875 
Q 55.609375 10.40625 48.1875 4.484375 
Q 40.765625 -1.421875 27.09375 -1.421875 
Q 22.515625 -1.421875 17.65625 -0.515625 
Q 12.796875 0.390625 7.625 2.203125 
L 7.625 11.71875 
Q 11.71875 9.328125 16.59375 8.109375 
Q 21.484375 6.890625 26.8125 6.890625 
Q 36.078125 6.890625 40.9375 10.546875 
Q 45.796875 14.203125 45.796875 21.1875 
Q 45.796875 27.640625 41.28125 31.265625 
Q 36.765625 34.90625 28.71875 34.90625 
L 20.21875 34.90625 
L 20.21875 43.015625 
L 29.109375 43.015625 
Q 36.375 43.015625 40.234375 45.921875 
Q 44.09375 48.828125 44.09375 54.296875 
Q 44.09375 59.90625 40.109375 62.90625 
Q 36.140625 65.921875 28.71875 65.921875 
Q 24.65625 65.921875 20.015625 65.03125 
Q 15.375 64.15625 9.8125 62.3125 
L 9.8125 71.09375 
Q 15.4375 72.65625 20.34375 73.4375 
Q 25.25 74.21875 29.59375 74.21875 
Q 40.828125 74.21875 47.359375 69.109375 
Q 53.90625 64.015625 53.90625 55.328125 
Q 53.90625 49.265625 50.4375 45.09375 
Q 46.96875 40.921875 40.578125 39.3125 
z
" id="DejaVuSans-51"/>
        <path d="M 4.890625 31.390625 
L 31.203125 31.390625 
L 31.203125 23.390625 
L 4.890625 23.390625 
z
" id="DejaVuSans-45"/>
        <path d="M 31.78125 34.625 
Q 24.75 34.625 20.71875 30.859375 
Q 16.703125 27.09375 16.703125 20.515625 
Q 16.703125 13.921875 20.71875 10.15625 
Q 24.75 6.390625 31.78125 6.390625 
Q 38.8125 6.390625 42.859375 10.171875 
Q 46.921875 13.96875 46.921875 20.515625 
Q 46.921875 27.09375 42.890625 30.859375 
Q 38.875 34.625 31.78125 34.625 
z
M 21.921875 38.8125 
Q 15.578125 40.375 12.03125 44.71875 
Q 8.5 49.078125 8.5 55.328125 
Q 8.5 64.0625 14.71875 69.140625 
Q 20.953125 74.21875 31.78125 74.21875 
Q 42.671875 74.21875 48.875 69.140625 
Q 55.078125 64.0625 55.078125 55.328125 
Q 55.078125 49.078125 51.53125 44.71875 
Q 48 40.375 41.703125 38.8125 
Q 48.828125 37.15625 52.796875 32.3125 
Q 56.78125 27.484375 56.78125 20.515625 
Q 56.78125 9.90625 50.3125 4.234375 
Q 43.84375 -1.421875 31.78125 -1.421875 
Q 19.734375 -1.421875 13.25 4.234375 
Q 6.78125 9.90625 6.78125 20.515625 
Q 6.78125 27.484375 10.78125 32.3125 
Q 14.796875 37.15625 21.921875 38.8125 
z
M 18.3125 54.390625 
Q 18.3125 48.734375 21.84375 45.5625 
Q 25.390625 42.390625 31.78125 42.390625 
Q 38.140625 42.390625 41.71875 45.5625 
Q 45.3125 48.734375 45.3125 54.390625 
Q 45.3125 60.0625 41.71875 63.234375 
Q 38.140625 66.40625 31.78125 66.40625 
Q 25.390625 66.40625 21.84375 63.234375 
Q 18.3125 60.0625 18.3125 54.390625 
z
" id="DejaVuSans-56"/>
       </defs>
       <use xlink:href="#DejaVuSans-50"/>
       <use x="63.623047" xlink:href="#DejaVuSans-48"/>
       <use x="127.246094" xlink:href="#DejaVuSans-50"/>
       <use x="190.869141" xlink:href="#DejaVuSans-51"/>
       <use x="254.492188" xlink:href="#DejaVuSans-45"/>
       <use x="290.576172" xlink:href="#DejaVuSans-48"/>
       <use x="354.199219" xlink:href="#DejaVuSans-51"/>
       <use x="417.822266" xlink:href="#DejaVuSans-45"/>
       <use x="453.90625" xlink:href="#DejaVuSans-48"/>
       <use x="517.529297" xlink:href="#DejaVuSans-56"/>
      </g>
     </g>
    </g>
    <g id="xtick_2">
     <g id="line2d_2">
      <g>
       <use style="stroke:#000000;stroke-width:0.8;" x="207.161919" xlink:href="#mcb3a1fcef4" y="316.08"/>
      </g>
     </g>
     <g id="text_2">
      <!-- 2023-03-15 -->
      <g transform="translate(155.792468 358.718252)rotate(-30)scale(0.1 -0.1)">
       <defs>
        <path d="M 12.40625 8.296875 
L 28.515625 8.296875 
L 28.515625 63.921875 
L 10.984375 60.40625 
L 10.984375 69.390625 
L 28.421875 72.90625 
L 38.28125 72.90625 
L 38.28125 8.296875 
L 54.390625 8.296875 
L 54.390625 0 
L 12.40625 0 
z
" id="DejaVuSans-49"/>
        <path d="M 10.796875 72.90625 
L 49.515625 72.90625 
L 49.515625 64.59375 
L 19.828125 64.59375 
L 19.828125 46.734375 
Q 21.96875 47.46875 24.109375 47.828125 
Q 26.265625 48.1875 28.421875 48.1875 
Q 40.625 48.1875 47.75 41.5 
Q 54.890625 34.8125 54.890625 23.390625 
Q 54.890625 11.625 47.5625 5.09375 
Q 40.234375 -1.421875 26.90625 -1.421875 
Q 22.3125 -1.421875 17.546875 -0.640625 
Q 12.796875 0.140625 7.71875 1.703125 
L 7.71875 11.625 
Q 12.109375 9.234375 16.796875 8.0625 
Q 21.484375 6.890625 26.703125 6.890625 
Q 35.15625 6.890625 40.078125 11.328125 
Q 45.015625 15.765625 45.015625 23.390625 
Q 45.015625 31 40.078125 35.4375 
Q 35.15625 39.890625 26.703125 39.890625 
Q 22.75 39.890625 18.8125 39.015625 
Q 14.890625 38.140625 10.796875 36.28125 
z
" id="DejaVuSans-53"/>
       </defs>
       <use xlink:href="#DejaVuSans-50"/>
       <use x="63.623047" xlink:href="#DejaVuSans-48"/>
       <use x="127.246094" xlink:href="#DejaVuSans-50"/>
       <use x="190.869141" xlink:href="#DejaVuSans-51"/>
       <use x="254.492188" xlink:href="#DejaVuSans-45"/>
       <use x="290.576172" xlink:href="#DejaVuSans-48"/>
       <use x="354.199219" xlink:href="#DejaVuSans-51"/>
       <use x="417.822266" xlink:href="#DejaVuSans-45"/>
       <use x="453.90625" xlink:href="#DejaVuSans-49"/>
       <use x="517.529297" xlink:href="#DejaVuSans-53"/>
      </g>
     </g>
    </g>
    <g id="xtick_3">
     <g id="line2d_3">
      <g>
       <use style="stroke:#000000;stroke-width:0.8;" x="292.811987" xlink:href="#mcb3a1fcef4" y="316.08"/>
      </g>
     </g>
     <g id="text_3">
      <!-- 2023-03-22 -->
      <g transform="translate(241.442536 358.718252)rotate(-30)scale(0.1 -0.1)">
       <use xlink:href="#DejaVuSans-50"/>
       <use x="63.623047" xlink:href="#DejaVuSans-48"/>
       <use x="127.246094" xlink:href="#DejaVuSans-50"/>
       <use x="190.869141" xlink:href="#DejaVuSans-51"/>
       <use x="254.492188" xlink:href="#DejaVuSans-45"/>
       <use x="290.576172" xlink:href="#DejaVuSans-48"/>
       <use x="354.199219" xlink:href="#DejaVuSans-51"/>
       <use x="417.822266" xlink:href="#DejaVuSans-45"/>
       <use x="453.90625" xlink:href="#DejaVuSans-50"/>
       <use x="517.529297" xlink:href="#DejaVuSans-50"/>
      </g>
     </g>
    </g>
    <g id="xtick_4">
     <g id="line2d_4">
      <g>
       <use style="stroke:#000000;stroke-width:0.8;" x="415.169228" xlink:href="#mcb3a1fcef4" y="316.08"/>
      </g>
     </g>
     <g id="text_4">
      <!-- 2023-04-01 -->
      <g transform="translate(363.799777 358.718252)rotate(-30)scale(0.1 -0.1)">
       <defs>
        <path d="M 37.796875 64.3125 
L 12.890625 25.390625 
L 37.796875 25.390625 
z
M 35.203125 72.90625 
L 47.609375 72.90625 
L 47.609375 25.390625 
L 58.015625 25.390625 
L 58.015625 17.1875 
L 47.609375 17.1875 
L 47.609375 0 
L 37.796875 0 
L 37.796875 17.1875 
L 4.890625 17.1875 
L 4.890625 26.703125 
z
" id="DejaVuSans-52"/>
       </defs>
       <use xlink:href="#DejaVuSans-50"/>
       <use x="63.623047" xlink:href="#DejaVuSans-48"/>
       <use x="127.246094" xlink:href="#DejaVuSans-50"/>
       <use x="190.869141" xlink:href="#DejaVuSans-51"/>
       <use x="254.492188" xlink:href="#DejaVuSans-45"/>
       <use x="290.576172" xlink:href="#DejaVuSans-48"/>
       <use x="354.199219" xlink:href="#DejaVuSans-52"/>
       <use x="417.822266" xlink:href="#DejaVuSans-45"/>
       <use x="453.90625" xlink:href="#DejaVuSans-48"/>
       <use x="517.529297" xlink:href="#DejaVuSans-49"/>
      </g>
     </g>
    </g>
    <g id="xtick_5">
     <g id="line2d_5">
      <g>
       <use style="stroke:#000000;stroke-width:0.8;" x="500.819297" xlink:href="#mcb3a1fcef4" y="316.08"/>
      </g>
     </g>
     <g id="text_5">
      <!-- 2023-04-08 -->
      <g transform="translate(449.449845 358.718252)rotate(-30)scale(0.1 -0.1)">
       <use xlink:href="#DejaVuSans-50"/>
       <use x="63.623047" xlink:href="#DejaVuSans-48"/>
       <use x="127.246094" xlink:href="#DejaVuSans-50"/>
       <use x="190.869141" xlink:href="#DejaVuSans-51"/>
       <use x="254.492188" xlink:href="#DejaVuSans-45"/>
       <use x="290.576172" xlink:href="#DejaVuSans-48"/>
       <use x="354.199219" xlink:href="#DejaVuSans-52"/>
       <use x="417.822266" xlink:href="#DejaVuSans-45"/>
       <use x="453.90625" xlink:href="#DejaVuSans-48"/>
       <use x="517.529297" xlink:href="#DejaVuSans-56"/>
      </g>
     </g>
    </g>
    <g id="xtick_6">
     <g id="line2d_6">
      <g>
       <use style="stroke:#000000;stroke-width:0.8;" x="586.469365" xlink:href="#mcb3a1fcef4" y="316.08"/>
      </g>
     </g>
     <g id="text_6">
      <!-- 2023-04-15 -->
      <g transform="translate(535.099914 358.718252)rotate(-30)scale(0.1 -0.1)">
       <use xlink:href="#DejaVuSans-50"/>
       <use x="63.623047" xlink:href="#DejaVuSans-48"/>
       <use x="127.246094" xlink:href="#DejaVuSans-50"/>
       <use x="190.869141" xlink:href="#DejaVuSans-51"/>
       <use x="254.492188" xlink:href="#DejaVuSans-45"/>
       <use x="290.576172" xlink:href="#DejaVuSans-48"/>
       <use x="354.199219" xlink:href="#DejaVuSans-52"/>
       <use x="417.822266" xlink:href="#DejaVuSans-45"/>
       <use x="453.90625" xlink:href="#DejaVuSans-49"/>
       <use x="517.529297" xlink:href="#DejaVuSans-53"/>
      </g>
     </g>
    </g>
    <g id="xtick_7">
     <g id="line2d_7">
      <g>
       <use style="stroke:#000000;stroke-width:0.8;" x="672.119434" xlink:href="#mcb3a1fcef4" y="316.08"/>
      </g>
     </g>
     <g id="text_7">
      <!-- 2023-04-22 -->
      <g transform="translate(620.749982 358.718252)rotate(-30)scale(0.1 -0.1)">
       <use xlink:href="#DejaVuSans-50"/>
       <use x="63.623047" xlink:href="#DejaVuSans-48"/>
       <use x="127.246094" xlink:href="#DejaVuSans-50"/>
       <use x="190.869141" xlink:href="#DejaVuSans-51"/>
       <use x="254.492188" xlink:href="#DejaVuSans-45"/>
       <use x="290.576172" xlink:href="#DejaVuSans-48"/>
       <use x="354.199219" xlink:href="#DejaVuSans-52"/>
       <use x="417.822266" xlink:href="#DejaVuSans-45"/>
       <use x="453.90625" xlink:href="#DejaVuSans-50"/>
       <use x="517.529297" xlink:href="#DejaVuSans-50"/>
      </g>
     </g>
    </g>
    <g id="text_8">
     <!-- Date -->
     <g transform="translate(363.452344 372.117752)scale(0.1 -0.1)">
      <defs>
       <path d="M 19.671875 64.796875 
L 19.671875 8.109375 
L 31.59375 8.109375 
Q 46.6875 8.109375 53.6875 14.9375 
Q 60.6875 21.78125 60.6875 36.53125 
Q 60.6875 51.171875 53.6875 57.984375 
Q 46.6875 64.796875 31.59375 64.796875 
z
M 9.8125 72.90625 
L 30.078125 72.90625 
Q 51.265625 72.90625 61.171875 64.09375 
Q 71.09375 55.28125 71.09375 36.53125 
Q 71.09375 17.671875 61.125 8.828125 
Q 51.171875 0 30.078125 0 
L 9.8125 0 
z
" id="DejaVuSans-68"/>
       <path d="M 34.28125 27.484375 
Q 23.390625 27.484375 19.1875 25 
Q 14.984375 22.515625 14.984375 16.5 
Q 14.984375 11.71875 18.140625 8.90625 
Q 21.296875 6.109375 26.703125 6.109375 
Q 34.1875 6.109375 38.703125 11.40625 
Q 43.21875 16.703125 43.21875 25.484375 
L 43.21875 27.484375 
z
M 52.203125 31.203125 
L 52.203125 0 
L 43.21875 0 
L 43.21875 8.296875 
Q 40.140625 3.328125 35.546875 0.953125 
Q 30.953125 -1.421875 24.3125 -1.421875 
Q 15.921875 -1.421875 10.953125 3.296875 
Q 6 8.015625 6 15.921875 
Q 6 25.140625 12.171875 29.828125 
Q 18.359375 34.515625 30.609375 34.515625 
L 43.21875 34.515625 
L 43.21875 35.40625 
Q 43.21875 41.609375 39.140625 45 
Q 35.0625 48.390625 27.6875 48.390625 
Q 23 48.390625 18.546875 47.265625 
Q 14.109375 46.140625 10.015625 43.890625 
L 10.015625 52.203125 
Q 14.9375 54.109375 19.578125 55.046875 
Q 24.21875 56 28.609375 56 
Q 40.484375 56 46.34375 49.84375 
Q 52.203125 43.703125 52.203125 31.203125 
z
" id="DejaVuSans-97"/>
       <path d="M 18.3125 70.21875 
L 18.3125 54.6875 
L 36.8125 54.6875 
L 36.8125 47.703125 
L 18.3125 47.703125 
L 18.3125 18.015625 
Q 18.3125 11.328125 20.140625 9.421875 
Q 21.96875 7.515625 27.59375 7.515625 
L 36.8125 7.515625 
L 36.8125 0 
L 27.59375 0 
Q 17.1875 0 13.234375 3.875 
Q 9.28125 7.765625 9.28125 18.015625 
L 9.28125 47.703125 
L 2.6875 47.703125 
L 2.6875 54.6875 
L 9.28125 54.6875 
L 9.28125 70.21875 
z
" id="DejaVuSans-116"/>
       <path d="M 56.203125 29.59375 
L 56.203125 25.203125 
L 14.890625 25.203125 
Q 15.484375 15.921875 20.484375 11.0625 
Q 25.484375 6.203125 34.421875 6.203125 
Q 39.59375 6.203125 44.453125 7.46875 
Q 49.3125 8.734375 54.109375 11.28125 
L 54.109375 2.78125 
Q 49.265625 0.734375 44.1875 -0.34375 
Q 39.109375 -1.421875 33.890625 -1.421875 
Q 20.796875 -1.421875 13.15625 6.1875 
Q 5.515625 13.8125 5.515625 26.8125 
Q 5.515625 40.234375 12.765625 48.109375 
Q 20.015625 56 32.328125 56 
Q 43.359375 56 49.78125 48.890625 
Q 56.203125 41.796875 56.203125 29.59375 
z
M 47.21875 32.234375 
Q 47.125 39.59375 43.09375 43.984375 
Q 39.0625 48.390625 32.421875 48.390625 
Q 24.90625 48.390625 20.390625 44.140625 
Q 15.875 39.890625 15.1875 32.171875 
z
" id="DejaVuSans-101"/>
      </defs>
      <use xlink:href="#DejaVuSans-68"/>
      <use x="77.001953" xlink:href="#DejaVuSans-97"/>
      <use x="138.28125" xlink:href="#DejaVuSans-116"/>
      <use x="177.490234" xlink:href="#DejaVuSans-101"/>
     </g>
    </g>
   </g>
   <g id="matplotlib.axis_2">
    <g id="ytick_1">
     <g id="line2d_8">
      <defs>
       <path d="M 0 0 
L -3.5 0 
" id="md0452a6c91" style="stroke:#000000;stroke-width:0.8;"/>
      </defs>
      <g>
       <use style="stroke:#000000;stroke-width:0.8;" x="40.603125" xlink:href="#md0452a6c91" y="316.08"/>
      </g>
     </g>
     <g id="text_9">
      <!-- 0 -->
      <g transform="translate(27.240625 319.879219)scale(0.1 -0.1)">
       <use xlink:href="#DejaVuSans-48"/>
      </g>
     </g>
    </g>
    <g id="ytick_2">
     <g id="line2d_9">
      <g>
       <use style="stroke:#000000;stroke-width:0.8;" x="40.603125" xlink:href="#md0452a6c91" y="255.102314"/>
      </g>
     </g>
     <g id="text_10">
      <!-- 20 -->
      <g transform="translate(20.878125 258.901533)scale(0.1 -0.1)">
       <use xlink:href="#DejaVuSans-50"/>
       <use x="63.623047" xlink:href="#DejaVuSans-48"/>
      </g>
     </g>
    </g>
    <g id="ytick_3">
     <g id="line2d_10">
      <g>
       <use style="stroke:#000000;stroke-width:0.8;" x="40.603125" xlink:href="#md0452a6c91" y="194.124629"/>
      </g>
     </g>
     <g id="text_11">
      <!-- 40 -->
      <g transform="translate(20.878125 197.923848)scale(0.1 -0.1)">
       <use xlink:href="#DejaVuSans-52"/>
       <use x="63.623047" xlink:href="#DejaVuSans-48"/>
      </g>
     </g>
    </g>
    <g id="ytick_4">
     <g id="line2d_11">
      <g>
       <use style="stroke:#000000;stroke-width:0.8;" x="40.603125" xlink:href="#md0452a6c91" y="133.146943"/>
      </g>
     </g>
     <g id="text_12">
      <!-- 60 -->
      <g transform="translate(20.878125 136.946162)scale(0.1 -0.1)">
       <defs>
        <path d="M 33.015625 40.375 
Q 26.375 40.375 22.484375 35.828125 
Q 18.609375 31.296875 18.609375 23.390625 
Q 18.609375 15.53125 22.484375 10.953125 
Q 26.375 6.390625 33.015625 6.390625 
Q 39.65625 6.390625 43.53125 10.953125 
Q 47.40625 15.53125 47.40625 23.390625 
Q 47.40625 31.296875 43.53125 35.828125 
Q 39.65625 40.375 33.015625 40.375 
z
M 52.59375 71.296875 
L 52.59375 62.3125 
Q 48.875 64.0625 45.09375 64.984375 
Q 41.3125 65.921875 37.59375 65.921875 
Q 27.828125 65.921875 22.671875 59.328125 
Q 17.53125 52.734375 16.796875 39.40625 
Q 19.671875 43.65625 24.015625 45.921875 
Q 28.375 48.1875 33.59375 48.1875 
Q 44.578125 48.1875 50.953125 41.515625 
Q 57.328125 34.859375 57.328125 23.390625 
Q 57.328125 12.15625 50.6875 5.359375 
Q 44.046875 -1.421875 33.015625 -1.421875 
Q 20.359375 -1.421875 13.671875 8.265625 
Q 6.984375 17.96875 6.984375 36.375 
Q 6.984375 53.65625 15.1875 63.9375 
Q 23.390625 74.21875 37.203125 74.21875 
Q 40.921875 74.21875 44.703125 73.484375 
Q 48.484375 72.75 52.59375 71.296875 
z
" id="DejaVuSans-54"/>
       </defs>
       <use xlink:href="#DejaVuSans-54"/>
       <use x="63.623047" xlink:href="#DejaVuSans-48"/>
      </g>
     </g>
    </g>
    <g id="ytick_5">
     <g id="line2d_12">
      <g>
       <use style="stroke:#000000;stroke-width:0.8;" x="40.603125" xlink:href="#md0452a6c91" y="72.169258"/>
      </g>
     </g>
     <g id="text_13">
      <!-- 80 -->
      <g transform="translate(20.878125 75.968477)scale(0.1 -0.1)">
       <use xlink:href="#DejaVuSans-56"/>
       <use x="63.623047" xlink:href="#DejaVuSans-48"/>
      </g>
     </g>
    </g>
    <g id="text_14">
     <!-- g/kWh -->
     <g transform="translate(14.798438 185.066406)rotate(-90)scale(0.1 -0.1)">
      <defs>
       <path d="M 45.40625 27.984375 
Q 45.40625 37.75 41.375 43.109375 
Q 37.359375 48.484375 30.078125 48.484375 
Q 22.859375 48.484375 18.828125 43.109375 
Q 14.796875 37.75 14.796875 27.984375 
Q 14.796875 18.265625 18.828125 12.890625 
Q 22.859375 7.515625 30.078125 7.515625 
Q 37.359375 7.515625 41.375 12.890625 
Q 45.40625 18.265625 45.40625 27.984375 
z
M 54.390625 6.78125 
Q 54.390625 -7.171875 48.1875 -13.984375 
Q 42 -20.796875 29.203125 -20.796875 
Q 24.46875 -20.796875 20.265625 -20.09375 
Q 16.0625 -19.390625 12.109375 -17.921875 
L 12.109375 -9.1875 
Q 16.0625 -11.328125 19.921875 -12.34375 
Q 23.78125 -13.375 27.78125 -13.375 
Q 36.625 -13.375 41.015625 -8.765625 
Q 45.40625 -4.15625 45.40625 5.171875 
L 45.40625 9.625 
Q 42.625 4.78125 38.28125 2.390625 
Q 33.9375 0 27.875 0 
Q 17.828125 0 11.671875 7.65625 
Q 5.515625 15.328125 5.515625 27.984375 
Q 5.515625 40.671875 11.671875 48.328125 
Q 17.828125 56 27.875 56 
Q 33.9375 56 38.28125 53.609375 
Q 42.625 51.21875 45.40625 46.390625 
L 45.40625 54.6875 
L 54.390625 54.6875 
z
" id="DejaVuSans-103"/>
       <path d="M 25.390625 72.90625 
L 33.6875 72.90625 
L 8.296875 -9.28125 
L 0 -9.28125 
z
" id="DejaVuSans-47"/>
       <path d="M 9.078125 75.984375 
L 18.109375 75.984375 
L 18.109375 31.109375 
L 44.921875 54.6875 
L 56.390625 54.6875 
L 27.390625 29.109375 
L 57.625 0 
L 45.90625 0 
L 18.109375 26.703125 
L 18.109375 0 
L 9.078125 0 
z
" id="DejaVuSans-107"/>
       <path d="M 3.328125 72.90625 
L 13.28125 72.90625 
L 28.609375 11.28125 
L 43.890625 72.90625 
L 54.984375 72.90625 
L 70.3125 11.28125 
L 85.59375 72.90625 
L 95.609375 72.90625 
L 77.296875 0 
L 64.890625 0 
L 49.515625 63.28125 
L 33.984375 0 
L 21.578125 0 
z
" id="DejaVuSans-87"/>
       <path d="M 54.890625 33.015625 
L 54.890625 0 
L 45.90625 0 
L 45.90625 32.71875 
Q 45.90625 40.484375 42.875 44.328125 
Q 39.84375 48.1875 33.796875 48.1875 
Q 26.515625 48.1875 22.3125 43.546875 
Q 18.109375 38.921875 18.109375 30.90625 
L 18.109375 0 
L 9.078125 0 
L 9.078125 75.984375 
L 18.109375 75.984375 
L 18.109375 46.1875 
Q 21.34375 51.125 25.703125 53.5625 
Q 30.078125 56 35.796875 56 
Q 45.21875 56 50.046875 50.171875 
Q 54.890625 44.34375 54.890625 33.015625 
z
" id="DejaVuSans-104"/>
      </defs>
      <use xlink:href="#DejaVuSans-103"/>
      <use x="63.476562" xlink:href="#DejaVuSans-47"/>
      <use x="97.167969" xlink:href="#DejaVuSans-107"/>
      <use x="155.078125" xlink:href="#DejaVuSans-87"/>
      <use x="253.955078" xlink:href="#DejaVuSans-104"/>
     </g>
    </g>
   </g>
   <g id="line2d_13">
    <path clip-path="url(#p8e2b00575a)" d="M 71.039489 258.151199 
L 71.54931 261.200083 
L 72.059132 291.688926 
L 72.568954 297.786694 
L 74.09842 297.786694 
L 74.608241 288.640042 
L 75.118063 282.542273 
L 75.627885 264.248967 
L 76.137707 239.857893 
L 76.647529 203.271282 
L 77.667173 169.733555 
L 78.176994 181.929092 
L 78.686816 178.880208 
L 79.196638 172.782439 
L 79.70646 169.733555 
L 80.726104 169.733555 
L 81.235925 166.68467 
L 81.745747 160.586902 
L 82.765391 142.293596 
L 83.275213 142.293596 
L 83.785035 133.146943 
L 84.804678 157.538018 
L 85.3145 157.538018 
L 86.334144 175.831323 
L 87.353787 175.831323 
L 87.863609 166.68467 
L 88.373431 160.586902 
L 89.393075 154.489133 
L 89.902897 166.68467 
L 90.412718 166.68467 
L 90.92254 157.538018 
L 91.432362 151.440249 
L 91.942184 163.635786 
L 92.452006 145.342481 
L 92.961828 114.853638 
L 93.471649 99.609216 
L 93.981471 47.778184 
L 95.001115 35.582647 
L 95.510937 59.973721 
L 96.020759 72.169258 
L 97.040402 145.342481 
L 98.060046 175.831323 
L 98.569868 172.782439 
L 99.07969 175.831323 
L 99.589511 175.831323 
L 100.609155 194.124629 
L 101.118977 194.124629 
L 101.628799 188.02686 
L 102.138621 184.977976 
L 102.648442 221.564587 
L 103.158264 218.515703 
L 103.668086 233.760125 
L 104.177908 224.613472 
L 104.68773 227.662356 
L 105.197552 212.417935 
L 105.707374 212.417935 
L 106.217195 203.271282 
L 107.236839 197.173513 
L 107.746661 197.173513 
L 108.256483 194.124629 
L 108.766305 252.05343 
L 109.276126 279.493389 
L 109.785948 294.73781 
L 110.29577 291.688926 
L 110.805592 279.493389 
L 111.315414 261.200083 
L 111.825236 249.004546 
L 112.335057 242.906777 
L 112.844879 239.857893 
L 113.354701 242.906777 
L 113.864523 230.71124 
L 114.374345 252.05343 
L 114.884167 255.102314 
L 115.90381 249.004546 
L 116.413632 239.857893 
L 116.923454 218.515703 
L 117.433276 230.71124 
L 117.943098 255.102314 
L 118.452919 258.151199 
L 119.472563 267.297852 
L 119.982385 261.200083 
L 120.492207 261.200083 
L 121.002029 291.688926 
L 121.51185 297.786694 
L 122.021672 297.786694 
L 122.531494 294.73781 
L 123.041316 288.640042 
L 123.551138 267.297852 
L 124.06096 267.297852 
L 124.570781 270.346736 
L 125.590425 264.248967 
L 126.100247 270.346736 
L 127.119891 297.786694 
L 127.629712 291.688926 
L 128.139534 276.444504 
L 129.159178 230.71124 
L 129.669 221.564587 
L 130.178822 227.662356 
L 131.708287 236.809009 
L 132.218109 258.151199 
L 132.727931 267.297852 
L 133.237753 270.346736 
L 133.747575 258.151199 
L 134.257396 258.151199 
L 134.767218 239.857893 
L 135.27704 230.71124 
L 148.022586 273.39562 
L 148.532408 258.151199 
L 149.04223 255.102314 
L 150.061873 261.200083 
L 150.571695 252.05343 
L 151.081517 221.564587 
L 151.591339 218.515703 
L 152.101161 209.36905 
L 152.610982 224.613472 
L 153.120804 224.613472 
L 153.630626 215.466819 
L 154.140448 221.564587 
L 155.669913 221.564587 
L 156.179735 242.906777 
L 156.689557 255.102314 
L 157.199379 245.955662 
L 157.709201 258.151199 
L 158.219023 261.200083 
L 158.728845 258.151199 
L 159.238666 245.955662 
L 159.748488 255.102314 
L 160.768132 212.417935 
L 161.787776 212.417935 
L 162.297597 200.222398 
L 162.807419 178.880208 
L 163.317241 166.68467 
L 163.827063 151.440249 
L 164.336885 166.68467 
L 164.846707 136.195828 
L 165.356528 133.146943 
L 166.376172 139.244712 
L 166.885994 145.342481 
L 167.395816 127.049175 
L 168.415459 114.853638 
L 168.925281 136.195828 
L 169.435103 169.733555 
L 170.454747 188.02686 
L 171.47439 188.02686 
L 171.984212 181.929092 
L 172.494034 178.880208 
L 173.003856 181.929092 
L 173.513678 181.929092 
L 174.0235 178.880208 
L 174.533321 178.880208 
L 175.043143 184.977976 
L 175.552965 188.02686 
L 176.062787 188.02686 
L 176.572609 184.977976 
L 177.082431 175.831323 
L 177.592252 130.098059 
L 178.102074 120.951406 
L 178.611896 120.951406 
L 179.121718 133.146943 
L 179.63154 139.244712 
L 180.141362 142.293596 
L 180.651183 139.244712 
L 181.161005 139.244712 
L 181.670827 102.658101 
L 182.690471 178.880208 
L 183.200293 194.124629 
L 183.710114 197.173513 
L 184.219936 184.977976 
L 185.23958 117.902522 
L 185.749402 105.706985 
L 186.259224 59.973721 
L 186.769046 63.022605 
L 187.278867 59.973721 
L 187.788689 59.973721 
L 188.298511 63.022605 
L 188.808333 81.315911 
L 189.318155 87.413679 
L 189.827977 90.462564 
L 190.84762 139.244712 
L 191.357442 154.489133 
L 191.867264 157.538018 
L 192.377086 151.440249 
L 192.886908 154.489133 
L 193.906551 154.489133 
L 194.416373 169.733555 
L 195.436017 270.346736 
L 195.945839 264.248967 
L 196.45566 273.39562 
L 196.965482 267.297852 
L 197.475304 236.809009 
L 197.985126 233.760125 
L 198.494948 215.466819 
L 199.514591 191.075745 
L 200.024413 197.173513 
L 200.534235 224.613472 
L 201.044057 236.809009 
L 202.063701 224.613472 
L 203.593166 197.173513 
L 204.102988 206.320166 
L 204.61281 212.417935 
L 205.122632 197.173513 
L 205.632453 218.515703 
L 206.142275 230.71124 
L 206.652097 236.809009 
L 207.161919 261.200083 
L 208.181563 261.200083 
L 208.691384 249.004546 
L 209.201206 221.564587 
L 209.711028 184.977976 
L 210.22085 175.831323 
L 210.730672 136.195828 
L 211.240494 127.049175 
L 211.750315 133.146943 
L 212.260137 154.489133 
L 212.769959 191.075745 
L 213.279781 215.466819 
L 213.789603 206.320166 
L 214.299425 188.02686 
L 214.809247 181.929092 
L 216.848534 194.124629 
L 217.358356 194.124629 
L 217.868178 212.417935 
L 218.377999 252.05343 
L 218.887821 261.200083 
L 219.397643 261.200083 
L 219.907465 255.102314 
L 220.417287 261.200083 
L 220.927109 249.004546 
L 221.43693 233.760125 
L 221.946752 203.271282 
L 222.456574 191.075745 
L 222.966396 175.831323 
L 223.476218 175.831323 
L 223.98604 166.68467 
L 224.495861 181.929092 
L 225.005683 209.36905 
L 225.515505 212.417935 
L 226.025327 218.515703 
L 226.535149 209.36905 
L 227.044971 197.173513 
L 227.554792 166.68467 
L 228.574436 166.68467 
L 229.084258 169.733555 
L 229.59408 169.733555 
L 230.103902 224.613472 
L 230.613723 267.297852 
L 231.123545 297.786694 
L 232.653011 297.786694 
L 233.162833 291.688926 
L 234.182476 267.297852 
L 234.692298 267.297852 
L 235.20212 270.346736 
L 235.711942 270.346736 
L 236.221764 273.39562 
L 236.731585 261.200083 
L 237.241407 245.955662 
L 237.751229 255.102314 
L 238.261051 267.297852 
L 238.770873 294.73781 
L 239.280695 300.835579 
L 240.300338 288.640042 
L 240.81016 285.591157 
L 242.339626 285.591157 
L 242.849448 282.542273 
L 243.359269 282.542273 
L 243.869091 294.73781 
L 244.378913 300.835579 
L 244.888735 300.835579 
L 245.398557 291.688926 
L 245.908379 297.786694 
L 246.4182 300.835579 
L 249.477131 300.835579 
L 249.986953 297.786694 
L 250.496775 291.688926 
L 251.006597 300.835579 
L 257.634281 300.835579 
L 258.144103 294.73781 
L 258.653924 294.73781 
L 259.163746 285.591157 
L 263.752143 285.591157 
L 264.771786 273.39562 
L 265.281608 270.346736 
L 265.79143 270.346736 
L 266.301252 273.39562 
L 266.811074 270.346736 
L 267.320896 270.346736 
L 267.830718 279.493389 
L 268.340539 291.688926 
L 269.870005 291.688926 
L 270.379827 288.640042 
L 270.889649 282.542273 
L 271.39947 279.493389 
L 272.419114 267.297852 
L 272.928936 273.39562 
L 273.438758 270.346736 
L 273.94858 270.346736 
L 274.458401 282.542273 
L 274.968223 282.542273 
L 275.478045 276.444504 
L 275.987867 276.444504 
L 276.497689 273.39562 
L 277.007511 267.297852 
L 277.517332 270.346736 
L 278.027154 270.346736 
L 278.536976 282.542273 
L 279.046798 288.640042 
L 279.55662 282.542273 
L 280.066442 273.39562 
L 280.576263 267.297852 
L 281.086085 285.591157 
L 281.595907 282.542273 
L 282.105729 276.444504 
L 282.615551 258.151199 
L 283.125373 230.71124 
L 284.145016 127.049175 
L 284.654838 114.853638 
L 285.16466 154.489133 
L 285.674482 154.489133 
L 286.184304 157.538018 
L 286.694125 194.124629 
L 287.203947 218.515703 
L 288.223591 191.075745 
L 288.733413 188.02686 
L 289.243235 175.831323 
L 289.753056 181.929092 
L 290.7727 175.831323 
L 291.282522 184.977976 
L 291.792344 221.564587 
L 292.302166 276.444504 
L 292.811987 285.591157 
L 293.321809 288.640042 
L 294.341453 288.640042 
L 294.851275 279.493389 
L 295.361097 255.102314 
L 295.870919 184.977976 
L 296.38074 157.538018 
L 296.890562 160.586902 
L 297.400384 169.733555 
L 297.910206 169.733555 
L 298.420028 178.880208 
L 298.92985 215.466819 
L 299.439671 236.809009 
L 299.949493 230.71124 
L 300.459315 236.809009 
L 300.969137 224.613472 
L 301.478959 221.564587 
L 301.988781 245.955662 
L 302.498602 249.004546 
L 303.008424 249.004546 
L 303.518246 252.05343 
L 304.028068 291.688926 
L 304.53789 300.835579 
L 306.577177 300.835579 
L 307.086999 285.591157 
L 307.596821 264.248967 
L 308.106643 227.662356 
L 308.616464 178.880208 
L 309.126286 184.977976 
L 309.636108 200.222398 
L 310.14593 203.271282 
L 310.655752 188.02686 
L 311.165574 191.075745 
L 311.675395 209.36905 
L 312.185217 218.515703 
L 312.695039 215.466819 
L 313.204861 206.320166 
L 313.714683 181.929092 
L 314.224505 181.929092 
L 314.734326 172.782439 
L 315.244148 151.440249 
L 315.75397 175.831323 
L 316.773614 242.906777 
L 317.283436 245.955662 
L 317.793257 255.102314 
L 318.303079 255.102314 
L 319.322723 200.222398 
L 319.832545 148.391365 
L 320.342367 142.293596 
L 320.852188 124.000291 
L 321.36201 117.902522 
L 321.871832 127.049175 
L 322.381654 151.440249 
L 322.891476 154.489133 
L 323.401298 172.782439 
L 323.91112 175.831323 
L 324.420941 163.635786 
L 324.930763 169.733555 
L 325.440585 184.977976 
L 325.950407 169.733555 
L 326.460229 181.929092 
L 326.970051 175.831323 
L 327.989694 181.929092 
L 329.009338 236.809009 
L 329.51916 291.688926 
L 330.028982 300.835579 
L 333.597734 300.835579 
L 334.107556 294.73781 
L 334.617378 270.346736 
L 335.1272 252.05343 
L 335.637022 267.297852 
L 336.656665 285.591157 
L 337.166487 276.444504 
L 337.676309 273.39562 
L 338.186131 264.248967 
L 338.695953 273.39562 
L 339.205775 300.835579 
L 342.264706 300.835579 
L 344.303993 297.786694 
L 344.813815 291.688926 
L 345.323637 288.640042 
L 346.34328 285.591157 
L 346.853102 282.542273 
L 347.362924 282.542273 
L 347.872746 279.493389 
L 348.382568 258.151199 
L 349.402211 178.880208 
L 349.912033 169.733555 
L 350.421855 172.782439 
L 351.951321 172.782439 
L 352.461142 184.977976 
L 352.970964 218.515703 
L 353.480786 224.613472 
L 353.990608 224.613472 
L 354.50043 221.564587 
L 355.010252 224.613472 
L 355.520073 215.466819 
L 356.539717 178.880208 
L 357.049539 145.342481 
L 358.069183 139.244712 
L 358.579004 102.658101 
L 359.088826 78.267026 
L 359.598648 81.315911 
L 360.10847 87.413679 
L 360.618292 90.462564 
L 361.128114 99.609216 
L 361.637935 114.853638 
L 362.147757 142.293596 
L 362.657579 120.951406 
L 363.167401 111.804754 
L 363.677223 84.364795 
L 364.187045 90.462564 
L 364.696866 99.609216 
L 365.206688 145.342481 
L 365.71651 160.586902 
L 366.226332 181.929092 
L 366.736154 191.075745 
L 367.245976 175.831323 
L 367.755797 139.244712 
L 368.265619 130.098059 
L 368.775441 78.267026 
L 369.285263 78.267026 
L 369.795085 75.218142 
L 370.304907 81.315911 
L 370.814728 93.511448 
L 371.32455 114.853638 
L 371.834372 130.098059 
L 372.344194 154.489133 
L 372.854016 127.049175 
L 373.363838 136.195828 
L 373.873659 151.440249 
L 374.383481 139.244712 
L 374.893303 136.195828 
L 375.403125 145.342481 
L 375.912947 145.342481 
L 376.932591 151.440249 
L 377.442412 184.977976 
L 378.462056 218.515703 
L 378.971878 224.613472 
L 379.4817 224.613472 
L 379.991522 215.466819 
L 380.501343 197.173513 
L 381.011165 172.782439 
L 381.520987 184.977976 
L 382.030809 191.075745 
L 383.050453 215.466819 
L 384.070096 252.05343 
L 384.579918 264.248967 
L 385.08974 264.248967 
L 386.619205 236.809009 
L 387.129027 224.613472 
L 388.148671 218.515703 
L 388.658493 197.173513 
L 389.168315 169.733555 
L 389.678136 178.880208 
L 390.69778 224.613472 
L 391.207602 218.515703 
L 391.717424 203.271282 
L 392.227246 181.929092 
L 393.246889 102.658101 
L 393.756711 75.218142 
L 394.266533 72.169258 
L 394.776355 75.218142 
L 395.286177 111.804754 
L 395.795998 133.146943 
L 396.30582 191.075745 
L 396.815642 209.36905 
L 397.325464 209.36905 
L 397.835286 212.417935 
L 398.345108 200.222398 
L 399.364751 169.733555 
L 399.874573 169.733555 
L 400.384395 166.68467 
L 400.894217 148.391365 
L 401.404039 154.489133 
L 401.91386 175.831323 
L 402.933504 239.857893 
L 403.443326 264.248967 
L 403.953148 270.346736 
L 404.46297 267.297852 
L 405.482613 215.466819 
L 405.992435 221.564587 
L 406.502257 221.564587 
L 407.012079 224.613472 
L 407.521901 224.613472 
L 408.031723 227.662356 
L 408.541544 215.466819 
L 409.051366 215.466819 
L 409.561188 252.05343 
L 410.07101 255.102314 
L 410.580832 261.200083 
L 411.090654 224.613472 
L 411.600475 230.71124 
L 412.110297 267.297852 
L 412.620119 279.493389 
L 413.129941 279.493389 
L 413.639763 294.73781 
L 414.149585 297.786694 
L 416.188872 297.786694 
L 416.698694 300.835579 
L 419.757625 300.835579 
L 420.267447 294.73781 
L 420.777268 273.39562 
L 421.796912 285.591157 
L 422.306734 297.786694 
L 422.816556 297.786694 
L 423.326378 300.835579 
L 427.404952 300.835579 
L 428.424596 270.346736 
L 428.934418 285.591157 
L 429.44424 285.591157 
L 429.954062 273.39562 
L 430.463883 249.004546 
L 430.973705 233.760125 
L 431.483527 252.05343 
L 431.993349 264.248967 
L 432.503171 261.200083 
L 433.012993 261.200083 
L 433.522814 288.640042 
L 434.032636 288.640042 
L 434.542458 264.248967 
L 435.05228 227.662356 
L 437.091567 227.662356 
L 437.601389 230.71124 
L 438.111211 227.662356 
L 438.621033 276.444504 
L 439.130855 285.591157 
L 439.640676 288.640042 
L 440.150498 300.835579 
L 440.66032 294.73781 
L 441.170142 297.786694 
L 442.189786 297.786694 
L 442.699607 288.640042 
L 443.209429 267.297852 
L 443.719251 273.39562 
L 668.040859 249.004546 
L 668.550681 239.857893 
L 669.060503 236.809009 
L 669.570325 236.809009 
L 670.080146 233.760125 
L 670.589968 227.662356 
L 671.09979 236.809009 
L 671.609612 236.809009 
L 672.119434 233.760125 
L 672.629256 276.444504 
L 673.139077 291.688926 
L 673.648899 285.591157 
L 674.668543 267.297852 
L 675.688187 267.297852 
L 676.198009 270.346736 
L 676.70783 245.955662 
L 677.727474 233.760125 
L 678.237296 236.809009 
L 679.25694 230.71124 
L 679.766761 224.613472 
L 679.766761 224.613472 
" style="fill:none;stroke:#1f77b4;stroke-linecap:square;stroke-width:1.5;"/>
   </g>
   <g id="patch_3">
    <path d="M 40.603125 316.08 
L 40.603125 22.32 
" style="fill:none;stroke:#000000;stroke-linecap:square;stroke-linejoin:miter;stroke-width:0.8;"/>
   </g>
   <g id="patch_4">
    <path d="M 710.203125 316.08 
L 710.203125 22.32 
" style="fill:none;stroke:#000000;stroke-linecap:square;stroke-linejoin:miter;stroke-width:0.8;"/>
   </g>
   <g id="patch_5">
    <path d="M 40.603125 316.08 
L 710.203125 316.08 
" style="fill:none;stroke:#000000;stroke-linecap:square;stroke-linejoin:miter;stroke-width:0.8;"/>
   </g>
   <g id="patch_6">
    <path d="M 40.603125 22.32 
L 710.203125 22.32 
" style="fill:none;stroke:#000000;stroke-linecap:square;stroke-linejoin:miter;stroke-width:0.8;"/>
   </g>
   <g id="text_15">
    <!-- CO$_2$e intensity of the Ontario power grid for 30 days ending on 2023-04-22 -->
    <g transform="translate(149.743125 16.32)scale(0.12 -0.12)">
     <defs>
      <path d="M 64.40625 67.28125 
L 64.40625 56.890625 
Q 59.421875 61.53125 53.78125 63.8125 
Q 48.140625 66.109375 41.796875 66.109375 
Q 29.296875 66.109375 22.65625 58.46875 
Q 16.015625 50.828125 16.015625 36.375 
Q 16.015625 21.96875 22.65625 14.328125 
Q 29.296875 6.6875 41.796875 6.6875 
Q 48.140625 6.6875 53.78125 8.984375 
Q 59.421875 11.28125 64.40625 15.921875 
L 64.40625 5.609375 
Q 59.234375 2.09375 53.4375 0.328125 
Q 47.65625 -1.421875 41.21875 -1.421875 
Q 24.65625 -1.421875 15.125 8.703125 
Q 5.609375 18.84375 5.609375 36.375 
Q 5.609375 53.953125 15.125 64.078125 
Q 24.65625 74.21875 41.21875 74.21875 
Q 47.75 74.21875 53.53125 72.484375 
Q 59.328125 70.75 64.40625 67.28125 
z
" id="DejaVuSans-67"/>
      <path d="M 39.40625 66.21875 
Q 28.65625 66.21875 22.328125 58.203125 
Q 16.015625 50.203125 16.015625 36.375 
Q 16.015625 22.609375 22.328125 14.59375 
Q 28.65625 6.59375 39.40625 6.59375 
Q 50.140625 6.59375 56.421875 14.59375 
Q 62.703125 22.609375 62.703125 36.375 
Q 62.703125 50.203125 56.421875 58.203125 
Q 50.140625 66.21875 39.40625 66.21875 
z
M 39.40625 74.21875 
Q 54.734375 74.21875 63.90625 63.9375 
Q 73.09375 53.65625 73.09375 36.375 
Q 73.09375 19.140625 63.90625 8.859375 
Q 54.734375 -1.421875 39.40625 -1.421875 
Q 24.03125 -1.421875 14.8125 8.828125 
Q 5.609375 19.09375 5.609375 36.375 
Q 5.609375 53.65625 14.8125 63.9375 
Q 24.03125 74.21875 39.40625 74.21875 
z
" id="DejaVuSans-79"/>
      <path id="DejaVuSans-32"/>
      <path d="M 9.421875 54.6875 
L 18.40625 54.6875 
L 18.40625 0 
L 9.421875 0 
z
M 9.421875 75.984375 
L 18.40625 75.984375 
L 18.40625 64.59375 
L 9.421875 64.59375 
z
" id="DejaVuSans-105"/>
      <path d="M 54.890625 33.015625 
L 54.890625 0 
L 45.90625 0 
L 45.90625 32.71875 
Q 45.90625 40.484375 42.875 44.328125 
Q 39.84375 48.1875 33.796875 48.1875 
Q 26.515625 48.1875 22.3125 43.546875 
Q 18.109375 38.921875 18.109375 30.90625 
L 18.109375 0 
L 9.078125 0 
L 9.078125 54.6875 
L 18.109375 54.6875 
L 18.109375 46.1875 
Q 21.34375 51.125 25.703125 53.5625 
Q 30.078125 56 35.796875 56 
Q 45.21875 56 50.046875 50.171875 
Q 54.890625 44.34375 54.890625 33.015625 
z
" id="DejaVuSans-110"/>
      <path d="M 44.28125 53.078125 
L 44.28125 44.578125 
Q 40.484375 46.53125 36.375 47.5 
Q 32.28125 48.484375 27.875 48.484375 
Q 21.1875 48.484375 17.84375 46.4375 
Q 14.5 44.390625 14.5 40.28125 
Q 14.5 37.15625 16.890625 35.375 
Q 19.28125 33.59375 26.515625 31.984375 
L 29.59375 31.296875 
Q 39.15625 29.25 43.1875 25.515625 
Q 47.21875 21.78125 47.21875 15.09375 
Q 47.21875 7.46875 41.1875 3.015625 
Q 35.15625 -1.421875 24.609375 -1.421875 
Q 20.21875 -1.421875 15.453125 -0.5625 
Q 10.6875 0.296875 5.421875 2 
L 5.421875 11.28125 
Q 10.40625 8.6875 15.234375 7.390625 
Q 20.0625 6.109375 24.8125 6.109375 
Q 31.15625 6.109375 34.5625 8.28125 
Q 37.984375 10.453125 37.984375 14.40625 
Q 37.984375 18.0625 35.515625 20.015625 
Q 33.0625 21.96875 24.703125 23.78125 
L 21.578125 24.515625 
Q 13.234375 26.265625 9.515625 29.90625 
Q 5.8125 33.546875 5.8125 39.890625 
Q 5.8125 47.609375 11.28125 51.796875 
Q 16.75 56 26.8125 56 
Q 31.78125 56 36.171875 55.265625 
Q 40.578125 54.546875 44.28125 53.078125 
z
" id="DejaVuSans-115"/>
      <path d="M 32.171875 -5.078125 
Q 28.375 -14.84375 24.75 -17.8125 
Q 21.140625 -20.796875 15.09375 -20.796875 
L 7.90625 -20.796875 
L 7.90625 -13.28125 
L 13.1875 -13.28125 
Q 16.890625 -13.28125 18.9375 -11.515625 
Q 21 -9.765625 23.484375 -3.21875 
L 25.09375 0.875 
L 2.984375 54.6875 
L 12.5 54.6875 
L 29.59375 11.921875 
L 46.6875 54.6875 
L 56.203125 54.6875 
z
" id="DejaVuSans-121"/>
      <path d="M 30.609375 48.390625 
Q 23.390625 48.390625 19.1875 42.75 
Q 14.984375 37.109375 14.984375 27.296875 
Q 14.984375 17.484375 19.15625 11.84375 
Q 23.34375 6.203125 30.609375 6.203125 
Q 37.796875 6.203125 41.984375 11.859375 
Q 46.1875 17.53125 46.1875 27.296875 
Q 46.1875 37.015625 41.984375 42.703125 
Q 37.796875 48.390625 30.609375 48.390625 
z
M 30.609375 56 
Q 42.328125 56 49.015625 48.375 
Q 55.71875 40.765625 55.71875 27.296875 
Q 55.71875 13.875 49.015625 6.21875 
Q 42.328125 -1.421875 30.609375 -1.421875 
Q 18.84375 -1.421875 12.171875 6.21875 
Q 5.515625 13.875 5.515625 27.296875 
Q 5.515625 40.765625 12.171875 48.375 
Q 18.84375 56 30.609375 56 
z
" id="DejaVuSans-111"/>
      <path d="M 37.109375 75.984375 
L 37.109375 68.5 
L 28.515625 68.5 
Q 23.6875 68.5 21.796875 66.546875 
Q 19.921875 64.59375 19.921875 59.515625 
L 19.921875 54.6875 
L 34.71875 54.6875 
L 34.71875 47.703125 
L 19.921875 47.703125 
L 19.921875 0 
L 10.890625 0 
L 10.890625 47.703125 
L 2.296875 47.703125 
L 2.296875 54.6875 
L 10.890625 54.6875 
L 10.890625 58.5 
Q 10.890625 67.625 15.140625 71.796875 
Q 19.390625 75.984375 28.609375 75.984375 
z
" id="DejaVuSans-102"/>
      <path d="M 41.109375 46.296875 
Q 39.59375 47.171875 37.8125 47.578125 
Q 36.03125 48 33.890625 48 
Q 26.265625 48 22.1875 43.046875 
Q 18.109375 38.09375 18.109375 28.8125 
L 18.109375 0 
L 9.078125 0 
L 9.078125 54.6875 
L 18.109375 54.6875 
L 18.109375 46.1875 
Q 20.953125 51.171875 25.484375 53.578125 
Q 30.03125 56 36.53125 56 
Q 37.453125 56 38.578125 55.875 
Q 39.703125 55.765625 41.0625 55.515625 
z
" id="DejaVuSans-114"/>
      <path d="M 18.109375 8.203125 
L 18.109375 -20.796875 
L 9.078125 -20.796875 
L 9.078125 54.6875 
L 18.109375 54.6875 
L 18.109375 46.390625 
Q 20.953125 51.265625 25.265625 53.625 
Q 29.59375 56 35.59375 56 
Q 45.5625 56 51.78125 48.09375 
Q 58.015625 40.1875 58.015625 27.296875 
Q 58.015625 14.40625 51.78125 6.484375 
Q 45.5625 -1.421875 35.59375 -1.421875 
Q 29.59375 -1.421875 25.265625 0.953125 
Q 20.953125 3.328125 18.109375 8.203125 
z
M 48.6875 27.296875 
Q 48.6875 37.203125 44.609375 42.84375 
Q 40.53125 48.484375 33.40625 48.484375 
Q 26.265625 48.484375 22.1875 42.84375 
Q 18.109375 37.203125 18.109375 27.296875 
Q 18.109375 17.390625 22.1875 11.75 
Q 26.265625 6.109375 33.40625 6.109375 
Q 40.53125 6.109375 44.609375 11.75 
Q 48.6875 17.390625 48.6875 27.296875 
z
" id="DejaVuSans-112"/>
      <path d="M 4.203125 54.6875 
L 13.1875 54.6875 
L 24.421875 12.015625 
L 35.59375 54.6875 
L 46.1875 54.6875 
L 57.421875 12.015625 
L 68.609375 54.6875 
L 77.59375 54.6875 
L 63.28125 0 
L 52.6875 0 
L 40.921875 44.828125 
L 29.109375 0 
L 18.5 0 
z
" id="DejaVuSans-119"/>
      <path d="M 45.40625 46.390625 
L 45.40625 75.984375 
L 54.390625 75.984375 
L 54.390625 0 
L 45.40625 0 
L 45.40625 8.203125 
Q 42.578125 3.328125 38.25 0.953125 
Q 33.9375 -1.421875 27.875 -1.421875 
Q 17.96875 -1.421875 11.734375 6.484375 
Q 5.515625 14.40625 5.515625 27.296875 
Q 5.515625 40.1875 11.734375 48.09375 
Q 17.96875 56 27.875 56 
Q 33.9375 56 38.25 53.625 
Q 42.578125 51.265625 45.40625 46.390625 
z
M 14.796875 27.296875 
Q 14.796875 17.390625 18.875 11.75 
Q 22.953125 6.109375 30.078125 6.109375 
Q 37.203125 6.109375 41.296875 11.75 
Q 45.40625 17.390625 45.40625 27.296875 
Q 45.40625 37.203125 41.296875 42.84375 
Q 37.203125 48.484375 30.078125 48.484375 
Q 22.953125 48.484375 18.875 42.84375 
Q 14.796875 37.203125 14.796875 27.296875 
z
" id="DejaVuSans-100"/>
     </defs>
     <use transform="translate(0 0.015625)" xlink:href="#DejaVuSans-67"/>
     <use transform="translate(69.824219 0.015625)" xlink:href="#DejaVuSans-79"/>
     <use transform="translate(149.492188 -16.390625)scale(0.7)" xlink:href="#DejaVuSans-50"/>
     <use transform="translate(196.762695 0.015625)" xlink:href="#DejaVuSans-101"/>
     <use transform="translate(258.286133 0.015625)" xlink:href="#DejaVuSans-32"/>
     <use transform="translate(290.073242 0.015625)" xlink:href="#DejaVuSans-105"/>
     <use transform="translate(317.856445 0.015625)" xlink:href="#DejaVuSans-110"/>
     <use transform="translate(381.235352 0.015625)" xlink:href="#DejaVuSans-116"/>
     <use transform="translate(420.444336 0.015625)" xlink:href="#DejaVuSans-101"/>
     <use transform="translate(481.967773 0.015625)" xlink:href="#DejaVuSans-110"/>
     <use transform="translate(545.34668 0.015625)" xlink:href="#DejaVuSans-115"/>
     <use transform="translate(597.446289 0.015625)" xlink:href="#DejaVuSans-105"/>
     <use transform="translate(625.229492 0.015625)" xlink:href="#DejaVuSans-116"/>
     <use transform="translate(664.438477 0.015625)" xlink:href="#DejaVuSans-121"/>
     <use transform="translate(723.618164 0.015625)" xlink:href="#DejaVuSans-32"/>
     <use transform="translate(755.405273 0.015625)" xlink:href="#DejaVuSans-111"/>
     <use transform="translate(816.586914 0.015625)" xlink:href="#DejaVuSans-102"/>
     <use transform="translate(851.791992 0.015625)" xlink:href="#DejaVuSans-32"/>
     <use transform="translate(883.579102 0.015625)" xlink:href="#DejaVuSans-116"/>
     <use transform="translate(922.788086 0.015625)" xlink:href="#DejaVuSans-104"/>
     <use transform="translate(986.166992 0.015625)" xlink:href="#DejaVuSans-101"/>
     <use transform="translate(1047.69043 0.015625)" xlink:href="#DejaVuSans-32"/>
     <use transform="translate(1079.477539 0.015625)" xlink:href="#DejaVuSans-79"/>
     <use transform="translate(1158.188477 0.015625)" xlink:href="#DejaVuSans-110"/>
     <use transform="translate(1221.567383 0.015625)" xlink:href="#DejaVuSans-116"/>
     <use transform="translate(1260.776367 0.015625)" xlink:href="#DejaVuSans-97"/>
     <use transform="translate(1322.055664 0.015625)" xlink:href="#DejaVuSans-114"/>
     <use transform="translate(1363.168945 0.015625)" xlink:href="#DejaVuSans-105"/>
     <use transform="translate(1390.952148 0.015625)" xlink:href="#DejaVuSans-111"/>
     <use transform="translate(1452.133789 0.015625)" xlink:href="#DejaVuSans-32"/>
     <use transform="translate(1483.920898 0.015625)" xlink:href="#DejaVuSans-112"/>
     <use transform="translate(1547.397461 0.015625)" xlink:href="#DejaVuSans-111"/>
     <use transform="translate(1608.579102 0.015625)" xlink:href="#DejaVuSans-119"/>
     <use transform="translate(1690.366211 0.015625)" xlink:href="#DejaVuSans-101"/>
     <use transform="translate(1751.889648 0.015625)" xlink:href="#DejaVuSans-114"/>
     <use transform="translate(1793.00293 0.015625)" xlink:href="#DejaVuSans-32"/>
     <use transform="translate(1824.790039 0.015625)" xlink:href="#DejaVuSans-103"/>
     <use transform="translate(1888.266602 0.015625)" xlink:href="#DejaVuSans-114"/>
     <use transform="translate(1929.379883 0.015625)" xlink:href="#DejaVuSans-105"/>
     <use transform="translate(1957.163086 0.015625)" xlink:href="#DejaVuSans-100"/>
     <use transform="translate(2020.639648 0.015625)" xlink:href="#DejaVuSans-32"/>
     <use transform="translate(2052.426758 0.015625)" xlink:href="#DejaVuSans-102"/>
     <use transform="translate(2087.631836 0.015625)" xlink:href="#DejaVuSans-111"/>
     <use transform="translate(2148.813477 0.015625)" xlink:href="#DejaVuSans-114"/>
     <use transform="translate(2189.926758 0.015625)" xlink:href="#DejaVuSans-32"/>
     <use transform="translate(2221.713867 0.015625)" xlink:href="#DejaVuSans-51"/>
     <use transform="translate(2285.336914 0.015625)" xlink:href="#DejaVuSans-48"/>
     <use transform="translate(2348.959961 0.015625)" xlink:href="#DejaVuSans-32"/>
     <use transform="translate(2380.74707 0.015625)" xlink:href="#DejaVuSans-100"/>
     <use transform="translate(2444.223633 0.015625)" xlink:href="#DejaVuSans-97"/>
     <use transform="translate(2505.50293 0.015625)" xlink:href="#DejaVuSans-121"/>
     <use transform="translate(2564.682617 0.015625)" xlink:href="#DejaVuSans-115"/>
     <use transform="translate(2616.782227 0.015625)" xlink:href="#DejaVuSans-32"/>
     <use transform="translate(2648.569336 0.015625)" xlink:href="#DejaVuSans-101"/>
     <use transform="translate(2710.092773 0.015625)" xlink:href="#DejaVuSans-110"/>
     <use transform="translate(2773.47168 0.015625)" xlink:href="#DejaVuSans-100"/>
     <use transform="translate(2836.948242 0.015625)" xlink:href="#DejaVuSans-105"/>
     <use transform="translate(2864.731445 0.015625)" xlink:href="#DejaVuSans-110"/>
     <use transform="translate(2928.110352 0.015625)" xlink:href="#DejaVuSans-103"/>
     <use transform="translate(2991.586914 0.015625)" xlink:href="#DejaVuSans-32"/>
     <use transform="translate(3023.374023 0.015625)" xlink:href="#DejaVuSans-111"/>
     <use transform="translate(3084.555664 0.015625)" xlink:href="#DejaVuSans-110"/>
     <use transform="translate(3147.93457 0.015625)" xlink:href="#DejaVuSans-32"/>
     <use transform="translate(3179.72168 0.015625)" xlink:href="#DejaVuSans-50"/>
     <use transform="translate(3243.344727 0.015625)" xlink:href="#DejaVuSans-48"/>
     <use transform="translate(3306.967773 0.015625)" xlink:href="#DejaVuSans-50"/>
     <use transform="translate(3370.59082 0.015625)" xlink:href="#DejaVuSans-51"/>
     <use transform="translate(3434.213867 0.015625)" xlink:href="#DejaVuSans-45"/>
     <use transform="translate(3470.297852 0.015625)" xlink:href="#DejaVuSans-48"/>
     <use transform="translate(3533.920898 0.015625)" xlink:href="#DejaVuSans-52"/>
     <use transform="translate(3597.543945 0.015625)" xlink:href="#DejaVuSans-45"/>
     <use transform="translate(3633.62793 0.015625)" xlink:href="#DejaVuSans-50"/>
     <use transform="translate(3697.250977 0.015625)" xlink:href="#DejaVuSans-50"/>
    </g>
   </g>
  </g>
 </g>
 <defs>
  <clipPath id="p8e2b00575a">
   <rect height="293.76" width="669.6" x="40.603125" y="22.32"/>
  </clipPath>
 </defs>
</svg>
